<?xml version="1.0" standalone="no"?>
<!DOCTYPE svg PUBLIC "-//W3C//DTD SVG 1.1//EN" "http://www.w3.org/Graphics/SVG/1.1/DTD/svg11.dtd" >
<svg xmlns="http://www.w3.org/2000/svg">
<metadata>
This is a custom SVG webfont generated by Font Squirrel.
Copyright   : Copyright c 1989 Adobe Systems Incorporated All rights reservedGill Sans is a trademark of the Monotype Corporation plc
</metadata>
<defs>
<font id="GillSansRegular" horiz-adv-x="1024" >
<font-face units-per-em="2048" ascent="1638" descent="-410" />
<missing-glyph horiz-adv-x="569" />
<glyph unicode=" "  horiz-adv-x="569" />
<glyph unicode="&#x09;" horiz-adv-x="569" />
<glyph unicode="&#xa0;" horiz-adv-x="569" />
<glyph unicode="!" horiz-adv-x="555" d="M152 104q0 53 35.5 90t89 37t89 -36.5t35.5 -90.5q0 -51 -35.5 -86.5t-86.5 -35.5q-53 0 -90 35.5t-37 86.5zM164 1122q0 293 115 293q113 0 112 -285q0 -233 -45 -485l-12 -74l-15 -79l-16 -58q-8 -31 -27 -31q-10 0 -20 33l-16 51q-18 66 -31 152q-45 303 -45 483z" />
<glyph unicode="&#x22;" horiz-adv-x="724" d="M94 1227v239h205v-239l-45 -281h-111zM426 1227v239h205v-239l-47 -281h-109z" />
<glyph unicode="#" horiz-adv-x="1368" d="M90 356v123h223l78 371h-301v123h326l86 403h121l-86 -403h421l84 403h123l-86 -403h199v-123h-223l-76 -371h299v-123h-324l-84 -401h-122l86 401h-424l-84 -401h-123l84 401h-197zM434 481h424l76 369h-422z" />
<glyph unicode="$" horiz-adv-x="1110" d="M104 125v252q137 -125 269 -178q47 -18 116 -33v440q-123 41 -184 75t-108 83q-90 96 -91 213q0 141 104.5 240.5t278.5 123.5v74h168v-74q199 -31 306 -120v-230q-123 127 -306 170v-405q109 -33 185 -80q68 -43 116 -107q70 -94 70 -209q0 -100 -54 -189t-147 -138 q-68 -37 -170 -53v-222h-168v222q-115 10 -260 77q-47 23 -125 68zM305 991q0 -57 35 -95t121 -75q12 -4 28 -12v352q-82 -10 -133 -58.5t-51 -111.5zM657 168q170 39 170 176q0 59 -30.5 99t-108.5 79l-31 17v-371z" />
<glyph unicode="%" horiz-adv-x="1449" d="M117 1100q0 129 91 221t220 92t220 -92t91 -221q0 -127 -91 -219.5t-220 -92.5t-220 92.5t-91 219.5zM217 -18l920 1435h153l-919 -1435h-154zM264 1100q0 -66 48 -114t114 -48q68 0 115 48t47 114q0 68 -47 115t-115 47q-66 0 -114 -47t-48 -115zM774 297q0 129 92 220 t221 91q127 0 219.5 -91t92.5 -220t-92.5 -220t-219.5 -91q-129 0 -221 91t-92 220zM926 297q0 -68 47 -115t112 -47q68 0 115 47t47 115q0 66 -47 113t-115 47q-66 0 -112.5 -47t-46.5 -113z" />
<glyph unicode="&#x26;" horiz-adv-x="1280" d="M57 309q0 96 49.5 175t163.5 163q68 51 117 78q-158 168 -158 324q0 143 96.5 232t252.5 89q152 0 250 -87t98 -222q0 -184 -244 -356l-14 -11l196 -225q86 94 150 225h200q-72 -186 -227 -366l283 -328h-256l-162 190q-10 -10 -14 -12l-31 -26q-14 -12 -21 -19l-8 -6 q-41 -33 -110 -72q-143 -74 -262 -73q-145 0 -247 95t-102 232zM258 317q0 -59 51 -102t123 -43q55 0 126 33t126 84l45 41l-227 262l-88 -62q-156 -107 -156 -213zM426 1067q0 -119 129 -238l12 9l64 45q106 76 106 174q0 61 -45 102t-112 41q-66 0 -110 -38t-44 -95z" />
<glyph unicode="'" horiz-adv-x="385" d="M90 1221v245h205v-245l-47 -275h-113z" />
<glyph unicode="(" horiz-adv-x="661" d="M131 471q0 383 238 737q51 78 155 207h113q-94 -141 -129 -211q-63 -115 -98 -237q-68 -223 -68 -502q0 -387 154 -707q59 -121 141 -229h-113l-30 37q-121 154 -171.5 234.5t-97.5 197.5q-94 231 -94 473z" />
<glyph unicode=")" horiz-adv-x="661" d="M25 -471q84 127 129 211q63 115 98 237q68 223 67 500q0 389 -153 709q-55 113 -141 229h112l31 -37q121 -154 171 -234.5t97 -197.5q94 -231 94 -473q0 -383 -237 -737q-39 -61 -156 -207h-112z" />
<glyph unicode="*" horiz-adv-x="854" d="M35 827q0 63 123 107l202 70q-4 16 -4 24q0 2 4 23l-231 86q-90 33 -90 86q0 29 21.5 52t48.5 23q23 0 65 -32l27 -21l174 -164q18 18 39 21l-39 205l-10 43q-4 29 -5 45q0 92 70 92q68 0 68 -82q0 -29 -13 -94l-41 -209h5q20 0 36 -21l172 164q55 51 95 51 q29 0 47 -20.5t18 -50.5q0 -59 -78 -88l-22 -7l-219 -79q4 -12 4 -24.5t-4 -22.5l207 -76l24 -10l45 -23q16 -10 31 -31q12 -20 12 -37q0 -41 -39 -63q-12 -6 -26 -6q-47 0 -117 67l-150 150q-20 -20 -41 -21l41 -211q8 -61 9 -92q0 -88 -68 -88q-70 0 -70 96q0 27 6 52 l7 32l45 211q-18 2 -39 21l-160 -148q-76 -68 -113 -67q-29 0 -48 19t-19 48z" />
<glyph unicode="+" horiz-adv-x="1366" d="M137 596v131h477v479h131v-479h482v-131h-482v-475h-131v475h-477z" />
<glyph unicode="," horiz-adv-x="448" d="M78 131q0 53 37 93t86 40q61 0 100 -54t39 -138q0 -113 -63.5 -197t-176.5 -119v37q45 45 62.5 89t21.5 118q-106 31 -106 131z" />
<glyph unicode="-" horiz-adv-x="661" d="M82 356v195h498v-195h-498z" />
<glyph unicode="." horiz-adv-x="448" d="M102 102.5q0 51.5 35 86t86 34.5t87 -34.5t36 -86t-36 -86t-87 -34.5t-86 34.5t-35 86z" />
<glyph unicode="/" horiz-adv-x="575" d="M4 -25l424 1516h145l-426 -1516h-143z" />
<glyph unicode="0" d="M61 698q0 317 128 517t331 200q193 0 318 -201.5t125 -511.5q0 -319 -125 -519.5t-326 -200.5q-203 0 -327 197t-124 519zM262 700q0 -248 66.5 -389t181.5 -141t182.5 141.5t67.5 382.5q0 238 -63.5 379t-174.5 150h-10q-115 0 -182.5 -140.5t-67.5 -382.5z" />
<glyph unicode="1" d="M414 0v1397h200v-1397h-200z" />
<glyph unicode="2" d="M70 0v14l82 101q207 248 340 446q63 90 110 182q51 106 51 213q0 119 -66.5 190t-176.5 71q-174 0 -312 -189v254q162 133 336 133q182 0 301 -122t119 -310q0 -154 -84 -311q-51 -96 -111.5 -181t-193.5 -247l-43 -51h532v-193h-884z" />
<glyph unicode="3" d="M131 61v218q156 -98 307 -99q100 0 160.5 59.5t60.5 159.5q0 106 -73 170q-59 51 -199 58l-18 2v184h12q131 0 199.5 54.5t68.5 156.5q0 94 -66.5 151.5t-175 57.5t-241.5 -68v191q119 59 266 59q193 0 303.5 -100.5t110.5 -274.5q0 -205 -178 -303q80 -33 116 -76 q84 -96 84 -256q0 -182 -121.5 -302.5t-308.5 -120.5q-153 -1 -307 79z" />
<glyph unicode="4" d="M23 459v88l704 868h82v-784h156v-172h-156v-459h-195v459h-591zM291 631h323v405h-4z" />
<glyph unicode="5" d="M102 68v206q150 -98 295 -98q125 0 211 73t86 181q0 111 -93 185.5t-232 74.5q-117 0 -162 -20v727h620v-178h-438v-353q20 2 43 2q203 0 334 -122.5t131 -315.5q0 -199 -130 -323.5t-335 -124.5q-160 0 -330 86z" />
<glyph unicode="6" d="M90 485q0 358 262 668q94 115 277 248l20 14l121 -153q-162 -104 -264 -224q-106 -123 -164 -288q109 57 221 57q164 0 276.5 -117t112.5 -287q0 -176 -121.5 -298.5t-298.5 -122.5q-197 0 -319.5 140t-122.5 363zM291 438q0 -119 68.5 -194.5t175.5 -75.5 q96 0 158.5 64.5t62.5 164.5q0 102 -66.5 164t-175.5 62q-100 0 -215 -80q-8 -48 -8 -105z" />
<glyph unicode="7" d="M100 1206v191h904l-633 -1415l-178 77l512 1147h-605z" />
<glyph unicode="8" d="M66 385q0 213 198 328q-88 72 -127 143.5t-39 165.5q0 164 123 278.5t301 114.5q176 0 296 -113.5t120 -279.5q0 -186 -174 -309q66 -37 108 -86q86 -98 86 -244q0 -174 -125.5 -287.5t-318.5 -113.5q-190 0 -319 116.5t-129 286.5zM268 393q0 -96 69 -157.5t179 -61.5 q102 0 167 54.5t73 146.5v20q0 96 -69 156.5t-177 60.5q-106 0 -174 -61.5t-68 -157.5zM295 1018q0 -86 66.5 -148.5t158.5 -62.5q90 0 154.5 61.5t64.5 147.5q0 90 -62.5 149.5t-158.5 59.5t-159.5 -58.5t-63.5 -148.5z" />
<glyph unicode="9" d="M74 999q0 174 121.5 295t298.5 121q199 0 324.5 -142.5t125.5 -367.5q0 -254 -157.5 -514t-403.5 -409l-123 147q205 129 334 320q63 96 92 204q-96 -59 -223 -59q-160 0 -274.5 118.5t-114.5 286.5zM272 1001q0 -92 69 -158.5t165 -66.5q111 0 219 76q10 66 10 104 q0 121 -66.5 197t-172.5 76q-96 0 -160 -65t-64 -163z" />
<glyph unicode=":" horiz-adv-x="448" d="M94 104.5q0 51.5 35 87t86 35.5t87 -35.5t36 -87t-36 -87t-87 -35.5q-49 0 -85 35.5t-36 87zM111 815q0 51 34.5 87t86 36t87 -36t35.5 -87t-35.5 -87t-87.5 -36q-49 0 -84.5 36t-35.5 87z" />
<glyph unicode=";" horiz-adv-x="468" d="M102 131q0 53 36 93t87 40q59 0 99.5 -55t40.5 -137q0 -113 -63.5 -197t-176.5 -119v37q43 41 60.5 84t21.5 111l2 12q-107 31 -107 131zM123 815q0 51 36 87t85 36q51 0 87 -36t36 -87t-36 -87t-85 -36q-51 0 -87 36t-36 87z" />
<glyph unicode="&#x3c;" horiz-adv-x="1366" d="M141 604v119l1086 457v-144l-910 -372l910 -375v-142z" />
<glyph unicode="=" horiz-adv-x="1366" d="M139 367v131h1086v-131h-1086zM139 834v133h1086v-133h-1086z" />
<glyph unicode="&#x3e;" horiz-adv-x="1366" d="M141 147v142l908 373l-908 374v144l1084 -459v-117z" />
<glyph unicode="?" horiz-adv-x="681" d="M133 1198l131 219q154 -6 236 -82q94 -84 94 -217q0 -131 -78 -270q-41 -74 -100 -162q-131 -203 -131 -287q0 -14 6 -41q-70 31 -98.5 75t-28.5 116q0 70 23.5 124t113.5 197q84 131 84 226q0 61 -38 98t-101 37q-47 0 -113 -33zM193 102.5q0 51.5 35.5 88t87 36.5 t87 -35.5t35.5 -87t-35.5 -87t-89.5 -35.5q-51 0 -85.5 34.5t-34.5 86z" />
<glyph unicode="@" horiz-adv-x="2068" d="M111 469q2 274 123.5 514t326.5 367q225 143 543 143q373 0 613.5 -221t240.5 -561q0 -274 -185.5 -494.5t-416.5 -220.5q-100 0 -142.5 37t-52.5 131q-141 -166 -305 -166q-156 0 -259 129t-103 319q0 244 159.5 440.5t358.5 196.5q193 0 301 -184l35 156h180l-146 -672 l-14 -70q-14 -63 -14 -84q0 -29 20.5 -48t48.5 -19q78 0 193 104q90 86 141 205t51 246q0 270 -203.5 450.5t-510.5 180.5q-360 0 -597 -245t-237 -618q0 -365 227.5 -566.5t638.5 -201.5q305 0 523 138q70 43 102.5 73.5t73.5 89.5h180q-61 -131 -217 -247 q-266 -201 -666 -201q-471 0 -741 239.5t-270 659.5zM678 430q0 -123 60.5 -204t154.5 -81q139 0 250.5 155t111.5 349q0 129 -63.5 208t-167.5 79q-135 0 -240.5 -154.5t-105.5 -351.5z" />
<glyph unicode="A" horiz-adv-x="1366" d="M0 0l600 1405h141l625 -1405h-205l-186 412h-594l-176 -412h-205zM459 592h434l-225 506z" />
<glyph unicode="B" horiz-adv-x="1153" d="M154 0v1397h366q176 0 271 -47q199 -94 198 -316q0 -207 -213 -293v-4q154 -27 244 -124t90 -232q0 -215 -205 -322q-119 -62 -269 -61h-9l-86 2h-387zM352 618v-440h199q188 0 254 43q98 61 98 178q0 102 -82 162q-45 33 -104.5 45t-175.5 12h-189zM352 799h135 q88 0 144 16q70 18 110.5 73.5t40.5 129.5q0 201 -256 201h-41h-133v-420z" />
<glyph unicode="C" horiz-adv-x="1449" d="M98 694q0 305 218.5 513t537.5 208q219 0 489 -115v-215q-246 139 -479 140q-240 0 -398.5 -150.5t-158.5 -380t155.5 -378t399.5 -148.5q252 0 496 156v-220q-225 -123 -508 -122q-297 0 -494 163q-123 100 -190.5 244.5t-67.5 304.5z" />
<glyph unicode="D" horiz-adv-x="1536" d="M156 0v1397h471q164 0 258 -21q102 -18 190 -63q168 -84 266.5 -251t98.5 -364q0 -223 -130 -403t-343 -252q-86 -29 -149.5 -37t-219.5 -8zM354 1219v-1039h258q160 0 265 29q160 43 258 181t98 319q0 156 -77 276.5t-214 181.5q-70 33 -133.5 42.5t-202.5 9.5h-252z " />
<glyph unicode="E" d="M154 0v1397h792v-178h-592v-426h572v-179h-572v-434h611v-180h-811z" />
<glyph unicode="F" horiz-adv-x="960" d="M156 0v1397h745v-180h-545v-388h545v-180h-545v-649h-200z" />
<glyph unicode="G" horiz-adv-x="1515" d="M102 686q0 313 216.5 521t539.5 208q119 0 224.5 -25.5t267.5 -93.5v-204q-250 145 -496 145q-229 0 -386 -155.5t-157 -383.5q0 -238 157 -389t404 -151q111 0 287 55l19 6v291h-269v176h469v-590q-264 -115 -512 -114q-350 0 -561 211q-203 202 -203 493z" />
<glyph unicode="H" horiz-adv-x="1492" d="M154 0v1397h200v-604h783v604h202v-1397h-202v608h-783v-608h-200z" />
<glyph unicode="I" horiz-adv-x="512" d="M156 0v1397h200v-1397h-200z" />
<glyph unicode="J" horiz-adv-x="512" d="M-127 -281h27h24q131 0 176 54q35 39 45.5 89t10.5 179v1356h200v-1379q0 -160 -26.5 -245.5t-91.5 -151.5q-104 -94 -263 -94q-20 0 -65 6z" />
<glyph unicode="K" horiz-adv-x="1343" d="M154 0v1397h202v-639l588 639h250l-606 -662l755 -735h-274l-713 690v-690h-202z" />
<glyph unicode="L" horiz-adv-x="1003" d="M152 0v1397h202v-1215h629v-182h-831z" />
<glyph unicode="M" horiz-adv-x="1599" d="M150 0v1397h188l465 -574l463 574h186v-1397h-201v1087h-4l-426 -540h-37l-430 540h-4v-1087h-200z" />
<glyph unicode="N" horiz-adv-x="1599" d="M160 0v1397h162l942 -1084v1084h190v-1397h-172l-934 1075v-1075h-188z" />
<glyph unicode="O" horiz-adv-x="1685" d="M92 694q0 313 212 517t535.5 204t538.5 -203.5t215 -513t-217 -513t-547 -203.5q-315 0 -526 203.5t-211 508.5zM299 694q0 -225 155.5 -375.5t387.5 -150.5q233 0 390 152.5t157 381.5q0 221 -156 373t-385 152q-240 0 -394.5 -151t-154.5 -382z" />
<glyph unicode="P" horiz-adv-x="1044" d="M143 0v1397h361h82q201 0 319.5 -106.5t118.5 -289.5q0 -137 -75 -236t-199 -132q-106 -27 -258 -27h-148v-606h-201zM344 784h160h59q123 0 188.5 57.5t65.5 164.5q0 215 -266 215h-55h-152v-437z" />
<glyph unicode="Q" horiz-adv-x="1685" d="M90 694q0 313 213 517t539 204q324 0 538.5 -202.5t214.5 -510.5q0 -260 -162.5 -455.5t-418.5 -244.5v-4l53 -21q227 -94 356 -94q59 0 140 27l-201 -195q-190 10 -406 113q-106 49 -280 172q-256 47 -421 242.5t-165 451.5zM297 694q0 -225 155.5 -375.5t389.5 -150.5 q229 0 386.5 152.5t157.5 377.5q0 229 -154.5 379t-390 150t-389 -151t-155.5 -382z" />
<glyph unicode="R" horiz-adv-x="1236" d="M160 0v1397h350q211 0 335 -104.5t124 -284.5q0 -252 -234 -344q66 -45 121 -109q70 -80 191 -276q72 -117 116 -179l62 -84l12 -16h-238l-14 18l-49 74q-4 8 -47 74q-51 84 -133 207q-100 141 -176 194q-35 27 -67 34t-101 7h-54v-608h-198zM358 1227v-441h78 q94 0 144 9q84 10 134 69.5t50 145.5q0 59 -29.5 110t-77.5 74q-68 33 -237 33h-62z" />
<glyph unicode="S" horiz-adv-x="937" d="M84 1044q0 164 114.5 267.5t297.5 103.5q176 0 321 -98v-227q-152 145 -325 145q-98 0 -161 -45t-63 -117q0 -63 46 -117.5t149 -115.5l153 -90q256 -148 256 -388q0 -168 -112.5 -274t-292.5 -106q-205 0 -377 129v254q59 -76 115 -115q123 -90 260 -90q94 0 156.5 52 t62.5 132q0 133 -184 242l-152 92q-141 84 -202.5 168.5t-61.5 197.5z" />
<glyph unicode="T" horiz-adv-x="1236" d="M35 1221v176h1167v-176h-487v-1221h-201v1221h-479z" />
<glyph unicode="U" horiz-adv-x="1449" d="M125 606v791h201v-793q0 -139 18 -207.5t70 -120.5q115 -117 311 -116q152 0 259.5 70.5t127.5 185.5q14 63 14 188v793h199v-793q0 -176 -31 -274q-37 -117 -127 -197q-170 -152 -440 -151q-213 0 -365.5 92t-203.5 252q-33 100 -33 280z" />
<glyph unicode="V" horiz-adv-x="1236" d="M0 1397h201l420 -981l417 981h199l-590 -1405h-45z" />
<glyph unicode="W" horiz-adv-x="2134" d="M0 1397h201l385 -963l387 963h190l389 -963l381 963h199l-565 -1405h-43l-457 1138l-461 -1138h-43z" />
<glyph unicode="X" horiz-adv-x="1449" d="M4 0l602 723l-559 674h244l438 -533l436 533h242l-557 -674l596 -723h-242l-475 578l-481 -578h-244z" />
<glyph unicode="Y" horiz-adv-x="1236" d="M0 1397h242l374 -482l379 482h242l-516 -658v-739h-205v739z" />
<glyph unicode="Z" horiz-adv-x="1323" d="M25 0l895 1221h-838v176h1204l-893 -1221h893v-176h-1261z" />
<glyph unicode="[" horiz-adv-x="681" d="M176 -453v1850h477v-166h-280v-1520h280v-164h-477z" />
<glyph unicode="\" horiz-adv-x="575" d="M4 1491h143l426 -1516h-145z" />
<glyph unicode="]" horiz-adv-x="681" d="M31 -289h278v1522h-278v164h475v-1850h-475v164z" />
<glyph unicode="^" horiz-adv-x="960" d="M53 596l355 801h145l354 -801h-182l-246 598l-241 -598h-185z" />
<glyph unicode="_" horiz-adv-x="1130" d="M-31 -276h1192v-132h-1192v132z" />
<glyph unicode="`" horiz-adv-x="681" d="M88 1307h242l135 -279h-146z" />
<glyph unicode="a" horiz-adv-x="874" d="M55 209q0 86 62.5 155.5t177.5 108.5l74 25l157 55v49q0 164 -164 164q-152 0 -290 -152v199q106 125 305 125q94 0 171 -35t114 -94q31 -51 38 -92t7 -164v-350v-41q0 -47 32 -47q31 0 103 49v-111q-106 -72 -178 -71q-117 0 -138 94q-123 -94 -247 -94q-94 0 -159 65.5 t-65 161.5zM236 240q0 -57 36.5 -93t94.5 -36q86 0 161 71v273l-122 -47q-94 -39 -132 -76t-38 -92z" />
<glyph unicode="b" d="M121 51v1346h182v-543q115 84 252 84q176 0 286.5 -131t110.5 -338q0 -223 -133 -356t-354 -133q-84 0 -183.5 20t-160.5 51zM303 182q94 -29 191 -28q121 0 197.5 86t76.5 221q0 137 -71.5 223t-186.5 86q-102 0 -207 -90v-498z" />
<glyph unicode="c" horiz-adv-x="897" d="M78 455q0 217 125 350t329 133q121 0 267 -64v-194q-66 45 -133 68q-59 20 -123 20q-123 0 -202 -87t-79 -220q0 -141 85 -224t231 -83q104 0 241 61v-180q-135 -53 -268 -53q-215 0 -344 129t-129 344z" />
<glyph unicode="d" horiz-adv-x="1044" d="M90 475q0 203 127 333t326 130q94 0 198 -37v496h185v-1397h-389q-205 0 -326 129t-121 346zM274 453q0 -156 86 -236q41 -39 88.5 -51t153.5 -12h139v585q-86 43 -170 43q-137 0 -217 -88.5t-80 -240.5z" />
<glyph unicode="e" horiz-adv-x="980" d="M84 465q0 211 119 342t309 131q182 0 291.5 -128t109.5 -343v-23h-647q8 -131 89 -209.5t210 -78.5q180 0 332 112v-178q-164 -109 -360 -108q-195 0 -318 129q-135 141 -135 354zM270 553h463q-8 109 -65.5 168t-155.5 59t-161 -59t-81 -168z" />
<glyph unicode="f" horiz-adv-x="512" d="M18 756v164h129v55q0 244 125 360q86 80 199 80q57 0 135 -18v-178q-43 16 -84 16q-106 0 -148 -57.5t-42 -202.5v-55h164v-164h-164v-756h-185v756h-129z" />
<glyph unicode="g" horiz-adv-x="874" d="M0 -182q0 188 231 243q-92 57 -92 117q0 45 40 80t106 51v4q-203 86 -203 289q0 147 107.5 232.5t293.5 85.5h379v-142h-186q96 -98 96 -203q0 -70 -40 -139t-101 -106q-68 -39 -217 -62q-102 -14 -103 -71q0 -33 38 -52.5t140 -42.5q147 -33 194.5 -49t88.5 -49 q88 -70 88 -188q0 -131 -116.5 -209t-311.5 -78q-197 0 -314.5 79t-117.5 210zM172 -184q0 -141 256 -142q121 0 187.5 35t66.5 101q0 63 -84 104t-217 41q-92 0 -150.5 -39t-58.5 -100zM246 592q0 -72 51 -118t129 -46t129 47t51 119t-52 120t-130 48q-74 0 -126 -50 t-52 -120z" />
<glyph unicode="h" d="M125 0v1397h182v-598h4q109 139 279 139q106 0 185 -61.5t106 -165.5q18 -84 18 -187v-524h-182v569q0 100 -49.5 162t-130.5 62q-111 0 -230 -134v-659h-182z" />
<glyph unicode="i" horiz-adv-x="448" d="M117 1200q0 41 31.5 74t74.5 33q45 0 77 -31t32 -76t-32 -76.5t-77 -31.5q-43 0 -74.5 32.5t-31.5 75.5zM133 0v920h182v-920h-182z" />
<glyph unicode="j" horiz-adv-x="448" d="M-12 -338q63 20 100 75.5t37 129.5v88v965h184v-975v-78q0 -240 -184 -338zM106 1200q0 43 33 75t74 32q45 0 77 -31t32 -76q0 -47 -31 -77.5t-76 -30.5q-43 0 -76 31.5t-33 76.5z" />
<glyph unicode="k" horiz-adv-x="980" d="M127 0v1397h184v-1397h-184zM319 469l408 451h217l-393 -451l473 -469h-244z" />
<glyph unicode="l" horiz-adv-x="448" d="M133 0v1397h182v-1397h-182z" />
<glyph unicode="m" horiz-adv-x="1579" d="M121 0v920h180v-121q139 139 274 139q174 0 271 -166q145 166 305 166q96 0 171 -51t105 -137q31 -78 31 -207v-543h-182v545q0 238 -182 237q-113 0 -211 -114v-668h-183v512q0 152 -41 212t-143 60q-106 0 -215 -116v-668h-180z" />
<glyph unicode="n" d="M125 0v920h186v-117q123 135 277 135q80 0 150.5 -39t109.5 -106q51 -84 51 -267v-526h-184v524q0 141 -42 201.5t-143 60.5q-129 0 -219 -129v-657h-186z" />
<glyph unicode="o" horiz-adv-x="1130" d="M74 451q0 201 141 335t354 134q211 0 349.5 -134.5t138.5 -339.5q0 -201 -141.5 -332.5t-354.5 -131.5q-207 0 -347 135t-140 334zM260 453q0 -131 87 -216t220 -85t219 85t86 218q0 131 -89 217t-224 86q-131 0 -215 -86t-84 -219z" />
<glyph unicode="p" d="M117 -471v1391h319q244 0 381 -122t137 -341q0 -207 -129 -341t-327 -134q-90 0 -195 41v-494h-186zM303 184q82 -43 176 -43q127 0 208 89t81 229q0 131 -72 207q-76 84 -264 84h-129v-566z" />
<glyph unicode="q" d="M72 451q0 215 133 342t358 127h342v-1391h-180v487q-117 -35 -201 -34q-195 0 -323.5 133t-128.5 336zM256 455q0 -141 85 -230.5t218 -89.5q47 0 139 31q2 0 12 3l15 5v576h-115q-113 0 -168 -15q-84 -25 -135 -102.5t-51 -177.5z" />
<glyph unicode="r" horiz-adv-x="811" d="M141 0v920h183v-211h4l6 16q135 213 264 213q104 0 215 -104l-96 -160q-94 90 -176 90q-88 0 -152.5 -84t-64.5 -199v-481h-183z" />
<glyph unicode="s" horiz-adv-x="788" d="M84 66v196q172 -121 293 -121q57 0 98 28t41 66.5t-26.5 66.5t-114.5 77q-152 86 -213 147q-72 76 -72 172q0 106 83 173t212 67q137 0 277 -76v-180q-164 98 -265 98q-53 0 -85.5 -22.5t-32.5 -59.5q0 -33 29.5 -61.5t103.5 -69.5l65 -37q229 -125 230 -288 q0 -115 -89.5 -187.5t-226.5 -72.5q-78 0 -142.5 17.5t-164.5 66.5z" />
<glyph unicode="t" horiz-adv-x="681" d="M0 756v18l342 336v-190h291v-164h-291v-402v-49q2 -84 34 -121t97 -37q100 0 207 66v-170q-109 -61 -229 -61q-96 0 -172 47t-99 123q-20 61 -20 196v408h-160z" />
<glyph unicode="u" d="M123 393v527h184v-525q0 -145 42 -203.5t145 -58.5q127 0 219 129v658h184v-920h-184v117q-125 -135 -279 -135q-80 0 -150.5 38.5t-109.5 106.5q-51 84 -51 266z" />
<glyph unicode="v" horiz-adv-x="897" d="M6 920h199l248 -566l239 566h197l-406 -938h-61z" />
<glyph unicode="w" horiz-adv-x="1472" d="M0 920h195l241 -558l234 558h135l233 -558l240 558h195l-406 -938h-57l-273 643l-268 -643h-59z" />
<glyph unicode="x" d="M0 0l387 467l-387 453h229l273 -316l262 316h233l-379 -453l406 -467h-233l-289 330l-273 -330h-229z" />
<glyph unicode="y" horiz-adv-x="897" d="M0 920h207l248 -519l237 519h205l-651 -1391h-203l313 668z" />
<glyph unicode="z" horiz-adv-x="854" d="M23 0l483 750h-463v170h786l-487 -752h487v-168h-806z" />
<glyph unicode="{" horiz-adv-x="681" d="M57 449v163q55 0 97 21q68 39 88 108.5t22 257.5q2 205 13.5 274.5t54.5 127.5q41 51 94 70.5t154 19.5h57v-156h-33q-106 0 -139 -40t-31 -167v-147q0 -291 -110 -389q-37 -33 -101 -62q119 -49 165 -148t46 -304v-146q0 -129 32 -167.5t138 -38.5h33v-156h-57 q-100 0 -154.5 19.5t-93.5 70.5q-43 57 -54.5 127t-13.5 274q-2 188 -22.5 258t-87.5 107q-40 23 -97 23z" />
<glyph unicode="|" horiz-adv-x="1079" d="M473 -35v1702h133v-1702h-133z" />
<glyph unicode="}" horiz-adv-x="681" d="M47 -274h31q106 0 139 38.5t33 167.5v146q0 205 46 304t163 148q-72 35 -110 71t-58 89q-41 100 -41 291v147q0 129 -33 168t-139 39h-31v156h55q100 0 154.5 -19.5t93.5 -70.5q45 -57 56.5 -127t11.5 -275q2 -188 22.5 -257.5t87.5 -108.5q41 -20 97 -21v-163 q-57 0 -97 -23q-68 -37 -88 -106.5t-22 -258.5q0 -203 -12.5 -273.5t-55.5 -127.5q-39 -51 -92 -70.5t-156 -19.5h-55v156z" />
<glyph unicode="~" horiz-adv-x="1193" d="M86 535v204q109 121 279 121q109 0 274 -69l80 -35q68 -31 133 -31q131 0 258 137v-211q-123 -115 -276 -114q-109 0 -246 61l-62 27q-92 45 -178 45q-70 0 -125 -28.5t-137 -106.5z" />
<glyph unicode="&#xa1;" horiz-adv-x="555" d="M152 924q0 51 36.5 87t87.5 36q53 0 89 -35t36 -88.5t-35.5 -90t-86.5 -36.5q-53 0 -90 37t-37 90zM162 -106q0 211 45 485l14 74q29 168 53 168q16 0 25 -33q0 -4 16 -53q18 -53 31 -152q43 -299 43 -483q0 -293 -113 -293q-114 0 -114 287z" />
<glyph unicode="&#xa2;" horiz-adv-x="897" d="M78 446q0 223 125 357.5t336 134.5q25 0 79 -6l121 338h95l-129 -359q20 -8 24 -8q41 -14 68 -31v-192q-66 53 -150 74l-209 -576q72 -27 129 -26q143 0 250 63v-176q-152 -59 -278 -59q-94 0 -162 20l-141 -389h-97l158 428q-102 57 -160.5 166.5t-58.5 240.5zM262 453 q0 -141 100 -230l197 545h-18q-125 0 -202 -88t-77 -227z" />
<glyph unicode="&#xa3;" horiz-adv-x="1087" d="M121 -18l162 604h-148v178h195q68 254 186 442q61 98 149.5 153.5t180.5 55.5q27 0 74 -8l114 -213q-57 31 -145 31q-223 0 -342 -398l-21 -63h156v-178h-209l-102 -387q31 4 78 4q125 0 182 -13l80 -14q39 -8 98 -8q131 0 207 45v-195q-104 -37 -205 -36q-39 0 -117 8 l-108 18q-57 8 -148 8q-178 1 -317 -34z" />
<glyph unicode="&#xa4;" horiz-adv-x="1366" d="M195 264l129 129q-55 86 -73 139.5t-18 137.5t17.5 136t73.5 128l-129 127l88 90l129 -129q76 57 128 74.5t142 17.5t143.5 -17.5t128.5 -74.5l127 129l88 -90l-127 -127q55 -80 74 -134.5t19 -142.5t-18.5 -139t-74.5 -125l127 -129l-88 -88l-127 127 q-80 -57 -133 -74.5t-141 -17.5q-90 0 -142.5 18.5t-125.5 73.5l-127 -127zM358 662q0 -133 95.5 -229.5t228.5 -96.5q135 0 230.5 96t95.5 230q0 135 -94.5 230t-227.5 95q-135 0 -231.5 -95t-96.5 -230z" />
<glyph unicode="&#xa5;" horiz-adv-x="1130" d="M-2 1466h201l288 -516q47 -84 76 -153q18 43 82 161l275 508h213l-404 -710h340v-150h-412v-143h412v-137h-412v-326h-180v326h-416v137h416v143h-416v150h342z" />
<glyph unicode="&#xa6;" horiz-adv-x="1079" d="M473 -35v723h133v-723h-133zM473 942v725h133v-725h-133z" />
<glyph unicode="&#xa7;" horiz-adv-x="831" d="M66 616q0 162 135 285q-55 94 -56 197q0 135 88.5 226t219.5 91q109 0 176 -48t67 -126q0 -49 -29.5 -81t-76.5 -32q-35 0 -58.5 25t-23.5 61v11q2 8 2 16q0 43 -63.5 43t-100.5 -38t-37 -101q0 -131 180 -299l95 -88q94 -86 149 -213q33 -72 33 -162t-35 -163t-117 -154 q72 -102 72 -226q0 -131 -91 -221t-224 -90q-104 0 -173 51t-69 131q0 51 33 89t80 38q43 0 70.5 -27.5t27.5 -70.5q0 -16 -2 -23q0 -6 -2 -12q-2 -8 -2 -10q0 -14 14 -24.5t33 -10.5q59 0 103 44t44 103q0 63 -53 148q-47 70 -162 188q-115 115 -166 195q-81 135 -81 278z M223 635q0 -94 74 -195q43 -55 133 -149l100 -107q76 80 76 172q0 102 -78 191l-94 96l-49 49l-98 94q-64 -73 -64 -151z" />
<glyph unicode="&#xa8;" horiz-adv-x="681" d="M33 1149q0 43 30.5 73.5t75.5 30.5q43 0 74 -30.5t31 -73.5q0 -45 -31 -76t-74 -31q-45 0 -75.5 31t-30.5 76zM438 1149q0 43 31 73.5t74 30.5q45 0 75.5 -30.5t30.5 -73.5q0 -45 -30.5 -76t-75.5 -31q-43 0 -74 31t-31 76z" />
<glyph unicode="&#xa9;" horiz-adv-x="1515" d="M2 737q0 311 221 532.5t535 221.5q311 0 532 -221t221 -533q0 -313 -221 -534t-532 -221q-313 0 -534.5 221t-221.5 534zM129 737q0 -262 184.5 -446.5t444.5 -184.5t444 185.5t184 445.5t-184 444.5t-444 184.5t-444.5 -184.5t-184.5 -444.5zM362 735.5q0 196.5 109 310 t295 113.5q131 0 220 -61.5t122 -173.5l-119 -29q-61 154 -227 154q-119 0 -190.5 -86t-71.5 -232q0 -143 67.5 -226t184.5 -83q92 0 158.5 51t88.5 141l123 -36q-31 -127 -128 -201t-236 -74q-180 0 -288 118t-108 314.5z" />
<glyph unicode="&#xaa;" horiz-adv-x="575" d="M31 981q0 109 164 160l47 16l90 29v24q0 47 -21.5 68.5t-68.5 21.5q-94 0 -201 -106v141q74 80 207 80q121 0 173 -54t52 -179v-207q0 -45 10 -45q16 0 76 41v-86q-78 -47 -127 -47q-76 0 -94 47q-74 -47 -154 -47q-66 0 -109.5 41t-43.5 102zM172 997q0 -70 72 -69 q43 0 90 37v147l-64 -22q-55 -20 -76.5 -41t-21.5 -52z" />
<glyph unicode="&#xab;" horiz-adv-x="1003" d="M57 461l303 459h181l-303 -459l303 -461h-181zM475 461l301 459h180l-303 -459l303 -461h-180z" />
<glyph unicode="&#xac;" horiz-adv-x="1366" d="M139 844v131h1088v-619h-131v488h-957z" />
<glyph unicode="&#xad;" horiz-adv-x="661" d="M82 356v195h498v-195h-498z" />
<glyph unicode="&#xae;" horiz-adv-x="1515" d="M2 737q0 311 221 532.5t535 221.5q311 0 532 -221t221 -533q0 -313 -221 -534t-532 -221q-313 0 -534.5 221t-221.5 534zM129 737q0 -262 184.5 -446.5t444.5 -184.5t444 185.5t184 445.5t-184 444.5t-444 184.5t-444.5 -184.5t-184.5 -444.5zM426 319v811h281 q154 0 219 -26q55 -23 91 -77t36 -116q0 -94 -64.5 -157.5t-167.5 -69.5v-4q45 -16 86 -60.5t103 -142.5l98 -158h-160l-71 127q-76 137 -121 177.5t-121 40.5h-78v-345h-131zM557 776h160q197 0 196 123q0 68 -46 94.5t-160 26.5h-150v-244z" />
<glyph unicode="&#xaf;" horiz-adv-x="681" d="M29 1061v147h624v-147h-624z" />
<glyph unicode="&#xb0;" horiz-adv-x="811" d="M127 1214.5q0 114.5 82 195.5t196.5 81t195.5 -81t81 -195.5t-81 -196.5t-195.5 -82t-196.5 82t-82 196.5zM236 1214.5q0 -69.5 50 -120t119.5 -50.5t118.5 50.5t49 120t-49 118.5t-118.5 49t-119.5 -49t-50 -118.5z" />
<glyph unicode="&#xb1;" horiz-adv-x="1366" d="M139 -45v131h1088v-131h-1088zM139 764v131h477v479h132v-479h479v-131h-479v-477h-132v477h-477z" />
<glyph unicode="&#xb2;" horiz-adv-x="661" d="M57 680v14l6 6q10 12 48 50l114 124l28 33l32 38q14 17 26 34q90 113 90 195q0 57 -35.5 91.5t-95.5 34.5q-102 0 -194 -118v159q102 74 209 74q113 0 186.5 -64.5t73.5 -162.5q0 -82 -53 -164q-45 -78 -183 -219l-12 -14h307v-111h-547z" />
<glyph unicode="&#xb3;" horiz-adv-x="661" d="M94 715v129q102 -59 193 -60q55 0 87 29t32 76q0 104 -148 110l-25 2v107h13q154 0 153 102q0 45 -35.5 72t-95.5 27q-61 0 -153 -41v112q78 35 168 35q119 0 187.5 -53t68.5 -145q0 -102 -97 -154q111 -41 111 -170q0 -96 -76 -159.5t-190 -63.5q-95 0 -193 45z" />
<glyph unicode="&#xb4;" horiz-adv-x="681" d="M223 1028l133 279h236l-221 -279h-148z" />
<glyph unicode="&#xb5;" horiz-adv-x="1130" d="M178 -352v1272h174v-390v-57q0 -125 13.5 -185.5t50.5 -103.5q59 -66 143 -65q80 0 135 49q51 45 67.5 105.5t16.5 195.5v59v392h174v-920h-159v109h-5q-43 -72 -94 -102t-127 -30q-70 0 -117 26t-94 89h-4v-444h-174z" />
<glyph unicode="&#xb6;" horiz-adv-x="1110" d="M2 1049q0 127 57.5 224t163.5 146q102 47 250 47h633v-174h-143v-1700h-170v1700h-224v-1700h-163v1045q-186 10 -295 121t-109 291z" />
<glyph unicode="&#xb7;" horiz-adv-x="532" d="M156 707q0 47 32.5 79.5t77.5 32.5t78 -32.5t33 -80t-33 -79t-78 -31.5t-77.5 33t-32.5 78z" />
<glyph unicode="&#xb8;" horiz-adv-x="681" d="M107 -410l10 117h22q10 0 23.5 -1t20.5 -2t12 -1q178 0 178 76q0 66 -142 67h-16l53 177h133l-32 -107q80 -8 125 -48t45 -99q0 -86 -80 -138.5t-215 -52.5q-63 0 -137 12z" />
<glyph unicode="&#xb9;" horiz-adv-x="661" d="M260 680v727h141v-727h-141z" />
<glyph unicode="&#xba;" horiz-adv-x="747" d="M47 1135q0 123 88 201.5t225 78.5q150 0 245 -79t95 -206q0 -121 -94 -200.5t-235 -79.5q-137 0 -230.5 82t-93.5 203zM190 1130q0 -74 51.5 -120.5t133.5 -46.5q80 0 132 48t52 123.5t-53 124t-135 48.5q-78 0 -129.5 -50.5t-51.5 -126.5z" />
<glyph unicode="&#xbb;" horiz-adv-x="1003" d="M47 0l303 459l-303 461h178l303 -461l-303 -459h-178zM463 0l303 459l-303 461h178l303 -461l-303 -459h-178z" />
<glyph unicode="&#xbc;" horiz-adv-x="1728" d="M258 680v727h141v-727h-141zM354 -55l930 1470h139l-931 -1470h-138zM1100 236v51l420 450h67v-401h92v-100h-92v-236h-139v236h-348zM1288 336h160v172z" />
<glyph unicode="&#xbd;" horiz-adv-x="1728" d="M258 680v727h141v-727h-141zM293 -55l932 1470h137l-932 -1470h-137zM1126 0v14l7 6q6 6 22 24.5t25 27.5q106 115 112 123l88 104q90 115 90 197q0 57 -35.5 92t-95.5 35q-96 0 -176 -97q-8 -12 -20 -24v162q102 74 211 73q113 0 186.5 -64.5t73.5 -164.5 q0 -80 -53 -164q-49 -82 -183 -219l-12 -14h307v-111h-547z" />
<glyph unicode="&#xbe;" horiz-adv-x="1728" d="M92 715v129q102 -59 193 -60q55 0 86.5 29t31.5 76q0 104 -149 110l-23 2v107h13q154 0 153 102q0 45 -35.5 72t-95.5 27q-61 0 -153 -41v112q78 35 168 35q119 0 187.5 -53t68.5 -145q0 -102 -97 -154q111 -39 111 -170q0 -96 -76 -159.5t-192 -63.5q-93 0 -191 45z M330 -55l930 1470h139l-932 -1470h-137zM1100 236v51l420 450h67v-401h92v-100h-92v-236h-139v236h-348zM1288 336h160v172z" />
<glyph unicode="&#xbf;" horiz-adv-x="681" d="M133 -94q0 131 78 270q35 61 98 162q133 201 133 287q0 12 -6 43q68 -33 96.5 -77t28.5 -116q0 -70 -23.5 -124t-113.5 -197q-84 -135 -84 -224q0 -63 38 -100t101 -37q47 0 115 33l-133 -217q-150 2 -236 80q-92 86 -92 217zM287 922q0 51 35.5 85.5t89 34.5t88.5 -34.5 t35 -86t-36 -88t-87.5 -36.5t-88 36t-36.5 89z" />
<glyph unicode="&#xc0;" horiz-adv-x="1366" d="M0 0l600 1405h141l625 -1405h-205l-186 412h-594l-176 -412h-205zM430 1769h242l135 -278h-145zM459 592h434l-225 506z" />
<glyph unicode="&#xc1;" horiz-adv-x="1366" d="M0 0l600 1405h141l625 -1405h-205l-186 412h-594l-176 -412h-205zM459 592h434l-225 506zM565 1491l133 278h236l-221 -278h-148z" />
<glyph unicode="&#xc2;" horiz-adv-x="1366" d="M0 0l600 1405h141l625 -1405h-205l-186 412h-594l-176 -412h-205zM367 1491l217 278h190l225 -278h-204l-109 170l-115 -170h-204zM459 592h434l-225 506z" />
<glyph unicode="&#xc3;" horiz-adv-x="1366" d="M0 0l600 1405h141l625 -1405h-205l-186 412h-594l-176 -412h-205zM348 1516v12q0 94 57.5 154.5t147.5 60.5q63 0 152 -47l30 -15q49 -23 80 -22q35 0 50.5 19.5t21.5 68.5h131q-2 -109 -53.5 -169t-141.5 -60q-68 0 -149 47l-37 20q-47 25 -80 25q-35 0 -55.5 -23.5 t-20.5 -62.5v-8h-133zM459 592h434l-225 506z" />
<glyph unicode="&#xc4;" horiz-adv-x="1366" d="M0 0l600 1405h141l625 -1405h-205l-186 412h-594l-176 -412h-205zM375 1612q0 43 30.5 73.5t75.5 30.5q43 0 74 -30.5t31 -73.5q0 -45 -31 -76t-74 -31q-45 0 -75.5 31t-30.5 76zM459 592h434l-225 506zM780 1612q0 43 31 73.5t74 30.5q45 0 75.5 -30.5t30.5 -73.5 q0 -45 -30.5 -76t-75.5 -31q-43 0 -74 31t-31 76z" />
<glyph unicode="&#xc5;" horiz-adv-x="1366" d="M0 0l600 1405h141l625 -1405h-205l-186 412h-594l-176 -412h-205zM459 592h434l-225 506zM504 1630q0 76 53 129t127 53q76 0 128 -53t52 -129t-52 -129t-128 -53q-74 0 -127 53t-53 129zM580 1632q0 -45 31.5 -77.5t74.5 -32.5t75 32.5t32 77.5t-31 77t-76 32 q-43 0 -74.5 -32t-31.5 -77z" />
<glyph unicode="&#xc6;" horiz-adv-x="1835" d="M4 0l827 1397h912v-178h-574v-422h555v-181h-555v-436h596v-180h-796v616h-381l-365 -616h-219zM692 797h277v465h-4z" />
<glyph unicode="&#xc7;" horiz-adv-x="1449" d="M98 694q0 305 218.5 513t537.5 208q219 0 489 -115v-215q-246 139 -479 140q-240 0 -398.5 -150.5t-158.5 -380t155.5 -378t399.5 -148.5q252 0 496 156v-220q-225 -123 -508 -122q-297 0 -494 163q-123 100 -190.5 244.5t-67.5 304.5zM492 -410l10 117h22q10 0 23.5 -1 t20.5 -2t12 -1q178 0 178 76q0 66 -142 67h-16l53 177h133l-32 -107q80 -8 125 -48t45 -99q0 -86 -80 -138.5t-215 -52.5q-63 0 -137 12z" />
<glyph unicode="&#xc8;" d="M154 0v1397h792v-178h-592v-426h572v-179h-572v-434h611v-180h-811zM260 1769h242l135 -278h-145z" />
<glyph unicode="&#xc9;" d="M154 0v1397h792v-178h-592v-426h572v-179h-572v-434h611v-180h-811zM395 1491l133 278h236l-221 -278h-148z" />
<glyph unicode="&#xca;" d="M154 0v1397h792v-178h-592v-426h572v-179h-572v-434h611v-180h-811zM197 1491l217 278h190l225 -278h-204l-109 170l-115 -170h-204z" />
<glyph unicode="&#xcb;" d="M154 0v1397h792v-178h-592v-426h572v-179h-572v-434h611v-180h-811zM205 1612q0 43 30.5 73.5t75.5 30.5q43 0 74 -30.5t31 -73.5q0 -45 -31 -76t-74 -31q-45 0 -75.5 31t-30.5 76zM610 1612q0 43 31 73.5t74 30.5q45 0 75.5 -30.5t30.5 -73.5q0 -45 -30.5 -76t-75.5 -31 q-43 0 -74 31t-31 76z" />
<glyph unicode="&#xcc;" horiz-adv-x="512" d="M4 1769h242l135 -278h-145zM156 0v1397h200v-1397h-200z" />
<glyph unicode="&#xcd;" horiz-adv-x="512" d="M139 1491l133 278h236l-221 -278h-148zM156 0v1397h200v-1397h-200z" />
<glyph unicode="&#xce;" horiz-adv-x="512" d="M-59 1491l217 278h190l225 -278h-204l-109 170l-115 -170h-204zM156 0v1397h200v-1397h-200z" />
<glyph unicode="&#xcf;" horiz-adv-x="512" d="M-51 1612q0 43 30.5 73.5t75.5 30.5q43 0 74 -30.5t31 -73.5q0 -45 -31 -76t-74 -31q-45 0 -75.5 31t-30.5 76zM156 0v1397h200v-1397h-200zM354 1612q0 43 31 73.5t74 30.5q45 0 75.5 -30.5t30.5 -73.5q0 -45 -30.5 -76t-75.5 -31q-43 0 -74 31t-31 76z" />
<glyph unicode="&#xd0;" horiz-adv-x="1536" d="M-8 633v131h164v633h471q164 0 258 -21q102 -18 190 -63q168 -84 266.5 -251t98.5 -364q0 -223 -130 -403t-343 -252q-86 -29 -149.5 -37t-219.5 -8l-442 2v633h-164zM354 633v-453h258q160 0 265 29q160 43 258 181t98 319q0 156 -77 276.5t-214 181.5 q-70 33 -133.5 42.5t-202.5 9.5h-252v-455h398v-131h-398z" />
<glyph unicode="&#xd1;" horiz-adv-x="1599" d="M160 0v1397h162l942 -1084v1084h190v-1397h-172l-934 1075v-1075h-188zM465 1516v12q0 94 57.5 154.5t147.5 60.5q63 0 151 -47l31 -15q49 -23 80 -22q35 0 50 19.5t22 68.5h131q-2 -109 -53.5 -169t-141.5 -60q-68 0 -149 47l-37 20q-47 25 -80 25q-35 0 -55.5 -23.5 t-20.5 -62.5v-8h-133z" />
<glyph unicode="&#xd2;" horiz-adv-x="1685" d="M92 694q0 313 212 517t535.5 204t538.5 -203.5t215 -513t-217 -513t-547 -203.5q-315 0 -526 203.5t-211 508.5zM299 694q0 -225 155.5 -375.5t387.5 -150.5q233 0 390 152.5t157 381.5q0 221 -156 373t-385 152q-240 0 -394.5 -151t-154.5 -382zM590 1769h241l136 -278 h-146z" />
<glyph unicode="&#xd3;" horiz-adv-x="1685" d="M92 694q0 313 212 517t535.5 204t538.5 -203.5t215 -513t-217 -513t-547 -203.5q-315 0 -526 203.5t-211 508.5zM299 694q0 -225 155.5 -375.5t387.5 -150.5q233 0 390 152.5t157 381.5q0 221 -156 373t-385 152q-240 0 -394.5 -151t-154.5 -382zM725 1491l133 278h236 l-222 -278h-147z" />
<glyph unicode="&#xd4;" horiz-adv-x="1685" d="M92 694q0 313 212 517t535.5 204t538.5 -203.5t215 -513t-217 -513t-547 -203.5q-315 0 -526 203.5t-211 508.5zM299 694q0 -225 155.5 -375.5t387.5 -150.5q233 0 390 152.5t157 381.5q0 221 -156 373t-385 152q-240 0 -394.5 -151t-154.5 -382zM526 1491l217 278h191 l225 -278h-205l-108 170l-115 -170h-205z" />
<glyph unicode="&#xd5;" horiz-adv-x="1685" d="M92 694q0 313 212 517t535.5 204t538.5 -203.5t215 -513t-217 -513t-547 -203.5q-315 0 -526 203.5t-211 508.5zM299 694q0 -225 155.5 -375.5t387.5 -150.5q233 0 390 152.5t157 381.5q0 221 -156 373t-385 152q-240 0 -394.5 -151t-154.5 -382zM508 1516v12 q0 94 57.5 154.5t147.5 60.5q63 0 151 -47l31 -15q49 -23 80 -22q35 0 50 19.5t22 68.5h131q-2 -109 -53.5 -169t-141.5 -60q-68 0 -149 47l-37 20q-47 25 -80 25q-35 0 -55.5 -23.5t-20.5 -62.5v-8h-133z" />
<glyph unicode="&#xd6;" horiz-adv-x="1685" d="M92 694q0 313 212 517t535.5 204t538.5 -203.5t215 -513t-217 -513t-547 -203.5q-315 0 -526 203.5t-211 508.5zM299 694q0 -225 155.5 -375.5t387.5 -150.5q233 0 390 152.5t157 381.5q0 221 -156 373t-385 152q-240 0 -394.5 -151t-154.5 -382zM535 1612 q0 43 30.5 73.5t75.5 30.5q43 0 73.5 -30.5t30.5 -73.5q0 -45 -30.5 -76t-73.5 -31q-45 0 -75.5 31t-30.5 76zM940 1612q0 43 30.5 73.5t73.5 30.5q45 0 76 -30.5t31 -73.5q0 -45 -30.5 -76t-76.5 -31q-43 0 -73.5 31t-30.5 76z" />
<glyph unicode="&#xd7;" horiz-adv-x="1368" d="M184 1071l92 92l408 -409l410 409l92 -94l-408 -407l404 -406l-92 -92l-406 405l-405 -405l-93 92l406 406z" />
<glyph unicode="&#xd8;" horiz-adv-x="1685" d="M92 692q0 313 213 518t539 205q227 0 432 -117l98 121l94 -82l-94 -114q104 -94 161.5 -231.5t57.5 -289.5q0 -311 -214 -515.5t-537 -204.5q-258 0 -432 118l-101 -108l-96 67l96 119q-102 94 -159.5 229t-57.5 285zM301 700q0 -145 61 -262q29 -51 80 -110l703 821 q-137 80 -299 80q-236 0 -390.5 -151t-154.5 -378zM539 252q143 -82 303 -82q236 0 390 151.5t154 383.5q0 219 -147 366z" />
<glyph unicode="&#xd9;" horiz-adv-x="1449" d="M125 606v791h201v-793q0 -139 18 -207.5t70 -120.5q115 -117 311 -116q152 0 259.5 70.5t127.5 185.5q14 63 14 188v793h199v-793q0 -176 -31 -274q-37 -117 -127 -197q-170 -152 -440 -151q-213 0 -365.5 92t-203.5 252q-33 100 -33 280zM473 1769h242l135 -278h-145z " />
<glyph unicode="&#xda;" horiz-adv-x="1449" d="M125 606v791h201v-793q0 -139 18 -207.5t70 -120.5q115 -117 311 -116q152 0 259.5 70.5t127.5 185.5q14 63 14 188v793h199v-793q0 -176 -31 -274q-37 -117 -127 -197q-170 -152 -440 -151q-213 0 -365.5 92t-203.5 252q-33 100 -33 280zM608 1491l133 278h236 l-221 -278h-148z" />
<glyph unicode="&#xdb;" horiz-adv-x="1449" d="M125 606v791h201v-793q0 -139 18 -207.5t70 -120.5q115 -117 311 -116q152 0 259.5 70.5t127.5 185.5q14 63 14 188v793h199v-793q0 -176 -31 -274q-37 -117 -127 -197q-170 -152 -440 -151q-213 0 -365.5 92t-203.5 252q-33 100 -33 280zM410 1491l217 278h190l225 -278 h-204l-109 170l-115 -170h-204z" />
<glyph unicode="&#xdc;" horiz-adv-x="1449" d="M125 606v791h201v-793q0 -139 18 -207.5t70 -120.5q115 -117 311 -116q152 0 259.5 70.5t127.5 185.5q14 63 14 188v793h199v-793q0 -176 -31 -274q-37 -117 -127 -197q-170 -152 -440 -151q-213 0 -365.5 92t-203.5 252q-33 100 -33 280zM418 1612q0 43 30.5 73.5 t75.5 30.5q43 0 74 -30.5t31 -73.5q0 -45 -31 -76t-74 -31q-45 0 -75.5 31t-30.5 76zM823 1612q0 43 31 73.5t74 30.5q45 0 75.5 -30.5t30.5 -73.5q0 -45 -30.5 -76t-75.5 -31q-43 0 -74 31t-31 76z" />
<glyph unicode="&#xdd;" horiz-adv-x="1236" d="M0 1397h242l374 -482l379 482h242l-516 -658v-739h-205v739zM502 1491l133 278h235l-221 -278h-147z" />
<glyph unicode="&#xde;" horiz-adv-x="1044" d="M143 0v1397h201v-303h160h82q201 0 319.5 -107.5t118.5 -290.5q0 -135 -75 -234.5t-199 -131.5q-96 -27 -258 -27h-148v-303h-201zM344 481h160h59q123 0 188.5 57.5t65.5 163.5q0 215 -266 216h-55h-152v-437z" />
<glyph unicode="&#xdf;" d="M121 920v79q4 94 24 177q23 82 72 135q92 104 293 104q180 0 283.5 -89t103.5 -245q0 -109 -53 -189.5t-148 -119.5v-4q125 -31 192.5 -127t67.5 -240q0 -184 -100 -301.5t-258 -117.5q-68 0 -141 18v178q49 -23 100 -22q98 0 156.5 69.5t58.5 188.5q0 158 -113 227 q-59 37 -186 39v166h27q102 0 159.5 56t57.5 157q0 94 -59.5 154.5t-151.5 60.5q-106 0 -154.5 -64.5t-48.5 -208.5v-81v-920h-182v920z" />
<glyph unicode="&#xe0;" horiz-adv-x="874" d="M55 209q0 86 62.5 155.5t177.5 108.5l74 25l157 55v49q0 164 -164 164q-152 0 -290 -152v199q106 125 305 125q94 0 171 -35t114 -94q31 -51 38 -92t7 -164v-350v-41q0 -47 32 -47q31 0 103 49v-111q-106 -72 -178 -71q-117 0 -138 94q-123 -94 -247 -94q-94 0 -159 65.5 t-65 161.5zM184 1307h242l135 -279h-145zM236 240q0 -57 36.5 -93t94.5 -36q86 0 161 71v273l-122 -47q-94 -39 -132 -76t-38 -92z" />
<glyph unicode="&#xe1;" horiz-adv-x="874" d="M55 209q0 86 62.5 155.5t177.5 108.5l74 25l157 55v49q0 164 -164 164q-152 0 -290 -152v199q106 125 305 125q94 0 171 -35t114 -94q31 -51 38 -92t7 -164v-350v-41q0 -47 32 -47q31 0 103 49v-111q-106 -72 -178 -71q-117 0 -138 94q-123 -94 -247 -94q-94 0 -159 65.5 t-65 161.5zM236 240q0 -57 36.5 -93t94.5 -36q86 0 161 71v273l-122 -47q-94 -39 -132 -76t-38 -92zM319 1028l134 279h235l-221 -279h-148z" />
<glyph unicode="&#xe2;" horiz-adv-x="874" d="M55 209q0 86 62.5 155.5t177.5 108.5l74 25l157 55v49q0 164 -164 164q-152 0 -290 -152v199q106 125 305 125q94 0 171 -35t114 -94q31 -51 38 -92t7 -164v-350v-41q0 -47 32 -47q31 0 103 49v-111q-106 -72 -178 -71q-117 0 -138 94q-123 -94 -247 -94q-94 0 -159 65.5 t-65 161.5zM121 1028l217 279h190l226 -279h-205l-109 170l-114 -170h-205zM236 240q0 -57 36.5 -93t94.5 -36q86 0 161 71v273l-122 -47q-94 -39 -132 -76t-38 -92z" />
<glyph unicode="&#xe3;" horiz-adv-x="874" d="M55 209q0 86 62.5 155.5t177.5 108.5l74 25l157 55v49q0 164 -164 164q-152 0 -290 -152v199q106 125 305 125q94 0 171 -35t114 -94q31 -51 38 -92t7 -164v-350v-41q0 -47 32 -47q31 0 103 49v-111q-106 -72 -178 -71q-117 0 -138 94q-123 -94 -247 -94q-94 0 -159 65.5 t-65 161.5zM102 1053v12q0 94 57.5 154.5t147.5 60.5q63 0 152 -47l30 -14q49 -23 80 -23q35 0 50.5 19.5t21.5 68.5h131q-2 -109 -53 -169t-141 -60q-68 0 -150 47l-37 20q-47 25 -80 25q-35 0 -55 -23.5t-20 -62.5v-8h-134zM236 240q0 -57 36.5 -93t94.5 -36q86 0 161 71 v273l-122 -47q-94 -39 -132 -76t-38 -92z" />
<glyph unicode="&#xe4;" horiz-adv-x="874" d="M55 209q0 86 62.5 155.5t177.5 108.5l74 25l157 55v49q0 164 -164 164q-152 0 -290 -152v199q106 125 305 125q94 0 171 -35t114 -94q31 -51 38 -92t7 -164v-350v-41q0 -47 32 -47q31 0 103 49v-111q-106 -72 -178 -71q-117 0 -138 94q-123 -94 -247 -94q-94 0 -159 65.5 t-65 161.5zM129 1149q0 43 30.5 73.5t76.5 30.5q43 0 73.5 -30.5t30.5 -73.5q0 -45 -30.5 -76t-73.5 -31q-45 0 -76 31t-31 76zM236 240q0 -57 36.5 -93t94.5 -36q86 0 161 71v273l-122 -47q-94 -39 -132 -76t-38 -92zM535 1149q0 43 30.5 73.5t73.5 30.5q45 0 75.5 -30.5 t30.5 -73.5q0 -45 -30.5 -76t-75.5 -31q-43 0 -73.5 31t-30.5 76z" />
<glyph unicode="&#xe5;" horiz-adv-x="874" d="M55 209q0 86 62.5 155.5t177.5 108.5l74 25l157 55v49q0 164 -164 164q-152 0 -290 -152v199q106 125 305 125q94 0 171 -35t114 -94q31 -51 38 -92t7 -164v-350v-41q0 -47 32 -47q31 0 103 49v-111q-106 -72 -178 -71q-117 0 -138 94q-123 -94 -247 -94q-94 0 -159 65.5 t-65 161.5zM236 240q0 -57 36.5 -93t94.5 -36q86 0 161 71v273l-122 -47q-94 -39 -132 -76t-38 -92zM258 1167.5q0 75.5 53.5 129t126.5 53.5q76 0 128 -53.5t52 -129t-52 -129t-128 -53.5q-74 0 -127 53.5t-53 129zM334 1169q0 -45 31.5 -77.5t74.5 -32.5t75 32.5t32 77.5 t-31 77t-76 32q-43 0 -74.5 -32t-31.5 -77z" />
<glyph unicode="&#xe6;" horiz-adv-x="1366" d="M72 217q0 154 170 232q43 20 92 38l76 25l127 39v29q0 102 -35 145t-117 43q-156 0 -293 -152v220q139 102 295 102q180 0 277 -119q139 119 272 119q158 0 254 -112.5t96 -297.5v-28h-567q6 -143 53 -224q76 -129 234 -129q131 0 280 111v-178q-86 -57 -152.5 -77.5 t-160.5 -20.5t-181 39.5t-128 103.5q-182 -143 -345 -143q-111 0 -179 65.5t-68 169.5zM252 252q0 -59 39 -102.5t92 -43.5t154 56v297l-99 -39q-100 -39 -143 -78t-43 -90zM741 616h363q-10 78 -56.5 121t-117.5 43q-138 0 -189 -164z" />
<glyph unicode="&#xe7;" horiz-adv-x="897" d="M78 455q0 217 125 350t329 133q121 0 267 -64v-194q-66 45 -133 68q-59 20 -123 20q-123 0 -202 -87t-79 -220q0 -141 85 -224t231 -83q104 0 241 61v-180q-135 -53 -268 -53q-215 0 -344 129t-129 344zM215 -410l10 117h23q10 0 23.5 -1t20.5 -2t11 -1q178 0 178 76 q0 66 -141 67h-16l53 177h133l-33 -107q80 -8 125 -48t45 -99q0 -86 -80 -138.5t-215 -52.5q-63 0 -137 12z" />
<glyph unicode="&#xe8;" horiz-adv-x="980" d="M84 465q0 211 119 342t309 131q182 0 291.5 -128t109.5 -343v-23h-647q8 -131 89 -209.5t210 -78.5q180 0 332 112v-178q-164 -109 -360 -108q-195 0 -318 129q-135 141 -135 354zM238 1307h241l135 -279h-145zM270 553h463q-8 109 -65.5 168t-155.5 59t-161 -59 t-81 -168z" />
<glyph unicode="&#xe9;" horiz-adv-x="980" d="M84 465q0 211 119 342t309 131q182 0 291.5 -128t109.5 -343v-23h-647q8 -131 89 -209.5t210 -78.5q180 0 332 112v-178q-164 -109 -360 -108q-195 0 -318 129q-135 141 -135 354zM270 553h463q-8 109 -65.5 168t-155.5 59t-161 -59t-81 -168zM373 1028l133 279h235 l-221 -279h-147z" />
<glyph unicode="&#xea;" horiz-adv-x="980" d="M84 465q0 211 119 342t309 131q182 0 291.5 -128t109.5 -343v-23h-647q8 -131 89 -209.5t210 -78.5q180 0 332 112v-178q-164 -109 -360 -108q-195 0 -318 129q-135 141 -135 354zM174 1028l217 279h191l225 -279h-205l-108 170l-115 -170h-205zM270 553h463 q-8 109 -65.5 168t-155.5 59t-161 -59t-81 -168z" />
<glyph unicode="&#xeb;" horiz-adv-x="980" d="M84 465q0 211 119 342t309 131q182 0 291.5 -128t109.5 -343v-23h-647q8 -131 89 -209.5t210 -78.5q180 0 332 112v-178q-164 -109 -360 -108q-195 0 -318 129q-135 141 -135 354zM182 1149q0 43 31 73.5t76 30.5q43 0 73.5 -30.5t30.5 -73.5q0 -45 -30.5 -76t-73.5 -31 q-45 0 -76 31t-31 76zM270 553h463q-8 109 -65.5 168t-155.5 59t-161 -59t-81 -168zM588 1149q0 43 30.5 73.5t73.5 30.5q45 0 76 -30.5t31 -73.5q0 -45 -31 -76t-76 -31q-43 0 -73.5 31t-30.5 76z" />
<glyph unicode="&#xec;" horiz-adv-x="448" d="M-29 1307h242l135 -279h-145zM131 0v920h184v-920h-184z" />
<glyph unicode="&#xed;" horiz-adv-x="448" d="M106 1028l134 279h235l-221 -279h-148zM131 0v920h184v-920h-184z" />
<glyph unicode="&#xee;" horiz-adv-x="448" d="M-92 1028l217 279h190l226 -279h-205l-109 170l-114 -170h-205zM131 0v920h184v-920h-184z" />
<glyph unicode="&#xef;" horiz-adv-x="448" d="M-84 1149q0 43 30.5 73.5t76.5 30.5q43 0 73.5 -30.5t30.5 -73.5q0 -45 -30.5 -76t-73.5 -31q-45 0 -76 31t-31 76zM131 0v920h184v-920h-184zM322 1149q0 43 30.5 73.5t73.5 30.5q45 0 75.5 -30.5t30.5 -73.5q0 -45 -30.5 -76t-75.5 -31q-43 0 -73.5 31t-30.5 76z" />
<glyph unicode="&#xf0;" horiz-adv-x="1153" d="M82 453q0 209 142.5 347t359.5 138q104 0 209 -47l4 4q-61 98 -98 141t-130 113l-295 -137l-47 112l215 101q-88 43 -172 61l97 127q135 -41 251 -104l224 104l49 -110l-154 -76q84 -72 125 -120t88 -126q127 -213 127 -457q0 -252 -136 -397t-372 -145q-207 0 -347 135 t-140 336zM258 453q0 -131 92 -218.5t232 -87.5q143 0 229 86t86 230q0 139 -88 225t-229 86q-135 0 -228.5 -93t-93.5 -228z" />
<glyph unicode="&#xf1;" d="M125 0v920h186v-117q123 135 277 135q80 0 150.5 -39t109.5 -106q51 -84 51 -267v-526h-184v524q0 141 -42 201.5t-143 60.5q-129 0 -219 -129v-657h-186zM178 1053v12q0 94 57.5 154.5t147.5 60.5q63 0 152 -47l30 -14q49 -23 80 -23q35 0 50.5 19.5t21.5 68.5h131 q-2 -109 -53.5 -169t-141.5 -60q-68 0 -149 47l-37 20q-47 25 -80 25q-35 0 -55.5 -23.5t-20.5 -62.5v-8h-133z" />
<glyph unicode="&#xf2;" horiz-adv-x="1130" d="M74 451q0 201 141 335t354 134q211 0 349.5 -134.5t138.5 -339.5q0 -201 -141.5 -332.5t-354.5 -131.5q-207 0 -347 135t-140 334zM260 453q0 -131 87 -216t220 -85t219 85t86 218q0 131 -89 217t-224 86q-131 0 -215 -86t-84 -219zM313 1307h242l135 -279h-145z" />
<glyph unicode="&#xf3;" horiz-adv-x="1130" d="M74 451q0 201 141 335t354 134q211 0 349.5 -134.5t138.5 -339.5q0 -201 -141.5 -332.5t-354.5 -131.5q-207 0 -347 135t-140 334zM260 453q0 -131 87 -216t220 -85t219 85t86 218q0 131 -89 217t-224 86q-131 0 -215 -86t-84 -219zM449 1028l133 279h235l-221 -279h-147 z" />
<glyph unicode="&#xf4;" horiz-adv-x="1130" d="M74 451q0 201 141 335t354 134q211 0 349.5 -134.5t138.5 -339.5q0 -201 -141.5 -332.5t-354.5 -131.5q-207 0 -347 135t-140 334zM250 1028l217 279h190l226 -279h-205l-109 170l-114 -170h-205zM260 453q0 -131 87 -216t220 -85t219 85t86 218q0 131 -89 217t-224 86 q-131 0 -215 -86t-84 -219z" />
<glyph unicode="&#xf5;" horiz-adv-x="1130" d="M74 451q0 201 141 335t354 134q211 0 349.5 -134.5t138.5 -339.5q0 -201 -141.5 -332.5t-354.5 -131.5q-207 0 -347 135t-140 334zM231 1053v12q0 94 57.5 154.5t147.5 60.5q63 0 152 -47l30 -14q49 -23 80 -23q35 0 50.5 19.5t21.5 68.5h131q-2 -109 -53 -169t-141 -60 q-68 0 -150 47l-37 20q-47 25 -80 25q-35 0 -55 -23.5t-20 -62.5v-8h-134zM260 453q0 -131 87 -216t220 -85t219 85t86 218q0 131 -89 217t-224 86q-131 0 -215 -86t-84 -219z" />
<glyph unicode="&#xf6;" horiz-adv-x="1130" d="M74 451q0 201 141 335t354 134q211 0 349.5 -134.5t138.5 -339.5q0 -201 -141.5 -332.5t-354.5 -131.5q-207 0 -347 135t-140 334zM258 1149q0 43 30.5 73.5t76.5 30.5q43 0 73.5 -30.5t30.5 -73.5q0 -45 -30.5 -76t-73.5 -31q-45 0 -76 31t-31 76zM260 453 q0 -131 87 -216t220 -85t219 85t86 218q0 131 -89 217t-224 86q-131 0 -215 -86t-84 -219zM664 1149q0 43 30.5 73.5t73.5 30.5q45 0 75.5 -30.5t30.5 -73.5q0 -45 -30.5 -76t-75.5 -31q-43 0 -73.5 31t-30.5 76z" />
<glyph unicode="&#xf7;" horiz-adv-x="1368" d="M139 598v127h1090v-127h-1090zM596 252q0 35 25.5 60.5t60.5 25.5t59.5 -24.5t24.5 -59.5t-24.5 -60.5t-59.5 -25.5t-60.5 24.5t-25.5 59.5zM596 1083q2 33 26.5 56.5t59.5 23.5q33 0 57.5 -24.5t24.5 -59.5t-24.5 -60.5t-57.5 -25.5q-35 0 -60.5 26.5t-25.5 63.5z" />
<glyph unicode="&#xf8;" horiz-adv-x="1130" d="M72 459q0 205 140 342t353 137q154 0 283 -82l94 113l68 -62l-90 -106q139 -154 139 -346q0 -205 -143.5 -339t-362.5 -134q-141 0 -270 75l-115 -133l-68 62l111 129q-139 143 -139 344zM248 453q0 -115 78 -205l407 477q-80 47 -168 47q-135 0 -226 -91t-91 -228z M395 190q74 -51 168 -51q135 0 227.5 92.5t92.5 225.5q0 115 -78 213z" />
<glyph unicode="&#xf9;" d="M123 393v527h184v-525q0 -145 42 -203.5t145 -58.5q127 0 219 129v658h184v-920h-184v117q-125 -135 -279 -135q-80 0 -150.5 38.5t-109.5 106.5q-51 84 -51 266zM260 1307h242l135 -279h-145z" />
<glyph unicode="&#xfa;" d="M123 393v527h184v-525q0 -145 42 -203.5t145 -58.5q127 0 219 129v658h184v-920h-184v117q-125 -135 -279 -135q-80 0 -150.5 38.5t-109.5 106.5q-51 84 -51 266zM395 1028l133 279h236l-221 -279h-148z" />
<glyph unicode="&#xfb;" d="M123 393v527h184v-525q0 -145 42 -203.5t145 -58.5q127 0 219 129v658h184v-920h-184v117q-125 -135 -279 -135q-80 0 -150.5 38.5t-109.5 106.5q-51 84 -51 266zM197 1028l217 279h190l225 -279h-204l-109 170l-115 -170h-204z" />
<glyph unicode="&#xfc;" d="M123 393v527h184v-525q0 -145 42 -203.5t145 -58.5q127 0 219 129v658h184v-920h-184v117q-125 -135 -279 -135q-80 0 -150.5 38.5t-109.5 106.5q-51 84 -51 266zM205 1149q0 43 30.5 73.5t75.5 30.5q43 0 74 -30.5t31 -73.5q0 -45 -31 -76t-74 -31q-45 0 -75.5 31 t-30.5 76zM610 1149q0 43 31 73.5t74 30.5q45 0 75.5 -30.5t30.5 -73.5q0 -45 -30.5 -76t-75.5 -31q-43 0 -74 31t-31 76z" />
<glyph unicode="&#xfd;" horiz-adv-x="897" d="M0 920h207l248 -519l237 519h205l-651 -1391h-203l313 668zM332 1028l133 279h235l-221 -279h-147z" />
<glyph unicode="&#xfe;" d="M117 -471v1868h186v-477h133q244 0 381 -122t137 -341q0 -207 -129 -341t-327 -134q-90 0 -195 41v-494h-186zM303 184q82 -43 176 -43q127 0 208 89t81 229q0 131 -72 207q-76 84 -264 84h-129v-566z" />
<glyph unicode="&#xff;" horiz-adv-x="897" d="M0 920h207l248 -519l237 519h205l-651 -1391h-203l313 668zM141 1149q0 43 31 73.5t76 30.5q43 0 73.5 -30.5t30.5 -73.5q0 -45 -30.5 -76t-73.5 -31q-45 0 -76 31t-31 76zM547 1149q0 43 30.5 73.5t73.5 30.5q45 0 76 -30.5t31 -73.5q0 -45 -31 -76t-76 -31 q-43 0 -73.5 31t-30.5 76z" />
<glyph unicode="&#x152;" horiz-adv-x="1878" d="M96 692q0 315 218 510t573 195h67h838v-178h-571v-422h551v-181h-551v-436h594v-180h-861q-317 0 -508 109q-170 96 -260 246.5t-90 336.5zM307 698q0 -225 164 -374.5t410 -149.5h45h94v1049h-78q-143 0 -232 -21.5t-171 -75.5q-109 -72 -170.5 -184.5t-61.5 -243.5z " />
<glyph unicode="&#x153;" horiz-adv-x="1705" d="M72 459q0 205 143 342t358 137q242 0 388 -190q117 190 317 190q119 0 208 -69.5t124 -188.5q20 -74 24 -180h-577v-23q4 -100 27.5 -160.5t76.5 -105.5q74 -61 182 -61q141 0 291 114v-184q-92 -57 -161.5 -77.5t-169.5 -20.5q-229 0 -342 182q-147 -182 -402 -182 q-207 0 -347 137t-140 340zM262 453q0 -127 87 -211t220 -84t216 84t83 217q0 131 -86 216t-215 85q-133 0 -219 -87t-86 -220zM1075 619h377q-35 162 -180 161q-148 1 -197 -161z" />
<glyph unicode="&#x178;" horiz-adv-x="1236" d="M0 1397h242l374 -482l379 482h242l-516 -658v-739h-205v739zM311 1612q0 43 31 73.5t76 30.5q43 0 73.5 -30.5t30.5 -73.5q0 -45 -30.5 -76t-73.5 -31q-45 0 -76 31t-31 76zM717 1612q0 43 30.5 73.5t73.5 30.5q45 0 76 -30.5t31 -73.5q0 -45 -31 -76t-76 -31 q-43 0 -73.5 31t-30.5 76z" />
<glyph unicode="&#x2c6;" horiz-adv-x="681" d="M25 1028l217 279h190l225 -279h-204l-109 170l-115 -170h-204z" />
<glyph unicode="&#x2dc;" horiz-adv-x="681" d="M6 1053v12q0 94 57.5 154.5t147.5 60.5q63 0 151 -47l31 -14q49 -23 80 -23q35 0 50.5 19.5t21.5 68.5h131q-2 -109 -53.5 -169t-141.5 -60q-68 0 -149 47l-37 20q-47 25 -80 25q-35 0 -55.5 -23.5t-20.5 -62.5v-8h-133z" />
<glyph unicode="&#x2013;" d="M-18 449v129h1060v-129h-1060z" />
<glyph unicode="&#x2014;" horiz-adv-x="2048" d="M-18 453v131h2084v-131h-2084z" />
<glyph unicode="&#x2018;" horiz-adv-x="448" d="M111 1106q0 139 94 229q51 49 145 80v-31q-86 -96 -86 -198q0 -12 2 -23q104 -33 105 -125q0 -51 -35 -84.5t-88 -33.5q-63 0 -100 51t-37 135z" />
<glyph unicode="&#x2019;" horiz-adv-x="448" d="M78 1282q0 55 37 94t86 39q61 0 100 -54t39 -138q0 -111 -63.5 -196t-176.5 -120v39q45 45 62.5 88t21.5 117q-106 35 -106 131z" />
<glyph unicode="&#x201a;" horiz-adv-x="448" d="M78 131q0 53 37 93t86 40q61 0 100 -54t39 -138q0 -113 -63.5 -197t-176.5 -119v37q45 45 62.5 89t21.5 118q-106 31 -106 131z" />
<glyph unicode="&#x201c;" horiz-adv-x="874" d="M68 1116q0 106 62.5 186t172.5 113v-43q-80 -63 -80 -168q0 -2 4 -51h9q37 0 65.5 -35t28.5 -80q0 -51 -33 -84.5t-82 -33.5q-63 0 -105 56t-42 140zM524 1110q0 147 105 231q47 41 135 74v-41q-35 -23 -57.5 -71t-22.5 -101q0 -27 4 -49q47 -4 75 -35t28 -80 q0 -51 -35 -84.5t-86 -33.5q-63 0 -104.5 53t-41.5 137z" />
<glyph unicode="&#x201d;" horiz-adv-x="874" d="M86 1284q0 59 34 95t89 36q63 0 102 -53t39 -141q0 -219 -239 -301v18q80 84 79 209v22q-47 4 -75.5 36t-28.5 79zM545 1292q0 53 33.5 88t85.5 35q66 0 104.5 -52t38.5 -138q0 -109 -63.5 -191t-172.5 -114v18q80 92 80 207v26q-106 12 -106 121z" />
<glyph unicode="&#x201e;" horiz-adv-x="917" d="M100 135q0 59 34 96t89 37q63 0 102.5 -55t39.5 -145q0 -166 -138 -258q-35 -27 -102 -50v41q84 84 84 193q0 4 -1 12t-1 14q-47 4 -77 36t-30 79zM561 143q0 53 34 88t85 35q66 0 104.5 -53t38.5 -141q0 -109 -63.5 -193t-171.5 -117v37q80 88 80 201q0 10 -2 23 q-49 6 -77 37.5t-28 82.5z" />
<glyph unicode="&#x2022;" horiz-adv-x="724" d="M109 698.5q0 104.5 74.5 179t178.5 74.5q106 0 180 -74.5t74 -179t-74.5 -179.5t-179 -75t-179 75t-74.5 179.5z" />
<glyph unicode="&#x2026;" horiz-adv-x="2048" d="M219 100.5q0 51.5 35 87t86 35.5t87 -35.5t36 -87t-36 -86t-87 -34.5t-86 34.5t-35 86zM901 104.5q0 51.5 36 87t87 35.5t87 -35.5t36 -87t-36 -87t-87 -35.5t-87 35.5t-36 87zM1585 104.5q0 51.5 36 87t87 35.5t86 -35.5t35 -87t-35 -87t-86 -35.5t-87 35.5t-36 87z" />
<glyph unicode="&#x2039;" horiz-adv-x="641" d="M74 461l301 459h180l-303 -459l303 -461h-180z" />
<glyph unicode="&#x203a;" horiz-adv-x="641" d="M86 0l303 459l-303 461h178l303 -461l-303 -459h-178z" />
<glyph unicode="&#x2122;" horiz-adv-x="2048" d="M225 1346v120h666v-120h-266v-695h-136v695h-264zM983 651v815h201l202 -651h5l196 651h197v-815h-125v684h-4l-205 -684h-123l-215 695h-4v-695h-125z" />
<glyph unicode="&#xe000;" horiz-adv-x="920" d="M0 920h920v-920h-920v920z" />
<glyph unicode="&#xfb01;" d="M27 766v154h137v32q0 223 101.5 343t287.5 120q152 0 242 -77.5t92 -215.5h-172q-27 72 -66 102.5t-102 30.5q-203 0 -203 -299q0 -18 2 -36h205v-154h-205v-766h-182v766h-137zM715 0v920h172v-920h-172z" />
<glyph unicode="&#xfb02;" d="M18 766v154h142v47q0 131 25.5 213t88.5 143q92 92 224 92q66 0 123 -18v-166q-51 14 -82 14q-111 0 -156 -63.5t-45 -218.5v-43h209v-154h-209v-766h-178v766h-142zM711 0v1397h184v-1397h-184z" />
<glyph unicode="&#xfb03;" horiz-adv-x="1472" d="M18 756v164h129v55q0 244 125 360q86 80 199 80q57 0 135 -18v-178q-43 16 -84 16q-106 0 -148 -57.5t-42 -202.5v-55h164v-164h-164v-756h-185v756h-129zM530 756v164h129v55q0 244 125 360q86 80 199 80q57 0 135 -18v-178q-43 16 -84 16q-106 0 -148 -57.5t-42 -202.5 v-55h164v-164h-164v-756h-185v756h-129zM1141 1200q0 41 31.5 74t74.5 33q45 0 77 -31t32 -76t-32 -76.5t-77 -31.5q-43 0 -74.5 32.5t-31.5 75.5zM1157 0v920h182v-920h-182z" />
<glyph unicode="&#xfb04;" horiz-adv-x="1472" d="M18 756v164h129v55q0 244 125 360q86 80 199 80q57 0 135 -18v-178q-43 16 -84 16q-106 0 -148 -57.5t-42 -202.5v-55h164v-164h-164v-756h-185v756h-129zM530 756v164h129v55q0 244 125 360q86 80 199 80q57 0 135 -18v-178q-43 16 -84 16q-106 0 -148 -57.5t-42 -202.5 v-55h164v-164h-164v-756h-185v756h-129zM1157 0v1397h182v-1397h-182z" />
</font>
</defs>
</svg>
