<?xml version="1.0" standalone="no"?>
<!DOCTYPE svg PUBLIC "-//W3C//DTD SVG 1.1//EN" "http://www.w3.org/Graphics/SVG/1.1/DTD/svg11.dtd" >
<svg xmlns="http://www.w3.org/2000/svg">
<metadata>
This is a custom SVG webfont generated by Font Squirrel.
Copyright   : Copyright c 1989 Adobe Systems Incorporated All rights reservedGill Sans is a trademark of the Monotype Corporation plc
</metadata>
<defs>
<font id="GillSansBoldItalic" horiz-adv-x="1130" >
<font-face units-per-em="2048" ascent="1638" descent="-410" />
<missing-glyph horiz-adv-x="569" />
<glyph unicode=" "  horiz-adv-x="569" />
<glyph unicode="&#x09;" horiz-adv-x="569" />
<glyph unicode="&#xa0;" horiz-adv-x="569" />
<glyph unicode="!" horiz-adv-x="532" d="M47 145.5q0 65.5 48 112.5t116 47q66 0 114 -47t48 -113q0 -68 -48.5 -114.5t-115.5 -46.5q-66 0 -114 48t-48 113.5zM162 436l31 549l4 90q8 180 51 260t131 80q61 0 96 -40t35 -109q0 -92 -57 -322l-127 -508h-164z" />
<glyph unicode="&#x22;" horiz-adv-x="980" d="M113 1219v247h305v-247l-45 -275h-207zM563 1219v247h307v-247l-47 -275h-207z" />
<glyph unicode="#" horiz-adv-x="1368" d="M74 328v215h205l55 276h-260v215h301l84 375h215l-82 -375h328l79 375h218l-82 -375h159v-215h-200l-58 -276h258v-215h-299l-80 -371h-217l82 371h-331l-78 -371h-217l79 371h-159zM494 545h327l58 274h-330z" />
<glyph unicode="$" horiz-adv-x="1003" d="M27 109l36 206q158 -104 318 -127l57 398q-109 66 -166 112q-119 100 -118 260q0 154 104 256.5t287 124.5l10 76h162l-10 -88q152 -35 262 -110l-29 -203q-123 78 -262 114l-53 -364q100 -63 151 -105q133 -109 133 -272q0 -121 -68.5 -221t-181.5 -148 q-55 -25 -145 -36l-35 -234h-160l33 242q-171 31 -325 119zM381 989q0 -70 94 -135l41 281q-135 -42 -135 -146zM545 195q135 49 135 161q0 86 -92 140z" />
<glyph unicode="%" horiz-adv-x="1472" d="M49 1081q0 139 98.5 236.5t237.5 97.5q135 0 230.5 -97t95.5 -237q0 -135 -96.5 -230t-231.5 -95q-139 0 -236.5 95t-97.5 230zM160 -16l983 1431h164l-977 -1431h-170zM233 1081q0 -59 43 -101t105 -42q59 0 101 42t42 101q0 61 -41 104.5t-98 43.5q-63 0 -107.5 -43.5 t-44.5 -104.5zM760 317q0 135 100.5 230.5t241.5 95.5q133 0 227 -95t94 -231q0 -137 -96 -235t-231 -98q-139 0 -237.5 98t-98.5 235zM946 315q0 -61 42 -104t101.5 -43t102.5 44t43 103.5t-41 101.5t-98 42q-61 0 -105.5 -42.5t-44.5 -101.5z" />
<glyph unicode="&#x26;" horiz-adv-x="1492" d="M0 406q0 139 82 247.5t231 165.5q90 35 211 53q0 16 -1 41t-1 29q0 215 124 344t329 129q156 0 253 -82t97 -215q0 -229 -276 -336q-96 -35 -220 -59q49 -180 129 -303q104 88 150 207h270q-43 -109 -102 -193q-51 -80 -129 -160q84 -41 188 -41q29 0 80 7l-94 -240 q-49 -18 -94 -18q-190 0 -338 110q-74 -41 -111 -55q-133 -55 -284 -55q-213 0 -353.5 121t-140.5 303zM301 428q0 -98 67.5 -161.5t174.5 -63.5q86 0 186 47q-49 78 -76 133q-66 133 -94 281q-123 -20 -190.5 -83t-67.5 -153zM786 1014q0 -47 11 -94q92 20 127 30 q180 61 180 168q0 53 -39 87t-100 34q-82 0 -130.5 -60.5t-48.5 -164.5z" />
<glyph unicode="'" horiz-adv-x="491" d="M92 1219v247h307v-247l-47 -275h-207z" />
<glyph unicode="(" horiz-adv-x="704" d="M111 313q0 319 149 619q59 121 154 260q78 119 166 219h215q-188 -229 -298 -546.5t-110 -637.5q0 -391 139 -698h-207l-16 37q-121 250 -164 467q-28 135 -28 280z" />
<glyph unicode=")" horiz-adv-x="704" d="M-59 -471q188 227 297.5 544.5t109.5 639.5q0 389 -139 698h207l16 -37q121 -254 164 -467q29 -135 29 -280q0 -319 -150 -619q-55 -113 -153 -260q-78 -119 -166 -219h-215z" />
<glyph unicode="*" horiz-adv-x="980" d="M123 864q0 29 47 39l309 62v28l-289 74q-66 18 -65 45q0 23 22 57l54 88q27 39 47 39q8 0 16 -4q6 -6 19 -16l14 -14l205 -226l24 15l-84 286l-8 23q0 4 -1 8t-1 6q0 37 70 37h102q66 0 66 -31q0 -2 -4 -26l-7 -21l-84 -282l29 -15l209 219q31 31 49 31q27 0 58 -57 l45 -84q16 -33 16 -45q0 -29 -45 -37l-311 -70v-28l284 -62q72 -16 72 -49q0 -20 -14 -49l-64 -103q-27 -41 -47 -40q-23 0 -61 47l-191 221l-29 -27l89 -289q0 -2 1 -6t1 -8q2 -6 2 -14l2 -8q0 -41 -66 -41h-102q-72 0 -72 45q0 10 2 16l4 12l90 293l-24 27l-203 -213 l-16 -17q-2 0 -19 -16q-16 -14 -26 -14q-20 0 -48 49l-53 98q-14 27 -14 47z" />
<glyph unicode="+" horiz-adv-x="1368" d="M121 557v248h438v440h248v-440h438v-248h-438v-436h-248v436h-438z" />
<glyph unicode="," horiz-adv-x="532" d="M-92 -297l31 125q131 31 176 147q-98 55 -99 156q0 70 49.5 117t122.5 47q82 0 139.5 -63.5t57.5 -151.5q0 -96 -62.5 -185.5t-164.5 -138.5q-98 -47 -250 -53z" />
<glyph unicode="-" horiz-adv-x="704" d="M12 319l41 283h639l-41 -283h-639z" />
<glyph unicode="." horiz-adv-x="532" d="M16 160q0 74 52.5 126t124.5 52q76 0 128 -51t52 -125q0 -72 -52.5 -125t-124 -53t-126 53t-54.5 123z" />
<glyph unicode="/" horiz-adv-x="575" d="M-123 -25l727 1516h201l-725 -1516h-203z" />
<glyph unicode="0" horiz-adv-x="1087" d="M106 508q0 379 160 643t389 264q180 0 280.5 -139t100.5 -387q0 -201 -65 -412q-33 -111 -86 -209q-74 -137 -177.5 -211.5t-222.5 -74.5q-176 0 -277.5 140t-101.5 386zM387 446q0 -205 115 -204q94 0 157 170q41 111 76 317q20 123 21 236q0 193 -117 192 q-86 0 -143 -133q-43 -100 -76 -275.5t-33 -302.5z" />
<glyph unicode="1" horiz-adv-x="1087" d="M332 0l198 1397h289l-198 -1397h-289z" />
<glyph unicode="2" horiz-adv-x="1087" d="M59 0v43l156 203q182 248 291 416q150 238 149 339q0 61 -41 101.5t-104 40.5q-123 0 -297 -142l43 306q137 109 311 108q170 0 278.5 -105.5t108.5 -271.5q0 -160 -127 -370q-59 -100 -118 -183l-123 -166l-33 -43h348l-39 -276h-803z" />
<glyph unicode="3" horiz-adv-x="1087" d="M59 70l39 266q178 -96 305 -96q94 0 160 54t66 132t-62.5 126t-165.5 48q-45 0 -106 -10l37 266q100 -23 162 -22q94 0 156.5 49t62.5 123q0 68 -48.5 108.5t-127.5 40.5q-139 0 -328 -104l41 288q168 76 332 76q188 0 305 -101.5t117 -262.5q0 -125 -60.5 -213 t-173.5 -125q162 -84 162 -295q0 -193 -144.5 -314.5t-375.5 -121.5q-163 0 -353 88z" />
<glyph unicode="4" horiz-adv-x="1087" d="M59 322v233l689 860h229l-127 -903h154l-27 -190h-154l-47 -322h-287l46 322h-476zM279 512h284l62 426l-4 4z" />
<glyph unicode="5" horiz-adv-x="1087" d="M47 86l82 260q152 -92 277 -92q106 0 173.5 56.5t67.5 144.5q0 92 -72.5 145t-195.5 53q-76 0 -158 -12l127 756h647l-41 -291h-364l-37 -223q383 -55 383 -414q0 -217 -145.5 -352t-380.5 -135q-203 0 -363 104z" />
<glyph unicode="6" horiz-adv-x="1087" d="M90 418q0 176 98 350q39 74 91 150l315 479h326l-353 -545l4 -4q61 25 136 24q139 0 226 -100t87 -260q0 -223 -145.5 -376.5t-358.5 -153.5q-193 0 -309.5 119.5t-116.5 316.5zM375 399q0 -68 40 -109.5t105 -41.5q84 0 147.5 73.5t63.5 172.5q0 63 -38 102t-99 39 q-90 0 -154.5 -70t-64.5 -166z" />
<glyph unicode="7" horiz-adv-x="1087" d="M190 1116l56 281h819l-551 -1397h-305l442 1116h-461z" />
<glyph unicode="8" horiz-adv-x="1087" d="M82 371q0 170 117 291q63 63 166 92q-137 98 -137.5 264t125.5 281.5t309 115.5q162 0 267 -96t105 -242q0 -74 -33.5 -147.5t-91.5 -124.5q-45 -41 -131 -84q94 -41 146.5 -124t52.5 -187q0 -180 -134 -304t-329 -124q-190 0 -311 109.5t-121 279.5zM377 387 q0 -68 38 -108.5t99 -40.5q76 0 128 61t52 150q0 66 -40 107.5t-101 41.5q-72 0 -124 -61.5t-52 -149.5zM502 963q0 -49 28.5 -79t75.5 -30q59 0 100.5 57.5t41.5 141.5q0 49 -30 80.5t-75 31.5q-61 0 -101 -58t-40 -144z" />
<glyph unicode="9" horiz-adv-x="1087" d="M119 885q0 223 145.5 376.5t358.5 153.5q195 0 309.5 -117.5t114.5 -318.5q0 -164 -89 -334q-53 -98 -84 -145l-331 -500h-324l354 549l-4 4q-70 -27 -133 -27q-139 0 -228 101.5t-89 257.5zM410 903q0 -61 38.5 -98t102.5 -37q84 0 146.5 66.5t66.5 160.5q0 2 2 4v5 q0 66 -43 107.5t-107 41.5q-82 0 -144 -77t-62 -173z" />
<glyph unicode=":" horiz-adv-x="532" d="M51 147.5q0 65.5 49.5 112.5t117 47t115.5 -47t48 -115q0 -66 -49 -113.5t-117 -47.5q-66 0 -115 49t-49 114.5zM141 780q0 68 48.5 117t117.5 49q66 0 114 -51t48 -121q0 -66 -49 -114t-115 -48q-68 0 -116 49t-48 119z" />
<glyph unicode=";" horiz-adv-x="532" d="M-125 -328l19 138q127 33 196 159q-96 53 -96 156q0 74 48 121t122 47q84 0 138 -60.5t54 -156.5q0 -160 -134 -273t-347 -131zM188 780.5q0 69.5 48.5 117.5t117.5 48q68 0 115 -49t47 -118.5t-48 -118t-118 -48.5q-68 0 -115 49.5t-47 119z" />
<glyph unicode="&#x3c;" horiz-adv-x="1366" d="M121 569v224l1124 467v-267l-784 -311l784 -311v-269z" />
<glyph unicode="=" horiz-adv-x="1366" d="M121 317v248h1124v-248h-1124zM121 799v248h1124v-248h-1124z" />
<glyph unicode="&#x3e;" horiz-adv-x="1366" d="M121 102v269l784 311l-784 311v267l1124 -465v-224z" />
<glyph unicode="?" horiz-adv-x="661" d="M76 1024l41 295q154 96 295 96q143 0 239.5 -95t96.5 -235q0 -141 -91 -254q-49 -59 -112 -114q-88 -82 -126 -139.5t-54 -135.5h-218q4 84 27 150q35 104 156 239l76 87q63 70 63 131q0 41 -34 69.5t-85 28.5q-98 0 -274 -123zM76 147q0 70 48 118t115.5 48t115.5 -49 t48 -119q0 -68 -48 -114.5t-117 -46.5q-66 0 -114 47.5t-48 115.5z" />
<glyph unicode="@" horiz-adv-x="2004" d="M61 483q0 256 110 479.5t300 354.5q250 174 616 174q379 0 614.5 -213t235.5 -557q0 -297 -194.5 -509t-466.5 -212q-154 0 -182 115q-119 -115 -271 -115q-170 0 -277.5 116.5t-107.5 303.5q0 152 59.5 295t164.5 243q135 125 317 125q180 0 264 -135l25 111h264 l-152 -717q-14 -63 -14 -88q0 -49 39 -49q33 0 85 30.5t97 77.5q170 180 170 418q0 260 -185.5 419t-488.5 159q-424 0 -649 -273q-88 -104 -139 -257.5t-51 -309.5q0 -332 226 -524.5t620 -192.5q477 0 688 266h213q-109 -217 -335 -332.5t-544 -115.5h-6 q-489 0 -767 242.5t-278 670.5zM696 430v-14q0 -106 49.5 -170t131.5 -64q90 0 159 70q66 66 109 184.5t43 233.5q0 106 -51.5 169.5t-135.5 63.5q-127 0 -212 -133t-93 -340z" />
<glyph unicode="A" horiz-adv-x="1280" d="M-55 0l684 1415h315l246 -1415h-305l-43 305h-434l-136 -305h-327zM494 504h323l-78 559h-4z" />
<glyph unicode="B" horiz-adv-x="1300" d="M84 0l207 1397h397q223 0 340 -60q78 -41 123 -114.5t45 -163.5q0 -209 -203 -311q80 -29 125 -64q135 -102 135 -278q0 -170 -137 -291q-131 -113 -358 -115l-148 -2zM416 211h174q82 0 104 2q53 0 109 16q68 18 109.5 77t41.5 130q0 102 -75 152q-43 29 -90.5 37 t-172.5 8h-141zM506 844h135q141 0 202.5 41t61.5 137q0 88 -52 124t-179 36h-119z" />
<glyph unicode="C" horiz-adv-x="1409" d="M119 621q0 352 252 573t651 221q182 0 387 -51l-49 -258q-174 47 -328 47q-340 0 -502 -219q-106 -145 -106 -317.5t108.5 -271.5t294.5 -99q162 0 328 73q88 41 182 101l-49 -328q-248 -111 -491 -110q-305 0 -491.5 176t-186.5 463z" />
<glyph unicode="D" horiz-adv-x="1536" d="M82 0l199 1397h329q215 0 320.5 -16.5t199.5 -65.5q160 -82 248 -237.5t88 -358.5q0 -301 -176 -502q-178 -203 -452 -215q-90 0 -170 -2l-121 -2zM414 233h164h86q154 0 249 48q115 57 179.5 173.5t64.5 268.5q0 264 -219 381q-109 55 -299 55h-94z" />
<glyph unicode="E" horiz-adv-x="1193" d="M86 0l197 1397h872l-33 -236h-573l-47 -330h504l-33 -231h-504l-53 -369h725l-33 -231h-1022z" />
<glyph unicode="F" horiz-adv-x="1003" d="M84 0l203 1397h800l-34 -238h-504l-45 -330h434l-33 -231h-434l-86 -598h-301z" />
<glyph unicode="G" horiz-adv-x="1515" d="M98 612q0 358 280.5 580.5t729.5 222.5q209 0 408 -51l-37 -258q-205 55 -375 55q-305 0 -501.5 -147.5t-196.5 -376.5q0 -178 125.5 -285.5t336.5 -107.5q82 0 191 22l35 248h-256l30 221h557l-102 -712q-201 -41 -408 -41q-219 0 -378 47q-121 37 -224 121 q-215 177 -215 462z" />
<glyph unicode="H" horiz-adv-x="1622" d="M84 0l207 1397h295l-78 -553h709l79 553h301l-206 -1397h-293l80 569h-711l-80 -569h-303z" />
<glyph unicode="I" horiz-adv-x="618" d="M88 0l203 1397h297l-199 -1397h-301z" />
<glyph unicode="J" horiz-adv-x="618" d="M-168 -465l33 232q96 0 147 38q43 33 59.5 83.5t43.5 244.5l180 1264h297l-180 -1268l-25 -184q-25 -170 -95.5 -265.5t-197.5 -128.5q-88 -20 -190 -20q-23 0 -72 4z" />
<glyph unicode="K" horiz-adv-x="1323" d="M86 0l199 1397h297l-88 -596l4 -4l594 600h350l-625 -631l541 -766h-342l-522 741l-111 -741h-297z" />
<glyph unicode="L" horiz-adv-x="1087" d="M82 0l199 1397h297l-164 -1168h633l-33 -229h-932z" />
<glyph unicode="M" horiz-adv-x="1941" d="M-27 0l455 1397h326l225 -879l471 879h315l66 -1397h-287l-43 944h-4l-518 -944h-143l-244 971h-4l-316 -971h-299z" />
<glyph unicode="N" horiz-adv-x="1599" d="M82 0l207 1397h297l559 -912l137 912h295l-207 -1397h-276l-572 942h-4l-139 -942h-297z" />
<glyph unicode="O" horiz-adv-x="1705" d="M123 631q0 340 233.5 562t587.5 222q305 0 496.5 -177t191.5 -460q0 -172 -66.5 -331.5t-183.5 -266.5q-217 -199 -553 -198q-317 0 -511.5 179t-194.5 470zM430 641q0 -178 111.5 -290.5t287.5 -112.5q207 0 351.5 150.5t144.5 367.5q0 174 -113.5 286.5t-287.5 112.5 q-205 0 -349.5 -150.5t-144.5 -363.5z" />
<glyph unicode="P" horiz-adv-x="1193" d="M84 0l207 1397h295h143q80 0 172 -21q100 -23 174 -90q131 -111 131 -303q0 -213 -135 -335t-373 -122h-120h-115l-74 -526h-305zM494 745h61q117 0 186 15q76 18 119 73.5t43 135.5q0 90 -61 143q-70 63 -240 64h-47z" />
<glyph unicode="Q" horiz-adv-x="1705" d="M125 629q0 340 233.5 563t587.5 223q309 0 497.5 -176t188.5 -467q0 -236 -117.5 -426t-320.5 -283q-98 -45 -217 -63q92 -92 164 -129q84 -45 180 -45q33 0 55 8l37 -35l-229 -225q-84 18 -132 37.5t-126 64.5q-106 61 -211 152q-88 80 -195 207q-395 184 -395 594z M430 637q0 -178 111.5 -289.5t287.5 -111.5q207 0 352.5 151.5t145.5 364.5q0 174 -113.5 288.5t-287.5 114.5q-207 0 -351.5 -150.5t-144.5 -367.5z" />
<glyph unicode="R" horiz-adv-x="1323" d="M84 0l203 1397h342h127q68 0 153 -15q90 -18 160 -67q166 -115 166 -332q0 -197 -139 -301q-61 -47 -172 -70v-4q61 -27 92 -66.5t102 -191.5l168 -350h-325l-136 283q-66 137 -105.5 195.5t-80.5 72.5t-109 14h-65l-80 -565h-301zM496 782h110q170 0 244 49 q84 55 84 156q0 74 -51 125q-39 39 -87 50.5t-165 11.5h-80z" />
<glyph unicode="S" horiz-adv-x="1067" d="M25 115l45 243q57 -41 135 -73q154 -68 264 -68q92 0 147.5 42t55.5 114q0 92 -101 157l-143 91q-150 90 -213 176t-63 198q0 180 139 300t352 120q199 0 358 -88q2 0 41 -22l-41 -246q-197 113 -346 112q-86 0 -142 -42t-56 -107q0 -57 34.5 -90t186.5 -123 q160 -94 227.5 -187.5t67.5 -215.5q0 -193 -137 -314q-125 -111 -351 -110q-186 0 -346 71q-61 27 -114 62z" />
<glyph unicode="T" horiz-adv-x="1267" d="M137 1161l33 236h1194l-33 -236h-450l-166 -1161h-299l164 1161h-443z" />
<glyph unicode="U" horiz-adv-x="1536" d="M139 473q0 78 15 158l16 121l92 645h301l-94 -662q-6 -51 -16 -104q-12 -82 -13 -135q0 -117 86 -188.5t228 -71.5q145 0 235 77q96 82 123 271l21 139l94 674h303l-100 -711q-25 -178 -36.5 -234.5t-37.5 -119.5q-43 -115 -144 -203q-168 -147 -456 -147 q-176 0 -293 40.5t-203 135.5q-121 129 -121 315z" />
<glyph unicode="V" d="M137 1397h283l143 -822h4l375 822h305l-682 -1415h-145z" />
<glyph unicode="W" horiz-adv-x="1941" d="M131 1397h281l147 -822h4l447 822h143l209 -822h4l377 822h301l-680 -1397h-133l-221 846l-461 -846h-137z" />
<glyph unicode="X" horiz-adv-x="1386" d="M-76 0l633 717l-410 680h326l279 -459l399 459h369l-619 -711l414 -686h-326l-280 465l-416 -465h-369z" />
<glyph unicode="Y" horiz-adv-x="1153" d="M150 1397h294l181 -539l323 539h318l-527 -811l-82 -586h-297l84 586z" />
<glyph unicode="Z" horiz-adv-x="1300" d="M-70 0l947 1151h-682l32 246h1211l-944 -1161h700l-33 -236h-1231z" />
<glyph unicode="[" horiz-adv-x="768" d="M61 -453l267 1850h530l-33 -236h-266l-197 -1382h267l-33 -232h-535z" />
<glyph unicode="\" horiz-adv-x="575" d="M115 1491h200l228 -1516h-201z" />
<glyph unicode="]" horiz-adv-x="768" d="M-98 -453l32 232h267l196 1382h-266l33 236h534l-264 -1850h-532z" />
<glyph unicode="^" horiz-adv-x="1193" d="M139 598l375 799h223l367 -799h-285l-196 489l-197 -489h-287z" />
<glyph unicode="_" d="M-18 -223h1167v-183h-1167v183z" />
<glyph unicode="`" horiz-adv-x="681" d="M178 1333h277l127 -299h-195z" />
<glyph unicode="a" d="M82 381q0 164 77 290t218 197q154 78 381 78q154 0 309 -31l-139 -915h-266l12 86q-133 -102 -268 -102q-141 0 -232.5 111.5t-91.5 285.5zM358 369q0 -82 38 -129t102 -47q100 0 200 77l64 443q-23 2 -49 2q-135 0 -219 -56q-59 -39 -97.5 -118.5t-38.5 -171.5z" />
<glyph unicode="b" horiz-adv-x="1110" d="M61 12l197 1385h272l-79 -561q133 111 251 110q150 0 247.5 -118.5t97.5 -299.5q0 -160 -80 -292t-213 -191q-137 -61 -348 -61q-173 -1 -345 28zM362 215q31 -4 72 -4q96 0 154 16q82 23 130 99.5t48 185.5q0 94 -44 149.5t-120 55.5q-90 0 -182 -107z" />
<glyph unicode="c" horiz-adv-x="960" d="M72 428q0 219 172 368.5t426 149.5q152 0 254 -33l-35 -249q-104 41 -203 41q-139 0 -234.5 -81t-95.5 -200q0 -96 62.5 -151.5t171.5 -55.5q125 0 280 78l-39 -277q-135 -35 -288 -34q-207 0 -339 123.5t-132 320.5z" />
<glyph unicode="d" horiz-adv-x="1110" d="M70 428q0 221 164.5 369.5t410.5 148.5q76 0 137 -16l64 467h276l-202 -1385q-166 -29 -308 -28q-252 0 -397 118.5t-145 325.5zM356 428q0 -100 66.5 -158.5t181.5 -58.5q43 0 76 6l68 483q-31 2 -66 2q-150 0 -238 -74.5t-88 -199.5z" />
<glyph unicode="e" horiz-adv-x="1044" d="M72 434q0 213 146.5 362.5t356.5 149.5q180 0 289 -105.5t109 -279.5q0 -70 -15 -135h-608v-20q0 -98 56.5 -154.5t156.5 -56.5q172 0 346 100l-51 -244q-176 -68 -323 -67q-213 0 -338 121.5t-125 328.5zM389 586h309q4 33 4 39q0 57 -36.5 94t-92.5 37 q-125 0 -184 -170z" />
<glyph unicode="f" horiz-adv-x="681" d="M53 727l27 203h188q25 145 64 239q39 86 104 144q109 102 273 102q106 0 227 -47l-35 -223q-90 35 -156 35q-90 0 -140 -57.5t-64 -182.5v-10h172l-29 -203h-172l-162 -1135h-270l160 1135h-187z" />
<glyph unicode="g" horiz-adv-x="1003" d="M-23 -246q0 143 230 213q-59 29 -94 76t-35 98.5t38 95.5t95 60l39 12l16 4q-162 96 -162 273q0 109 67 197.5t173 121.5q74 23 150 23q8 0 54 1t83 1h405l-26 -199h-148q33 -78 33 -147q0 -106 -60.5 -192.5t-164.5 -127.5q-66 -25 -183 -26q-90 0 -118.5 -9.5 t-28.5 -38.5q0 -39 74 -51q176 -29 248.5 -47t121.5 -51q53 -35 85 -94.5t32 -122.5q0 -76 -47 -144.5t-119 -101.5q-117 -49 -321 -49q-209 0 -323 58t-114 167zM219 -201q0 -86 205 -86q217 0 217 78q0 35 -36 52.5t-150 39.5l-66 17q-92 -18 -131 -41t-39 -60zM365 547 q0 -59 33.5 -95t86.5 -36q70 0 109 53t39 143q0 59 -34 96t-89 37q-70 0 -107.5 -52t-37.5 -146z" />
<glyph unicode="h" d="M59 0l199 1397h277l-80 -574q145 123 309 123q123 0 190.5 -72.5t67.5 -203.5q0 -39 -8 -113l-17 -115l-63 -442h-279l72 512l12 78q2 16 2 49q0 92 -79 92q-102 0 -240 -127l-86 -604h-277z" />
<glyph unicode="i" horiz-adv-x="532" d="M59 0l131 930h275l-131 -930h-275zM227 1187.5q0 59.5 41 101.5t101 42q57 0 99 -41t42 -100q0 -61 -42 -103.5t-101 -42.5q-57 0 -98.5 42t-41.5 101.5z" />
<glyph unicode="j" horiz-adv-x="532" d="M-156 -459l33 221h14q76 0 108 48.5t54 189.5l137 930h273l-131 -889q-35 -227 -62 -299q-29 -74 -90 -127q-102 -86 -239 -86q-48 0 -97 12zM225 1185.5q0 59.5 42 102.5t101.5 43t100.5 -42t41 -101.5t-42 -101.5t-101.5 -42t-100.5 41t-41 100.5z" />
<glyph unicode="k" horiz-adv-x="1042" d="M61 0l203 1397h266l-127 -865l5 -4l331 402h340l-366 -443l346 -487h-320l-336 459l-71 -459h-271z" />
<glyph unicode="l" horiz-adv-x="532" d="M63 0l201 1397h271l-199 -1397h-273z" />
<glyph unicode="m" horiz-adv-x="1685" d="M57 0l131 930h273l-17 -119l5 -4q145 139 294 139q90 0 151.5 -45t80.5 -125q66 61 123 101q100 70 215 69q125 0 197.5 -79t72.5 -216q0 -18 -12 -133l-19 -129l-55 -389h-272l65 459l10 76q8 39 9 77q0 125 -84 125q-45 0 -107.5 -39t-120.5 -102l-84 -596h-270l68 475 q12 94 12 141q0 119 -88 119q-90 0 -221 -139l-84 -596h-273z" />
<glyph unicode="n" d="M61 0l132 930h272l-14 -105q158 121 319 121q117 0 184.5 -72.5t67.5 -199.5q0 -27 -10 -123q-14 -119 -15 -123l-65 -428h-273l70 489q16 117 16 150q0 43 -23.5 70.5t-62.5 27.5q-88 0 -219 -119l-22 -20l-86 -598h-271z" />
<glyph unicode="o" horiz-adv-x="1153" d="M72 428q0 213 157.5 365.5t378.5 152.5q203 0 332 -123t129 -315q0 -223 -151.5 -373.5t-376.5 -150.5q-199 0 -334 128t-135 316zM354 410q0 -88 54.5 -146.5t134.5 -58.5q100 0 170.5 90t70.5 215q0 92 -52 148.5t-136 56.5q-100 0 -171 -89t-71 -216z" />
<glyph unicode="p" horiz-adv-x="1193" d="M-8 406q0 35 45 118q25 49 63 103q49 59 144 143l49 340h270l-26 -180q43 8 90 12q57 4 82 4q180 0 292.5 -112.5t112.5 -292.5q0 -233 -169 -395t-413 -162q-66 0 -126 16l-68 -471h-270l149 1055q-82 -66 -131 -125l-43 -58q-12 -16 -33 -16q-18 1 -18 21zM438 225 q43 -10 80 -10q139 0 223 89t84 239q0 98 -52 152.5t-148 54.5q-33 0 -58 -7l-45 -10l-12 -4z" />
<glyph unicode="q" d="M74 385q0 319 245 465q137 82 353 90q33 2 174 2h217l-201 -1413h-272l76 534q-145 -80 -271 -79q-145 0 -233 109.5t-88 291.5zM360 393q0 -90 43 -144t117 -54q86 0 174 59l64 455q-12 0 -28.5 1t-20.5 1q-164 0 -256.5 -84t-92.5 -234z" />
<glyph unicode="r" horiz-adv-x="747" d="M61 0l117 930h273l-15 -133l4 -4q121 154 224 153q78 0 163 -102l-129 -256q-66 100 -129 100q-94 0 -166 -135l-67 -553h-275z" />
<glyph unicode="s" horiz-adv-x="768" d="M23 68l38 206q166 -76 258.5 -75.5t92.5 53.5q0 37 -66 86l-80 57q-94 70 -132 128.5t-38 133.5q0 125 98.5 207t247.5 82q141 0 293 -84l-22 -219l-29 12q-158 68 -231 68q-72 0 -72 -41q0 -27 19.5 -47.5t119.5 -95.5q172 -131 172 -265q0 -127 -98 -208.5t-250 -81.5 q-153 0 -321 84z" />
<glyph unicode="t" horiz-adv-x="747" d="M31 723l35 207h188l35 194h276l-37 -194h203l-35 -207h-204l-43 -234l-17 -86q-6 -39 -6 -73q0 -98 82 -99q68 0 166 64v-252q-127 -59 -236 -59q-133 0 -212 79.5t-79 217.5q0 61 31 229l39 213h-186z" />
<glyph unicode="u" d="M98 260q0 35 8 109l17 112l63 449h273l-68 -477q-14 -86 -14 -160q0 -106 78 -107q117 0 243 138l86 606h273l-131 -930h-273l15 104q-143 -121 -303 -120q-125 0 -196 72.5t-71 203.5z" />
<glyph unicode="v" horiz-adv-x="937" d="M55 930h269l118 -475l250 475h291l-502 -946h-188z" />
<glyph unicode="w" horiz-adv-x="1492" d="M68 930h268l108 -502l281 502h166l100 -502h4l265 502h290l-528 -946h-178l-101 481l-268 -481h-174z" />
<glyph unicode="x" horiz-adv-x="1087" d="M-43 0l440 487l-266 443h305l139 -273l220 273h335l-409 -475l278 -455h-303l-151 291l-240 -291h-348z" />
<glyph unicode="y" horiz-adv-x="1003" d="M51 930h275l184 -508l246 508h288l-677 -1401h-289l270 557z" />
<glyph unicode="z" horiz-adv-x="937" d="M2 0v25l475 675h-379l33 230h807v-33l-461 -666h404l-33 -231h-846z" />
<glyph unicode="{" horiz-adv-x="788" d="M59 651q82 2 124 26.5t65 82.5q31 72 31 250v16v18q0 201 34 281q29 68 90 107q57 35 116 47t173 12h51v-240h-12q-121 0 -155.5 -26.5t-34.5 -118.5q-4 -299 -37 -397q-23 -61 -54.5 -99.5t-97.5 -79.5q115 -66 150 -178q37 -104 37 -399q0 -90 36.5 -116.5t155.5 -26.5 h12v-240h-53q-115 0 -175 12t-112 47q-61 39 -92 107q-33 88 -32 280v19v16q0 160 -23 231.5t-84 104.5q-41 20 -113 23v241z" />
<glyph unicode="|" horiz-adv-x="1251" d="M502 -37v1704h250v-1704h-250z" />
<glyph unicode="}" horiz-adv-x="788" d="M45 -190h14q119 0 155 27.5t36 115.5q0 295 37 399q41 115 151 178q-119 74 -151 179q-37 104 -37 397q0 92 -35 118.5t-158 26.5h-12v240h53q115 0 175.5 -12.5t111.5 -46.5q61 -39 92 -107q33 -88 33 -281v-18v-16q0 -160 22.5 -232.5t83.5 -103.5q41 -20 113 -23v-241 q-80 -2 -122 -27t-64 -82q-33 -76 -33 -250v-16v-19q0 -205 -33 -280q-29 -68 -92 -107q-55 -35 -113.5 -47t-173.5 -12h-53v240z" />
<glyph unicode="~" horiz-adv-x="1193" d="M90 754q86 82 147.5 110.5t153.5 28.5q66 0 126.5 -17.5t203.5 -74.5q98 -41 158 -41q72 0 132 30.5t142 110.5v-270q-92 -76 -156.5 -104.5t-138.5 -28.5q-92 0 -254 69q-156 68 -242 68q-72 0 -130 -30t-142 -109v258z" />
<glyph unicode="&#xa1;" horiz-adv-x="532" d="M23 -324q0 90 57 324l127 506h164l-31 -547l-4 -90q-8 -180 -51 -260t-131 -80q-61 0 -96 38.5t-35 108.5zM160 801q0 68 48 117t118 49q66 0 112.5 -49.5t46.5 -117t-48 -114.5t-115 -47q-66 0 -114 48t-48 114z" />
<glyph unicode="&#xa2;" horiz-adv-x="960" d="M70 424q0 221 172 371.5t426 150.5h37l110 350h133l-117 -362q8 -2 19 -2q27 -4 72 -14l-37 -248q-72 29 -121 35l-150 -484q135 12 254 80l-37 -274q-123 -45 -292 -45l-117 -365h-135l121 383q-154 33 -246 149.5t-92 274.5zM356 428q0 -135 127 -190l146 469 q-121 -16 -197 -93t-76 -186z" />
<glyph unicode="&#xa3;" horiz-adv-x="1110" d="M121 10l155 525h-155l35 217h186l51 174q45 145 105 250q37 72 106 137q115 102 254 102q119 0 203 -57l-27 -252q-82 57 -143 57q-86 0 -133 -69q-49 -74 -88 -207l-41 -135h174l-37 -217h-203l-80 -269q57 10 109 10q43 0 86 -8l84 -16q35 -8 90 -8q119 0 209 49 l-53 -283q-66 -29 -152 -28q-45 0 -92 6l-125 20q-123 20 -231 21q-137 0 -269 -47h-18v28z" />
<glyph unicode="&#xa4;" horiz-adv-x="1368" d="M143 305l136 135q-41 76 -54.5 123t-13.5 123q0 78 13.5 123t54.5 113l-136 137l160 164l137 -140q70 43 116 56.5t124 13.5t124 -13.5t120 -56.5l137 140l162 -164l-138 -137q41 -74 54.5 -121t13.5 -123q0 -78 -13.5 -123t-54.5 -115l138 -135l-162 -162l-137 136 q-74 -43 -122 -56.5t-126 -13.5t-123 13.5t-113 56.5l-133 -136zM438 682q0 -102 71 -174t173 -72t173 72t71 174q0 100 -71 172t-171 72q-102 0 -174 -72t-72 -172z" />
<glyph unicode="&#xa5;" d="M49 279l41 192h373l26 127h-372l41 193h270l-203 675h291l72 -260q31 -125 74 -346l4 -20l8 14q115 231 237 418l127 194h328l-465 -675h281l-41 -193h-369l-27 -127h369l-39 -192h-368l-60 -279h-282l57 279h-373z" />
<glyph unicode="&#xa6;" horiz-adv-x="1251" d="M502 -37v735h250v-735h-250zM502 934v733h250v-733h-250z" />
<glyph unicode="&#xa7;" d="M51 -145l234 63q14 -152 164 -151q68 0 107.5 28.5t39.5 77.5t-39 91t-178 142q-119 88 -173 141.5t-83 112.5q-35 68 -35 154q0 223 270 354q-78 119 -77 219q0 150 117.5 239t312.5 89q147 0 230 -49t118 -158q16 -53 16 -96v-18l-246 -43q-4 135 -145 135 q-59 0 -97 -30t-38 -77q0 -45 37 -86t143 -112q178 -119 244.5 -211t66.5 -217q0 -166 -118 -269q-47 -37 -134 -90q84 -121 84 -223q0 -154 -117.5 -248t-308.5 -94q-301 0 -370 190q-19 56 -25 136zM354 535q0 -41 30 -80t103 -97l76 -55l92 -70q125 80 125 189 q0 59 -37.5 105t-160.5 134l-86 64q-142 -77 -142 -190z" />
<glyph unicode="&#xa8;" horiz-adv-x="681" d="M76 1182q0 55 40 95t95 40q57 0 97 -40t40 -95q0 -57 -40 -97.5t-97 -40.5q-55 0 -95 40.5t-40 97.5zM528 1182q0 55 40 95t96 40q57 0 96 -40t39 -95q0 -57 -39 -97.5t-96 -40.5q-55 0 -95.5 40.5t-40.5 97.5z" />
<glyph unicode="&#xa9;" horiz-adv-x="1515" d="M-8 729.5q0 317.5 224 541.5t541.5 224t542 -224t224.5 -542q0 -315 -225.5 -540.5t-540.5 -225.5q-317 0 -541.5 224.5t-224.5 542zM141 729q0 -254 181.5 -434t435.5 -180t434 180t180 434q0 256 -180 436.5t-434 180.5t-435.5 -181.5t-181.5 -435.5zM381 727 q0 195 105.5 311.5t281.5 116.5q246 0 336 -244l-162 -39q-51 139 -178 140q-98 0 -152.5 -75t-54.5 -208q0 -135 52.5 -210t146.5 -75q137 0 188 172l160 -55q-39 -125 -125 -191.5t-211 -66.5q-178 0 -282.5 114.5t-104.5 309.5z" />
<glyph unicode="&#xaa;" horiz-adv-x="747" d="M150 1075q0 158 117.5 249t324.5 91q109 0 211 -20l-90 -551h-195l4 37q-72 -45 -155 -45q-96 0 -156.5 66.5t-60.5 172.5zM350 1069q0 -45 19.5 -70.5t54.5 -25.5q57 0 119 39l39 254h-17q-102 0 -158.5 -51.5t-56.5 -145.5z" />
<glyph unicode="&#xab;" horiz-adv-x="1110" d="M33 520l307 424h276l-342 -471l142 -473h-234zM594 522l305 422h275l-336 -471l135 -473h-232z" />
<glyph unicode="&#xac;" horiz-adv-x="1368" d="M121 809v248h1124v-735h-248v487h-876z" />
<glyph unicode="&#xad;" horiz-adv-x="704" d="M12 319l41 283h639l-41 -283h-639z" />
<glyph unicode="&#xae;" horiz-adv-x="1515" d="M-8 729.5q0 317.5 224 541.5t541.5 224t542 -224t224.5 -542q0 -315 -225.5 -540.5t-540.5 -225.5q-317 0 -541.5 224.5t-224.5 542zM141 729q0 -254 181.5 -434t435.5 -180q256 0 436 179t180 435t-180 436.5t-436 180.5q-254 0 -435.5 -181.5t-181.5 -435.5zM412 319 v814h288h97q131 0 201.5 -59.5t70.5 -168.5q0 -92 -58.5 -153.5t-160.5 -73.5v-4q53 -18 80.5 -49t93.5 -142l94 -164h-203l-67 134q-63 121 -111.5 160.5t-130.5 39.5h-31v-334h-163zM575 782h68h66q102 2 144 28t42 85q0 111 -168 111h-84h-68v-224z" />
<glyph unicode="&#xaf;" horiz-adv-x="681" d="M78 1067l39 193h641l-41 -193h-639z" />
<glyph unicode="&#xb0;" horiz-adv-x="811" d="M86 1171.5q0 131.5 94 225.5t225.5 94t225.5 -94t94 -225.5t-94 -225.5t-225.5 -94t-225.5 94t-94 225.5zM252 1171.5q0 -63.5 45 -107.5t108.5 -44t107.5 44t44 107.5t-44 108.5t-107.5 45t-108.5 -45t-45 -108.5z" />
<glyph unicode="&#xb1;" horiz-adv-x="1368" d="M121 -66v248h1124v-248h-1124zM121 743v248h438v439h248v-439h438v-248h-438v-438h-248v438h-438z" />
<glyph unicode="&#xb2;" horiz-adv-x="661" d="M80 680v29l96 108q113 129 172 213q84 115 84 168q0 29 -20.5 47.5t-53.5 18.5q-68 0 -190 -86l29 178q88 59 196 59q104 0 172 -55t68 -143q0 -84 -78 -197q-53 -74 -152 -186h199l-24 -154h-498z" />
<glyph unicode="&#xb3;" horiz-adv-x="661" d="M80 719l26 151q117 -55 191 -55q51 0 85 24.5t34 63.5q0 82 -121 82q-39 0 -76 -8l25 156q66 -14 102 -15q53 0 87 22.5t34 59.5q0 70 -92 70q-84 0 -209 -64l29 168q111 41 206 41q115 0 189 -54t74 -138q0 -61 -35 -107.5t-97 -66.5q88 -53 89 -150 q0 -100 -90.5 -164.5t-229.5 -64.5q-98 0 -221 49z" />
<glyph unicode="&#xb4;" horiz-adv-x="681" d="M279 1030l208 299h308l-324 -299h-192z" />
<glyph unicode="&#xb5;" horiz-adv-x="1259" d="M-20 -358l313 1288h272l-102 -430l-17 -58q-16 -66 -16 -116q0 -72 48 -116t128 -44q131 0 193 104q37 66 61 172l119 488h272l-225 -930h-246l23 82l-4 4q-68 -66 -113 -87.5t-113 -21.5q-76 0 -119.5 26t-88.5 95l-113 -456h-272z" />
<glyph unicode="&#xb6;" d="M-2 1053q0 109 44 198.5t120 139.5q76 51 137 63t233 12h596v-262h-112v-1607h-238v1607h-143v-1607h-244v1046q-186 14 -289.5 121t-103.5 289z" />
<glyph unicode="&#xb7;" horiz-adv-x="532" d="M88 708.5q0 71.5 52.5 125t126 53.5t125.5 -53.5t52 -125t-52 -125t-123.5 -53.5t-126 53.5t-54.5 125z" />
<glyph unicode="&#xb8;" horiz-adv-x="681" d="M14 -422l47 117h21h31h10q102 0 172 28.5t70 71.5q0 72 -113 72q-27 0 -92 -10l33 98q66 18 124 18q106 0 168 -44t62 -119q0 -104 -122 -170t-314 -66q-52 0 -97 4z" />
<glyph unicode="&#xb9;" horiz-adv-x="661" d="M240 680l118 727h195l-119 -727h-194z" />
<glyph unicode="&#xba;" horiz-adv-x="768" d="M145 1104q0 129 104.5 220t252.5 91q133 0 219 -73.5t86 -190.5q0 -133 -100.5 -224t-247.5 -91q-133 0 -223.5 77.5t-90.5 190.5zM350 1092q0 -47 32 -80t77 -33q57 0 100 51t43 123q0 51 -29.5 82t-78.5 31q-59 0 -101.5 -51t-42.5 -123z" />
<glyph unicode="&#xbb;" horiz-adv-x="1110" d="M-63 0l337 473l-133 471h230l147 -522l-311 -422h-270zM494 0l342 471l-138 473h234l143 -522l-307 -422h-274z" />
<glyph unicode="&#xbc;" horiz-adv-x="1728" d="M199 680l120 727h195l-121 -727h-194zM297 -55l979 1470h180l-979 -1470h-180zM1092 164v127l411 446h156l-76 -463h90l-16 -110h-92l-27 -164h-192l26 164h-280zM1253 274h138l28 177l-4 4z" />
<glyph unicode="&#xbd;" horiz-adv-x="1728" d="M201 680l118 727h195l-119 -727h-194zM260 -55l981 1470h180l-981 -1470h-180zM1092 0v31q49 51 96 108q109 125 172 211q84 121 84 168q0 29 -20.5 47.5t-53.5 18.5q-68 0 -190 -86l28 178q90 61 197 61q104 0 172 -56t68 -142q0 -88 -78 -197q-51 -72 -152 -188h199 l-25 -154h-497z" />
<glyph unicode="&#xbe;" horiz-adv-x="1728" d="M41 719l25 151q117 -55 190 -55q51 0 86 24.5t35 63.5t-33 60.5t-88 21.5q-41 0 -78 -8l25 156q66 -14 102 -15q53 0 87 22.5t34 59.5q0 70 -92 70q-84 0 -209 -64l29 168q111 41 206 41q115 0 189 -54t74 -138q0 -129 -131 -174q88 -47 88 -149.5t-89.5 -166 t-230.5 -63.5q-98 0 -219 49zM319 -55l981 1470h181l-981 -1470h-181zM1092 164v127l409 446h156l-74 -463h90l-18 -110h-90l-27 -164h-195l27 164h-278zM1251 274h138l30 177l-4 4z" />
<glyph unicode="&#xbf;" horiz-adv-x="661" d="M-96 -141q0 145 92 254q43 51 110 116q88 82 126 138.5t57 136.5h217q-8 -94 -29 -150q-37 -109 -153 -239l-78 -86q-63 -74 -64 -131q0 -43 34 -71t85 -28q102 0 277 121l-43 -293q-154 -98 -295.5 -98t-238.5 95.5t-97 234.5zM250 799q0 66 48 112.5t115.5 46.5 t114.5 -47t47 -114.5t-48 -116.5t-115.5 -49t-114.5 49t-47 119z" />
<glyph unicode="&#xc0;" horiz-adv-x="1280" d="M-55 0l684 1415h315l246 -1415h-305l-43 305h-434l-136 -305h-327zM494 504h323l-78 559h-4zM549 1792h276l127 -299h-194z" />
<glyph unicode="&#xc1;" horiz-adv-x="1280" d="M-55 0l684 1415h315l246 -1415h-305l-43 305h-434l-136 -305h-327zM494 504h323l-78 559h-4zM649 1489l209 299h307l-323 -299h-193z" />
<glyph unicode="&#xc2;" horiz-adv-x="1280" d="M-55 0l684 1415h315l246 -1415h-305l-43 305h-434l-136 -305h-327zM426 1489l297 301h268l121 -301h-199l-75 178l-176 -178h-236zM494 504h323l-78 559h-4z" />
<glyph unicode="&#xc3;" horiz-adv-x="1280" d="M-55 0l684 1415h315l246 -1415h-305l-43 305h-434l-136 -305h-327zM465 1505q41 242 197 242q49 0 186 -49q78 -29 108 -29q47 0 68 78h129q-16 -113 -70.5 -176.5t-132.5 -63.5q-47 0 -141 39q-100 41 -129 41q-70 0 -90 -82h-125zM494 504h323l-78 559h-4z" />
<glyph unicode="&#xc4;" horiz-adv-x="1280" d="M-55 0l684 1415h315l246 -1415h-305l-43 305h-434l-136 -305h-327zM446 1640q0 55 40 95.5t96 40.5q57 0 97 -40t40 -96q0 -57 -40 -97t-97 -40q-55 0 -95.5 40t-40.5 97zM494 504h323l-78 559h-4zM899 1640q0 55 40 95.5t95 40.5q57 0 96 -40t39 -96q0 -57 -38.5 -97 t-96.5 -40q-55 0 -95 40t-40 97z" />
<glyph unicode="&#xc5;" horiz-adv-x="1280" d="M-55 0l684 1415h315l246 -1415h-305l-43 305h-434l-136 -305h-327zM494 504h323l-78 559h-4zM582 1671q0 82 57 138.5t137 56.5t136.5 -56.5t56.5 -138.5q0 -80 -56.5 -136t-136.5 -56t-137 56t-57 136zM690 1671q0 -35 25.5 -59.5t60.5 -24.5t59.5 25.5t24.5 58.5 q0 35 -24.5 60.5t-59.5 25.5t-60.5 -25.5t-25.5 -60.5z" />
<glyph unicode="&#xc6;" horiz-adv-x="2027" d="M-133 0l897 1397h1231l-27 -234h-633l-47 -327h559l-32 -234h-560l-53 -369h793l-39 -233h-1086l50 346h-490l-221 -346h-342zM561 553h387l90 637h-71z" />
<glyph unicode="&#xc7;" horiz-adv-x="1409" d="M119 621q0 352 252 573t651 221q182 0 387 -51l-49 -258q-174 47 -328 47q-340 0 -502 -219q-106 -145 -106 -317.5t108.5 -271.5t294.5 -99q162 0 328 73q88 41 182 101l-49 -328q-248 -111 -491 -110q-305 0 -491.5 176t-186.5 463zM379 -422l47 117h20h31h10 q102 0 172 28.5t70 71.5q0 72 -113 72q-27 0 -92 -10l33 98q66 18 125 18q106 0 167.5 -44t61.5 -119q0 -104 -121.5 -170t-314.5 -66q-51 0 -96 4z" />
<glyph unicode="&#xc8;" horiz-adv-x="1193" d="M86 0l197 1397h872l-33 -236h-573l-47 -330h504l-33 -231h-504l-53 -369h725l-33 -231h-1022zM506 1792h276l127 -299h-194z" />
<glyph unicode="&#xc9;" horiz-adv-x="1193" d="M86 0l197 1397h872l-33 -236h-573l-47 -330h504l-33 -231h-504l-53 -369h725l-33 -231h-1022zM606 1489l209 299h307l-323 -299h-193z" />
<glyph unicode="&#xca;" horiz-adv-x="1193" d="M86 0l197 1397h872l-33 -236h-573l-47 -330h504l-33 -231h-504l-53 -369h725l-33 -231h-1022zM383 1489l297 301h268l121 -301h-199l-75 178l-177 -178h-235z" />
<glyph unicode="&#xcb;" horiz-adv-x="1193" d="M86 0l197 1397h872l-33 -236h-573l-47 -330h504l-33 -231h-504l-53 -369h725l-33 -231h-1022zM403 1640q0 55 40 95.5t96 40.5q57 0 97 -40t40 -96q0 -57 -40 -97t-97 -40q-55 0 -95.5 40t-40.5 97zM856 1640q0 55 40 95.5t95 40.5q57 0 96 -40t39 -96q0 -57 -38.5 -97 t-96.5 -40q-55 0 -95 40t-40 97z" />
<glyph unicode="&#xcc;" horiz-adv-x="618" d="M88 0l203 1397h297l-199 -1397h-301zM219 1792h277l127 -299h-195z" />
<glyph unicode="&#xcd;" horiz-adv-x="618" d="M88 0l203 1397h297l-199 -1397h-301zM319 1489l209 299h308l-324 -299h-193z" />
<glyph unicode="&#xce;" horiz-adv-x="618" d="M88 0l203 1397h297l-199 -1397h-301zM96 1489l297 301h269l120 -301h-198l-76 178l-176 -178h-236z" />
<glyph unicode="&#xcf;" horiz-adv-x="618" d="M88 0l203 1397h297l-199 -1397h-301zM117 1640q0 55 40 95.5t95 40.5q57 0 97 -40t40 -96q0 -57 -40 -97t-97 -40q-55 0 -95 40t-40 97zM569 1640q0 55 40 95.5t96 40.5q57 0 96 -40t39 -96q0 -57 -39 -97t-96 -40q-55 0 -95.5 40t-40.5 97z" />
<glyph unicode="&#xd0;" horiz-adv-x="1536" d="M18 612l25 168h150l88 617h329q215 0 320.5 -16.5t199.5 -65.5q160 -82 248 -237.5t88 -358.5q0 -301 -176 -502q-178 -203 -452 -215q-90 0 -170 -2l-121 -2l-465 2l86 612h-150zM414 233h164h86q154 0 249 48q115 57 179.5 173.5t64.5 268.5q0 264 -219 381 q-109 55 -299 55h-94l-53 -379h303l-25 -168h-303z" />
<glyph unicode="&#xd1;" horiz-adv-x="1599" d="M82 0l207 1397h297l559 -912l137 912h295l-207 -1397h-276l-572 942h-4l-139 -942h-297zM625 1505q41 242 196 242q49 0 187 -49q78 -29 108 -29q47 0 68 78h129q-16 -113 -70.5 -176.5t-132.5 -63.5q-47 0 -141 39q-100 41 -129 41q-70 0 -90 -82h-125z" />
<glyph unicode="&#xd2;" horiz-adv-x="1705" d="M123 631q0 340 233.5 562t587.5 222q305 0 496.5 -177t191.5 -460q0 -172 -66.5 -331.5t-183.5 -266.5q-217 -199 -553 -198q-317 0 -511.5 179t-194.5 470zM430 641q0 -178 111.5 -290.5t287.5 -112.5q207 0 351.5 150.5t144.5 367.5q0 174 -113.5 286.5t-287.5 112.5 q-205 0 -349.5 -150.5t-144.5 -363.5zM762 1792h276l127 -299h-194z" />
<glyph unicode="&#xd3;" horiz-adv-x="1705" d="M123 631q0 340 233.5 562t587.5 222q305 0 496.5 -177t191.5 -460q0 -172 -66.5 -331.5t-183.5 -266.5q-217 -199 -553 -198q-317 0 -511.5 179t-194.5 470zM430 641q0 -178 111.5 -290.5t287.5 -112.5q207 0 351.5 150.5t144.5 367.5q0 174 -113.5 286.5t-287.5 112.5 q-205 0 -349.5 -150.5t-144.5 -363.5zM862 1489l209 299h307l-323 -299h-193z" />
<glyph unicode="&#xd4;" horiz-adv-x="1705" d="M123 631q0 340 233.5 562t587.5 222q305 0 496.5 -177t191.5 -460q0 -172 -66.5 -331.5t-183.5 -266.5q-217 -199 -553 -198q-317 0 -511.5 179t-194.5 470zM430 641q0 -178 111.5 -290.5t287.5 -112.5q207 0 351.5 150.5t144.5 367.5q0 174 -113.5 286.5t-287.5 112.5 q-205 0 -349.5 -150.5t-144.5 -363.5zM639 1489l297 301h268l121 -301h-199l-75 178l-177 -178h-235z" />
<glyph unicode="&#xd5;" horiz-adv-x="1705" d="M123 631q0 340 233.5 562t587.5 222q305 0 496.5 -177t191.5 -460q0 -172 -66.5 -331.5t-183.5 -266.5q-217 -199 -553 -198q-317 0 -511.5 179t-194.5 470zM430 641q0 -178 111.5 -290.5t287.5 -112.5q207 0 351.5 150.5t144.5 367.5q0 174 -113.5 286.5t-287.5 112.5 q-205 0 -349.5 -150.5t-144.5 -363.5zM678 1505q40 242 196 242q49 0 187 -49q78 -29 108 -29q47 0 68 78h129q-16 -113 -70.5 -176.5t-132.5 -63.5q-47 0 -141 39q-100 41 -129 41q-70 0 -90 -82h-125z" />
<glyph unicode="&#xd6;" horiz-adv-x="1705" d="M123 631q0 340 233.5 562t587.5 222q305 0 496.5 -177t191.5 -460q0 -172 -66.5 -331.5t-183.5 -266.5q-217 -199 -553 -198q-317 0 -511.5 179t-194.5 470zM430 641q0 -178 111.5 -290.5t287.5 -112.5q207 0 351.5 150.5t144.5 367.5q0 174 -113.5 286.5t-287.5 112.5 q-205 0 -349.5 -150.5t-144.5 -363.5zM659 1640q0 55 40 95.5t96 40.5q57 0 97 -40t40 -96q0 -57 -40 -97t-97 -40q-55 0 -95.5 40t-40.5 97zM1112 1640q0 55 40 95.5t95 40.5q57 0 96 -40t39 -96q0 -57 -38.5 -97t-96.5 -40q-55 0 -95 40t-40 97z" />
<glyph unicode="&#xd7;" horiz-adv-x="1366" d="M147 1040l177 174l360 -360l360 360l177 -174l-361 -362l359 -356l-177 -175l-356 357l-358 -357l-176 175l358 356z" />
<glyph unicode="&#xd8;" horiz-adv-x="1705" d="M123 633q0 336 233.5 559t583.5 223q207 0 389 -90l111 127l139 -55l-139 -152q193 -176 192 -479q0 -344 -227 -564t-584 -220q-242 0 -415 114l-185 -205l-96 91l176 198q-45 45 -78 94q-100 148 -100 359zM428 651q0 -139 72 -248l633 705q-90 51 -213 51 q-201 0 -346.5 -149.5t-145.5 -358.5zM596 307q104 -68 233 -67q207 0 352.5 149.5t145.5 364.5q0 164 -90 266z" />
<glyph unicode="&#xd9;" horiz-adv-x="1536" d="M139 473q0 78 15 158l16 121l92 645h301l-94 -662q-6 -51 -16 -104q-12 -82 -13 -135q0 -117 86 -188.5t228 -71.5q145 0 235 77q96 82 123 271l21 139l94 674h303l-100 -711q-25 -178 -36.5 -234.5t-37.5 -119.5q-43 -115 -144 -203q-168 -147 -456 -147 q-176 0 -293 40.5t-203 135.5q-121 129 -121 315zM678 1792h276l127 -299h-194z" />
<glyph unicode="&#xda;" horiz-adv-x="1536" d="M139 473q0 78 15 158l16 121l92 645h301l-94 -662q-6 -51 -16 -104q-12 -82 -13 -135q0 -117 86 -188.5t228 -71.5q145 0 235 77q96 82 123 271l21 139l94 674h303l-100 -711q-25 -178 -36.5 -234.5t-37.5 -119.5q-43 -115 -144 -203q-168 -147 -456 -147 q-176 0 -293 40.5t-203 135.5q-121 129 -121 315zM778 1489l209 299h307l-323 -299h-193z" />
<glyph unicode="&#xdb;" horiz-adv-x="1536" d="M139 473q0 78 15 158l16 121l92 645h301l-94 -662q-6 -51 -16 -104q-12 -82 -13 -135q0 -117 86 -188.5t228 -71.5q145 0 235 77q96 82 123 271l21 139l94 674h303l-100 -711q-25 -178 -36.5 -234.5t-37.5 -119.5q-43 -115 -144 -203q-168 -147 -456 -147 q-176 0 -293 40.5t-203 135.5q-121 129 -121 315zM555 1489l297 301h268l121 -301h-199l-75 178l-176 -178h-236z" />
<glyph unicode="&#xdc;" horiz-adv-x="1536" d="M139 473q0 78 15 158l16 121l92 645h301l-94 -662q-6 -51 -16 -104q-12 -82 -13 -135q0 -117 86 -188.5t228 -71.5q145 0 235 77q96 82 123 271l21 139l94 674h303l-100 -711q-25 -178 -36.5 -234.5t-37.5 -119.5q-43 -115 -144 -203q-168 -147 -456 -147 q-176 0 -293 40.5t-203 135.5q-121 129 -121 315zM575 1640q0 55 40 95.5t96 40.5q57 0 97 -40t40 -96q0 -57 -40 -97t-97 -40q-55 0 -95.5 40t-40.5 97zM1028 1640q0 55 40 95.5t95 40.5q57 0 96 -40t39 -96q0 -57 -38.5 -97t-96.5 -40q-55 0 -95 40t-40 97z" />
<glyph unicode="&#xdd;" horiz-adv-x="1153" d="M150 1397h294l181 -539l323 539h318l-527 -811l-82 -586h-297l84 586zM586 1489l209 299h307l-324 -299h-192z" />
<glyph unicode="&#xde;" horiz-adv-x="1193" d="M84 0l207 1397h303l-37 -264h55q166 0 250 -21q96 -20 176 -88q131 -117 131 -305q0 -213 -135 -335q-133 -120 -365 -120h-7h-121h-115l-37 -264h-305zM457 481h59q121 0 189 17q76 16 118.5 72.5t42.5 134.5q0 86 -61 145q-70 61 -240 61h-49z" />
<glyph unicode="&#xdf;" d="M55 0l119 829q37 262 78 355q33 78 106 139q117 92 291 92q184 0 293 -95t109 -257q0 -223 -213 -299q63 -31 96 -66q96 -92 96 -260q0 -197 -124 -325.5t-314 -128.5q-55 0 -117 16l31 221q43 -8 61 -8q80 0 128 72.5t48 197.5q0 84 -44 139.5t-109 55.5h-19l29 203h14 q76 0 125 51t49 131q0 68 -40.5 112t-104.5 44q-43 0 -80 -24t-53 -62q-33 -68 -57 -252l-127 -881h-271z" />
<glyph unicode="&#xe0;" d="M82 381q0 164 77 290t218 197q154 78 381 78q154 0 309 -31l-139 -915h-266l12 86q-133 -102 -268 -102q-141 0 -232.5 111.5t-91.5 285.5zM358 369q0 -82 38 -129t102 -47q100 0 200 77l64 443q-23 2 -49 2q-135 0 -219 -56q-59 -39 -97.5 -118.5t-38.5 -171.5z M403 1333h277l127 -299h-195z" />
<glyph unicode="&#xe1;" d="M82 381q0 164 77 290t218 197q154 78 381 78q154 0 309 -31l-139 -915h-266l12 86q-133 -102 -268 -102q-141 0 -232.5 111.5t-91.5 285.5zM358 369q0 -82 38 -129t102 -47q100 0 200 77l64 443q-23 2 -49 2q-135 0 -219 -56q-59 -39 -97.5 -118.5t-38.5 -171.5z M504 1030l209 299h307l-324 -299h-192z" />
<glyph unicode="&#xe2;" d="M82 381q0 164 77 290t218 197q154 78 381 78q154 0 309 -31l-139 -915h-266l12 86q-133 -102 -268 -102q-141 0 -232.5 111.5t-91.5 285.5zM281 1030l297 301h268l121 -301h-199l-76 178l-176 -178h-235zM358 369q0 -82 38 -129t102 -47q100 0 200 77l64 443q-23 2 -49 2 q-135 0 -219 -56q-59 -39 -97.5 -118.5t-38.5 -171.5z" />
<glyph unicode="&#xe3;" d="M82 381q0 164 77 290t218 197q154 78 381 78q154 0 309 -31l-139 -915h-266l12 86q-133 -102 -268 -102q-141 0 -232.5 111.5t-91.5 285.5zM319 1047q41 242 197 241q49 0 186 -49q78 -29 109 -29q47 0 68 78h129q-16 -113 -70.5 -176t-132.5 -63q-47 0 -141 38 q-100 41 -129 41q-70 0 -91 -81h-125zM358 369q0 -82 38 -129t102 -47q100 0 200 77l64 443q-23 2 -49 2q-135 0 -219 -56q-59 -39 -97.5 -118.5t-38.5 -171.5z" />
<glyph unicode="&#xe4;" d="M82 381q0 164 77 290t218 197q154 78 381 78q154 0 309 -31l-139 -915h-266l12 86q-133 -102 -268 -102q-141 0 -232.5 111.5t-91.5 285.5zM301 1182q0 55 40 95t95 40q57 0 97 -40t40 -95q0 -57 -39.5 -97.5t-97.5 -40.5q-55 0 -95 40.5t-40 97.5zM358 369 q0 -82 38 -129t102 -47q100 0 200 77l64 443q-23 2 -49 2q-135 0 -219 -56q-59 -39 -97.5 -118.5t-38.5 -171.5zM754 1182q0 55 40 95t95 40q57 0 96 -40t39 -95q0 -57 -39 -97.5t-96 -40.5q-55 0 -95 40.5t-40 97.5z" />
<glyph unicode="&#xe5;" d="M82 381q0 164 77 290t218 197q154 78 381 78q154 0 309 -31l-139 -915h-266l12 86q-133 -102 -268 -102q-141 0 -232.5 111.5t-91.5 285.5zM358 369q0 -82 38 -129t102 -47q100 0 200 77l64 443q-23 2 -49 2q-135 0 -219 -56q-59 -39 -97.5 -118.5t-38.5 -171.5z M436 1212q0 82 57.5 138.5t137.5 56.5t136 -56.5t56 -138.5q0 -80 -56 -136t-136 -56t-137.5 56t-57.5 136zM545 1212.5q0 -34.5 25.5 -59.5t60.5 -25q33 0 58.5 26t25.5 58q0 35 -24.5 60.5t-59.5 25.5t-60.5 -25.5t-25.5 -60z" />
<glyph unicode="&#xe6;" horiz-adv-x="1409" d="M-12 211q0 131 131 219t385 127l2 10l6 43q4 16 4 43q0 35 -25.5 55.5t-68.5 20.5q-92 0 -211 -70l-51 -30l-15 -8l35 239q139 86 295 86q145 0 238 -86q119 86 260 86q164 0 269.5 -108.5t105.5 -276.5q0 -66 -17 -137h-573q-2 -16 -2 -43q0 -84 60.5 -136t156.5 -52 q137 0 309 98l-33 -236q-158 -72 -325 -71q-143 0 -252 63q-45 27 -97 76q-162 -139 -325 -139q-113 0 -187.5 64.5t-74.5 162.5zM260 242q0 -31 21.5 -52.5t54.5 -21.5q47 0 119 39l24 176q-119 -25 -169 -56.5t-50 -84.5zM784 582h289q4 37 4 41q0 57 -30.5 92t-83.5 35 q-128 0 -179 -168z" />
<glyph unicode="&#xe7;" horiz-adv-x="960" d="M72 428q0 219 172 368.5t426 149.5q152 0 254 -33l-35 -249q-104 41 -203 41q-139 0 -234.5 -81t-95.5 -200q0 -96 62.5 -151.5t171.5 -55.5q125 0 280 78l-39 -277q-135 -35 -288 -34q-207 0 -339 123.5t-132 320.5zM154 -422l47 117h20h31h10q102 0 172 28.5t70 71.5 q0 72 -113 72q-27 0 -92 -10l33 98q66 18 125 18q106 0 167.5 -44t61.5 -119q0 -104 -122 -170t-314 -66q-51 0 -96 4z" />
<glyph unicode="&#xe8;" horiz-adv-x="1044" d="M72 434q0 213 146.5 362.5t356.5 149.5q180 0 289 -105.5t109 -279.5q0 -70 -15 -135h-608v-20q0 -98 56.5 -154.5t156.5 -56.5q172 0 346 100l-51 -244q-176 -68 -323 -67q-213 0 -338 121.5t-125 328.5zM360 1333h277l127 -299h-195zM389 586h309q4 33 4 39 q0 57 -36.5 94t-92.5 37q-125 0 -184 -170z" />
<glyph unicode="&#xe9;" horiz-adv-x="1044" d="M72 434q0 213 146.5 362.5t356.5 149.5q180 0 289 -105.5t109 -279.5q0 -70 -15 -135h-608v-20q0 -98 56.5 -154.5t156.5 -56.5q172 0 346 100l-51 -244q-176 -68 -323 -67q-213 0 -338 121.5t-125 328.5zM389 586h309q4 33 4 39q0 57 -36.5 94t-92.5 37 q-125 0 -184 -170zM461 1030l209 299h307l-324 -299h-192z" />
<glyph unicode="&#xea;" horiz-adv-x="1044" d="M72 434q0 213 146.5 362.5t356.5 149.5q180 0 289 -105.5t109 -279.5q0 -70 -15 -135h-608v-20q0 -98 56.5 -154.5t156.5 -56.5q172 0 346 100l-51 -244q-176 -68 -323 -67q-213 0 -338 121.5t-125 328.5zM238 1030l297 301h268l121 -301h-199l-76 178l-176 -178h-235z M389 586h309q4 33 4 39q0 57 -36.5 94t-92.5 37q-125 0 -184 -170z" />
<glyph unicode="&#xeb;" horiz-adv-x="1044" d="M72 434q0 213 146.5 362.5t356.5 149.5q180 0 289 -105.5t109 -279.5q0 -70 -15 -135h-608v-20q0 -98 56.5 -154.5t156.5 -56.5q172 0 346 100l-51 -244q-176 -68 -323 -67q-213 0 -338 121.5t-125 328.5zM258 1182q0 55 40 95t95 40q57 0 97 -40t40 -95 q0 -57 -39.5 -97.5t-97.5 -40.5q-55 0 -95 40.5t-40 97.5zM389 586h309q4 33 4 39q0 57 -36.5 94t-92.5 37q-125 0 -184 -170zM711 1182q0 55 40 95t95 40q57 0 96 -40t39 -95q0 -57 -39 -97.5t-96 -40.5q-55 0 -95 40.5t-40 97.5z" />
<glyph unicode="&#xec;" horiz-adv-x="532" d="M61 0l134 930h270l-131 -930h-273zM104 1333h277l127 -299h-195z" />
<glyph unicode="&#xed;" horiz-adv-x="532" d="M61 0l134 930h270l-131 -930h-273zM205 1030l209 299h307l-324 -299h-192z" />
<glyph unicode="&#xee;" horiz-adv-x="532" d="M-18 1030l297 301h268l121 -301h-199l-76 178l-176 -178h-235zM61 0l134 930h270l-131 -930h-273z" />
<glyph unicode="&#xef;" horiz-adv-x="532" d="M2 1182q0 55 40 95t95 40q57 0 97 -40t40 -95q0 -57 -39.5 -97.5t-97.5 -40.5q-55 0 -95 40.5t-40 97.5zM61 0l134 930h270l-131 -930h-273zM455 1182q0 55 40 95t95 40q57 0 96 -40t39 -95q0 -57 -39 -97.5t-96 -40.5q-55 0 -95 40.5t-40 97.5z" />
<glyph unicode="&#xf0;" d="M43 422q0 213 162 366.5t387 153.5q78 0 123 -16.5t106 -65.5l4 4q-37 98 -62.5 140.5t-92.5 115.5l-226 -106l-45 90l183 86q-35 23 -76 43l115 164q106 -49 186 -105l225 105l43 -88l-186 -88q70 -74 100.5 -124t59.5 -139q43 -129 43 -268q0 -313 -160 -509.5 t-414 -196.5q-203 0 -339 126t-136 312zM326 416q0 -96 52 -154.5t138 -58.5q102 0 174 91t72 222q0 88 -54.5 144.5t-138.5 56.5q-100 0 -171.5 -89t-71.5 -212z" />
<glyph unicode="&#xf1;" d="M61 0l132 930h272l-14 -105q158 121 319 121q117 0 184.5 -72.5t67.5 -199.5q0 -27 -10 -123q-14 -119 -15 -123l-65 -428h-273l70 489q16 117 16 150q0 43 -23.5 70.5t-62.5 27.5q-88 0 -219 -119l-22 -20l-86 -598h-271zM319 1047q41 242 197 241q49 0 186 -49 q78 -29 109 -29q47 0 68 78h129q-16 -113 -70.5 -176t-132.5 -63q-47 0 -141 38q-100 41 -129 41q-70 0 -91 -81h-125z" />
<glyph unicode="&#xf2;" horiz-adv-x="1153" d="M72 428q0 213 157.5 365.5t378.5 152.5q203 0 332 -123t129 -315q0 -223 -151.5 -373.5t-376.5 -150.5q-199 0 -334 128t-135 316zM354 410q0 -88 54.5 -146.5t134.5 -58.5q100 0 170.5 90t70.5 215q0 92 -52 148.5t-136 56.5q-100 0 -171 -89t-71 -216zM414 1333h276 l127 -299h-194z" />
<glyph unicode="&#xf3;" horiz-adv-x="1153" d="M72 428q0 213 157.5 365.5t378.5 152.5q203 0 332 -123t129 -315q0 -223 -151.5 -373.5t-376.5 -150.5q-199 0 -334 128t-135 316zM354 410q0 -88 54.5 -146.5t134.5 -58.5q100 0 170.5 90t70.5 215q0 92 -52 148.5t-136 56.5q-100 0 -171 -89t-71 -216zM514 1030 l209 299h307l-323 -299h-193z" />
<glyph unicode="&#xf4;" horiz-adv-x="1153" d="M72 428q0 213 157.5 365.5t378.5 152.5q203 0 332 -123t129 -315q0 -223 -151.5 -373.5t-376.5 -150.5q-199 0 -334 128t-135 316zM291 1030l297 301h268l121 -301h-199l-76 178l-176 -178h-235zM354 410q0 -88 54.5 -146.5t134.5 -58.5q100 0 170.5 90t70.5 215 q0 92 -52 148.5t-136 56.5q-100 0 -171 -89t-71 -216z" />
<glyph unicode="&#xf5;" horiz-adv-x="1153" d="M72 428q0 213 157.5 365.5t378.5 152.5q203 0 332 -123t129 -315q0 -223 -151.5 -373.5t-376.5 -150.5q-199 0 -334 128t-135 316zM330 1047q41 242 196 241q49 0 187 -49q78 -29 108 -29q47 0 68 78h129q-16 -113 -70.5 -176t-132.5 -63q-47 0 -141 38q-100 41 -129 41 q-70 0 -90 -81h-125zM354 410q0 -88 54.5 -146.5t134.5 -58.5q100 0 170.5 90t70.5 215q0 92 -52 148.5t-136 56.5q-100 0 -171 -89t-71 -216z" />
<glyph unicode="&#xf6;" horiz-adv-x="1153" d="M72 428q0 213 157.5 365.5t378.5 152.5q203 0 332 -123t129 -315q0 -223 -151.5 -373.5t-376.5 -150.5q-199 0 -334 128t-135 316zM311 1182q0 55 40 95t95 40q57 0 97.5 -40t40.5 -95q0 -57 -40 -97.5t-98 -40.5q-55 0 -95 40.5t-40 97.5zM354 410q0 -88 54.5 -146.5 t134.5 -58.5q100 0 170.5 90t70.5 215q0 92 -52 148.5t-136 56.5q-100 0 -171 -89t-71 -216zM764 1182q0 55 40 95t95 40q57 0 96 -40t39 -95q0 -57 -39 -97.5t-96 -40.5q-55 0 -95 40.5t-40 97.5z" />
<glyph unicode="&#xf7;" horiz-adv-x="1368" d="M121 565v234h1124v-234h-1124zM535 266q0 61 43 105.5t104 44.5t104 -43t43 -105q0 -59 -43 -102t-104 -43t-104 42t-43 101zM535 1104q0 59 43 101t102 42t102 -43t43 -102.5t-43 -102.5t-102 -43t-102 43.5t-43 104.5z" />
<glyph unicode="&#xf8;" horiz-adv-x="1153" d="M72 426q0 215 158.5 367.5t381.5 152.5q125 0 242 -65l129 153l78 -63l-125 -148q131 -125 131 -323q0 -217 -151.5 -366.5t-372.5 -149.5q-143 0 -258 69l-135 -155l-76 67l131 150q-133 145 -133 311zM354 412q0 -41 19 -97l319 379q-55 25 -98 25q-100 0 -170 -90 t-70 -217zM440 238q45 -33 103 -33q102 0 171.5 89t69.5 218q0 68 -22 104z" />
<glyph unicode="&#xf9;" d="M98 260q0 35 8 109l17 112l63 449h273l-68 -477q-14 -86 -14 -160q0 -106 78 -107q117 0 243 138l86 606h273l-131 -930h-273l15 104q-143 -121 -303 -120q-125 0 -196 72.5t-71 203.5zM403 1333h277l127 -299h-195z" />
<glyph unicode="&#xfa;" d="M98 260q0 35 8 109l17 112l63 449h273l-68 -477q-14 -86 -14 -160q0 -106 78 -107q117 0 243 138l86 606h273l-131 -930h-273l15 104q-143 -121 -303 -120q-125 0 -196 72.5t-71 203.5zM504 1030l209 299h307l-324 -299h-192z" />
<glyph unicode="&#xfb;" d="M98 260q0 35 8 109l17 112l63 449h273l-68 -477q-14 -86 -14 -160q0 -106 78 -107q117 0 243 138l86 606h273l-131 -930h-273l15 104q-143 -121 -303 -120q-125 0 -196 72.5t-71 203.5zM281 1030l297 301h268l121 -301h-199l-76 178l-176 -178h-235z" />
<glyph unicode="&#xfc;" d="M98 260q0 35 8 109l17 112l63 449h273l-68 -477q-14 -86 -14 -160q0 -106 78 -107q117 0 243 138l86 606h273l-131 -930h-273l15 104q-143 -121 -303 -120q-125 0 -196 72.5t-71 203.5zM301 1182q0 55 40 95t95 40q57 0 97 -40t40 -95q0 -57 -39.5 -97.5t-97.5 -40.5 q-55 0 -95 40.5t-40 97.5zM754 1182q0 55 40 95t95 40q57 0 96 -40t39 -95q0 -57 -39 -97.5t-96 -40.5q-55 0 -95 40.5t-40 97.5z" />
<glyph unicode="&#xfd;" horiz-adv-x="1003" d="M51 930h275l184 -508l246 508h288l-677 -1401h-289l270 557zM440 1030l209 299h307l-323 -299h-193z" />
<glyph unicode="&#xfe;" horiz-adv-x="1193" d="M68 -471l266 1868h270l-67 -469q41 8 88 12q61 4 82 4q182 0 294.5 -111.5t112.5 -293.5q0 -233 -170 -395t-414 -162q-63 0 -124 16l-68 -469h-270zM438 223q43 -10 78 -10q139 0 224 89t85 239q0 98 -52 152.5t-148 54.5q-33 0 -58 -7l-45 -10l-12 -4z" />
<glyph unicode="&#xff;" horiz-adv-x="1003" d="M51 930h275l184 -508l246 508h288l-677 -1401h-289l270 557zM238 1182q0 55 39.5 95t95.5 40q57 0 97 -40t40 -95q0 -57 -40 -97.5t-97 -40.5q-55 0 -95 40.5t-40 97.5zM690 1182q0 55 40 95t95 40q57 0 96.5 -40t39.5 -95q0 -57 -39 -97.5t-97 -40.5q-55 0 -95 40.5 t-40 97.5z" />
<glyph unicode="&#x152;" horiz-adv-x="2154" d="M102 618q0 203 98.5 381.5t266.5 280.5q182 109 387 115q29 2 174 2h1100l-33 -234h-577l-48 -329h531l-33 -232h-530l-54 -369h744l-33 -233h-1134h-195q-293 0 -478.5 172t-185.5 446zM408 633q0 -211 131 -318q63 -51 134.5 -66.5t256.5 -15.5h157l132 930h-158 q-33 0 -119 -4q-184 -10 -293 -74q-115 -68 -178 -186.5t-63 -265.5z" />
<glyph unicode="&#x153;" horiz-adv-x="1622" d="M80 434q0 217 140 364.5t347 147.5q88 0 154.5 -26.5t138.5 -92.5q147 119 322 119q166 0 272.5 -109.5t106.5 -279.5q0 -49 -17 -129h-581q-4 -23 -5 -55q0 -82 56 -128q58 -46 160 -46q141 0 331 94l-49 -238q-154 -72 -313 -71q-199 0 -340 114q-152 -115 -303 -114 q-178 0 -299 128.5t-121 321.5zM365 395q0 -88 35.5 -139t99.5 -51q86 0 142 97t56 247q0 78 -37.5 127t-101.5 49q-82 0 -138 -96.5t-56 -233.5zM989 584h299q4 41 4 47q0 51 -34.5 85t-88.5 34q-66 0 -108.5 -39t-71.5 -127z" />
<glyph unicode="&#x178;" horiz-adv-x="1153" d="M150 1397h294l181 -539l323 539h318l-527 -811l-82 -586h-297l84 586zM383 1640q0 55 40 95.5t95 40.5q57 0 97 -40t40 -96q0 -57 -40 -97t-97 -40q-55 0 -95 40t-40 97zM836 1640q0 55 39.5 95.5t95.5 40.5q57 0 96 -40t39 -96q0 -57 -39 -97t-96 -40q-55 0 -95 40 t-40 97z" />
<glyph unicode="&#x2c6;" horiz-adv-x="681" d="M55 1030l297 301h269l120 -301h-198l-76 178l-176 -178h-236z" />
<glyph unicode="&#x2dc;" horiz-adv-x="681" d="M94 1047q41 242 197 241q49 0 186 -49q78 -29 109 -29q47 0 67 78h129q-16 -113 -70.5 -176t-131.5 -63q-47 0 -142 38q-100 41 -129 41q-70 0 -90 -81h-125z" />
<glyph unicode="&#x2013;" horiz-adv-x="1024" d="M-16 338v270h1056v-270h-1056z" />
<glyph unicode="&#x2014;" horiz-adv-x="2048" d="M-14 338v270h2076v-270h-2076z" />
<glyph unicode="&#x2018;" horiz-adv-x="532" d="M137 1036q0 94 62.5 183.5t165.5 138.5q98 47 249 53l-28 -125q-131 -27 -178 -147q98 -53 98 -156q0 -70 -49 -117t-123 -47q-82 0 -139.5 63.5t-57.5 153.5z" />
<glyph unicode="&#x2019;" horiz-adv-x="532" d="M100 819l29 127q131 27 178 148q-100 55 -100 155q0 70 50 118t122 48q82 0 139 -63.5t57 -155.5q0 -96 -63 -185t-164 -137q-96 -47 -248 -55z" />
<glyph unicode="&#x201a;" horiz-adv-x="532" d="M-92 -301l31 125q131 31 176 147q-98 57 -99 158q0 72 49.5 119t122.5 47q82 0 139.5 -63.5t57.5 -155.5q0 -94 -62.5 -184.5t-164.5 -139.5q-98 -47 -250 -53z" />
<glyph unicode="&#x201c;" horiz-adv-x="1003" d="M147 1036q0 94 62.5 183.5t165.5 138.5q98 47 250 53l-29 -125q-131 -27 -178 -147q100 -55 100 -156q0 -70 -50 -117t-122 -47q-82 0 -140.5 63.5t-58.5 153.5zM616 1036q0 96 62.5 184.5t163.5 137.5q98 47 250 53l-29 -125q-133 -29 -178 -147q100 -55 100 -156 q0 -70 -50 -117t-122 -47q-82 0 -139.5 63.5t-57.5 153.5z" />
<glyph unicode="&#x201d;" horiz-adv-x="1003" d="M100 825l29 125q133 31 178 150q-100 55 -100 153q0 70 50 116t122 46q82 0 139 -62.5t57 -152.5q0 -96 -62 -184t-163 -137q-90 -44 -250 -54zM565 825l29 125q131 31 178 150q-100 55 -100 153q0 70 50 116t122 46q82 0 139 -62.5t57 -152.5q0 -96 -62.5 -184 t-164.5 -137q-90 -44 -248 -54z" />
<glyph unicode="&#x201e;" horiz-adv-x="1003" d="M-82 -297l29 125q133 31 178 147q-100 55 -100 156q0 70 50 117t122 47q82 0 139 -62.5t57 -152.5q0 -96 -61.5 -185.5t-163.5 -138.5q-98 -47 -250 -53zM383 -297l29 125q131 31 178 147q-100 55 -101 156q0 70 50.5 117t122.5 47q82 0 139 -63.5t57 -151.5 q0 -96 -62.5 -185.5t-164.5 -138.5q-98 -47 -248 -53z" />
<glyph unicode="&#x2022;" horiz-adv-x="724" d="M90 698q0 123 87 209t208 86q123 0 210 -86t87 -209t-87 -209t-210 -86q-121 0 -208 86t-87 209z" />
<glyph unicode="&#x2026;" horiz-adv-x="2048" d="M164 159.5q0 71.5 52 124t126 52.5t126 -52.5t52 -124t-52 -123.5t-124 -52t-126 52t-54 123.5zM846 159.5q0 71.5 52 124t126 52.5t126 -52.5t52 -123.5q0 -70 -52 -123t-124 -53t-126 52t-54 123.5zM1528 159.5q0 71.5 52 124t124 52.5q74 0 127 -52.5t53 -123.5 q0 -70 -53 -123t-123 -53q-74 0 -127 52t-53 123.5z" />
<glyph unicode="&#x2039;" horiz-adv-x="555" d="M31 522l307 422h272l-334 -471l136 -473h-232z" />
<glyph unicode="&#x203a;" horiz-adv-x="598" d="M-37 0l342 471l-137 473h231l146 -522l-307 -422h-275z" />
<glyph unicode="&#x2122;" horiz-adv-x="2048" d="M217 1323v143h664v-143h-246v-676h-166v676h-252zM979 647v819h260l147 -565h5l147 565h260v-819h-158v653h-4l-174 -653h-149l-172 653h-4v-653h-158z" />
<glyph unicode="&#xe000;" horiz-adv-x="930" d="M0 930h930v-930h-930v930z" />
<glyph unicode="&#xfb01;" horiz-adv-x="1193" d="M74 -408l159 1129h-159l30 209h160q27 186 88 282q57 94 163 148.5t228 54.5q178 0 289 -96t111 -252v-27h-262q-18 133 -142 134q-82 0 -135 -66t-63 -178h166l-29 -209h-168l-160 -1129h-276zM725 0l131 930h272l-131 -930h-272z" />
<glyph unicode="&#xfb02;" horiz-adv-x="1193" d="M74 -408l159 1135h-159l32 203h156q2 16 6 26q20 117 34.5 161t49.5 102q45 70 115 116q117 80 264 80q55 0 117 -18l-35 -232q-39 14 -74 15q-84 0 -136 -64.5t-64 -185.5h170l-29 -203h-172l-158 -1135h-276zM723 0l201 1397h274l-203 -1397h-272z" />
<glyph unicode="&#xfb03;" horiz-adv-x="1896" d="M53 727l27 203h188q25 145 64 239q39 86 104 144q109 102 273 102q106 0 227 -47l-35 -223q-90 35 -156 35q-90 0 -140 -57.5t-64 -182.5v-10h172l-29 -203h-172l-162 -1135h-270l160 1135h-187zM735 727l27 203h188q25 145 64 239q39 86 104 144q109 102 273 102 q106 0 227 -47l-35 -223q-90 35 -156 35q-90 0 -140 -57.5t-64 -182.5v-10h172l-29 -203h-172l-162 -1135h-270l160 1135h-187zM1423 0l131 930h275l-131 -930h-275zM1591 1187.5q0 59.5 41 101.5t101 42q57 0 99 -41t42 -100q0 -61 -42 -103.5t-101 -42.5q-57 0 -98.5 42 t-41.5 101.5z" />
<glyph unicode="&#xfb04;" horiz-adv-x="1896" d="M53 727l27 203h188q25 145 64 239q39 86 104 144q109 102 273 102q106 0 227 -47l-35 -223q-90 35 -156 35q-90 0 -140 -57.5t-64 -182.5v-10h172l-29 -203h-172l-162 -1135h-270l160 1135h-187zM735 727l27 203h188q25 145 64 239q39 86 104 144q109 102 273 102 q106 0 227 -47l-35 -223q-90 35 -156 35q-90 0 -140 -57.5t-64 -182.5v-10h172l-29 -203h-172l-162 -1135h-270l160 1135h-187zM1427 0l201 1397h270l-198 -1397h-273z" />
</font>
</defs>
</svg>
