<?xml version="1.0" standalone="no"?>
<!DOCTYPE svg PUBLIC "-//W3C//DTD SVG 1.1//EN" "http://www.w3.org/Graphics/SVG/1.1/DTD/svg11.dtd" >
<svg xmlns="http://www.w3.org/2000/svg">
<metadata></metadata>
<defs>
<font id="mergeblack" horiz-adv-x="1421" >
<font-face units-per-em="2048" ascent="1536" descent="-512" />
<missing-glyph horiz-adv-x="411" />
<glyph horiz-adv-x="2048" />
<glyph horiz-adv-x="2048" />
<glyph unicode="&#xd;" horiz-adv-x="2048" />
<glyph unicode=" "  horiz-adv-x="411" />
<glyph unicode="&#x09;" horiz-adv-x="411" />
<glyph unicode="&#xa0;" horiz-adv-x="411" />
<glyph unicode="!" horiz-adv-x="653" d="M78 205q0 64 22 111t59 72.5t78.5 37.5t88.5 12q49 0 91 -12t79 -37.5t58 -72.5t21 -111q0 -66 -21 -114t-58 -73.5t-79 -37t-91 -11.5q-47 0 -88.5 11.5t-79 37t-59 73.5t-21.5 114zM92 1206q-10 107 42.5 155t170.5 48h43q118 0 170.5 -48t42.5 -155l-61 -508 q-19 -178 -156 -178h-35q-67 0 -106 42t-49 136z" />
<glyph unicode="&#x22;" horiz-adv-x="1085" d="M88 1231q-20 98 32.5 148.5t155.5 50.5h7q98 0 154 -51.5t38 -147.5l-49 -365q-13 -78 -46 -111.5t-91 -33.5h-13q-61 0 -90.5 32.5t-44.5 112.5zM612 1231q-20 98 33 148.5t156 50.5h6q98 0 154 -51.5t38 -147.5l-49 -365q-13 -78 -46 -111.5t-91 -33.5h-12 q-61 0 -90.5 32.5t-44.5 112.5z" />
<glyph unicode="#" horiz-adv-x="1511" d="M16 479q0 92 41 122t125 30h88l52 164h-52q-84 0 -125 29.5t-41 121.5t41 122t125 30h148l55 174q50 129 199 129q115 3 155 -60.5t4 -156.5l-28 -86h158l55 174q50 129 198 129q115 3 155.5 -60.5t4.5 -156.5l-28 -86q75 -2 112 -33.5t37 -118.5q0 -92 -41 -121.5 t-125 -29.5h-80l-53 -164h45q84 0 125 -30t41 -122t-41 -121.5t-125 -29.5h-143l-54 -166q-55 -129 -192 -129q-118 0 -157 58t-3 159l25 78h-162l-53 -166q-56 -129 -193 -129q-118 0 -156.5 57.5t-2.5 159.5l24 78q-79 0 -118.5 30.5t-39.5 120.5zM653 631h160l51 164 h-157z" />
<glyph unicode="$" horiz-adv-x="1128" d="M33 248q0 158 127 229q43 -30 153.5 -67t194.5 -37q92 0 92 45q0 15 -18 23t-74 26.5t-111 44.5q-58 27 -98 50t-85.5 60t-73 77.5t-46 100t-18.5 130.5q0 157 86 273t241 163v14q0 104 47 153.5t125 49.5h41q78 0 125 -49.5t47 -153.5v-6q139 -30 217 -104t78 -187 q0 -61 -31.5 -119t-88.5 -87q-3 1 -19.5 9.5t-25 12.5t-27.5 13t-33 14l-35 12.5t-40 12t-40.5 9.5t-43.5 7t-44 2q-45 0 -70.5 -13.5t-25.5 -37.5q0 -16 41 -34.5t127 -47.5q69 -23 123 -48t106.5 -61.5t87 -79t55.5 -100.5t21 -127q0 -151 -89 -256.5t-243 -151.5v-61 q0 -104 -47 -153.5t-125 -49.5h-41q-78 0 -125 49.5t-47 153.5v39q-165 22 -267.5 90.5t-102.5 167.5z" />
<glyph unicode="%" horiz-adv-x="1529" d="M41 1092q0 87 33 155.5t85 107.5t109 59t113 20q43 0 88.5 -12t90.5 -38.5t80 -65t57 -97.5t22 -129q0 -86 -32.5 -153.5t-84.5 -105t-108.5 -56.5t-112.5 -19q-44 0 -89.5 11t-91 37t-80.5 63.5t-57 95t-22 127.5zM137.5 101q-12.5 34 0 66t48.5 73l949 1138 q38 44 67.5 62t66 11.5t81.5 -44.5q42 -36 53.5 -70.5t-1.5 -67t-50 -75.5l-946 -1137q-37 -43 -64.5 -61t-63.5 -11.5t-81 44.5l-4 2q-43 36 -55.5 70zM279 1098q0 -59 30.5 -85t69.5 -26q38 0 69 26.5t31 84.5t-30.5 83t-69.5 25t-69.5 -24.5t-30.5 -83.5zM811 324 q0 87 33 155.5t85 107.5t109 59t113 20q43 0 88.5 -12t90.5 -38.5t80 -65t57 -97.5t22 -129q0 -86 -32.5 -153.5t-84.5 -105t-108.5 -56.5t-112.5 -19q-44 0 -89.5 11t-91 37t-80.5 63.5t-57 95t-22 127.5zM1049 330q0 -59 30.5 -85t69.5 -26q38 0 69 26.5t31 84.5t-30.5 83 t-69.5 25t-69.5 -24.5t-30.5 -83.5z" />
<glyph unicode="&#x26;" horiz-adv-x="1370" d="M8 358q0 230 230 351q-81 63 -123.5 135.5t-42.5 177.5q0 153 131 263t344 110q86 0 161 -22.5t129.5 -61.5t94 -89.5t59 -107t19.5 -113.5q0 -118 -52 -196.5t-159 -145.5l-6 -4l139 -118q11 9 18.5 17.5t14.5 20.5t10.5 19t11.5 25.5t12 27.5q123 0 183.5 -51 t60.5 -125q0 -90 -61 -172l141 -135q61 -62 12 -115t-155 -53q-138 0 -217 74l-13 10q-78 -58 -163.5 -83.5t-208.5 -25.5q-268 0 -419 101t-151 286zM416 408q0 -44 37 -74.5t94 -30.5q87 0 139 37l-213 172q-30 -20 -43.5 -43t-13.5 -61zM455 983q0 -40 20 -66.5t80 -76.5 q82 44 82 133q0 38 -27.5 68t-68.5 30t-63.5 -25t-22.5 -63z" />
<glyph unicode="'" horiz-adv-x="524" d="M61 1231q-20 98 33 148.5t156 50.5h6q98 0 154.5 -51.5t38.5 -147.5l-50 -365q-13 -78 -46 -111.5t-91 -33.5h-12q-61 0 -90.5 32.5t-44.5 112.5z" />
<glyph unicode="(" horiz-adv-x="841" d="M78 485q0 285 80 504t237 400q71 81 170 81q85 0 142 -56.5t57 -141.5q0 -65 -68 -154q-107 -142 -155.5 -288t-48.5 -345q0 -198 50 -346t156 -289q66 -86 66 -151q0 -85 -57 -142t-142 -57q-98 0 -170 82q-158 181 -237.5 399t-79.5 504z" />
<glyph unicode=")" horiz-adv-x="841" d="M78 -301q0 67 67 154q107 142 156 287.5t49 344.5q0 198 -50 345.5t-157 289.5q-65 85 -65 152q0 85 56.5 141.5t141.5 56.5q99 0 170 -81q158 -181 238 -399.5t80 -504.5q0 -285 -80 -503.5t-238 -399.5q-72 -82 -170 -82q-85 0 -141.5 57t-56.5 142z" />
<glyph unicode="*" horiz-adv-x="931" d="M64.5 1061q-14.5 50 5.5 113q21 64 61.5 92t81.5 14l106 -41v104q0 43 43.5 72t110.5 29q66 0 107 -28.5t41 -72.5v-102l98 39q41 14 81.5 -14t61.5 -92q20 -63 5.5 -113t-56.5 -64l-102 -41l75 -94q27 -34 12 -82.5t-69 -87.5q-55 -38 -106.5 -40t-77.5 32l-78 94 l-76 -94q-25 -35 -76.5 -32.5t-107.5 40.5q-54 39 -69 87.5t11 82.5l74 94l-100 41q-42 14 -56.5 64z" />
<glyph unicode="+" horiz-adv-x="1226" d="M82 696q0 109 44 154.5t157 42.5h114v147q0 101 49 151.5t162 47.5h8q116 0 165 -50t46 -149v-147h115q112 0 156.5 -46t44.5 -151q3 -107 -41.5 -152.5t-159.5 -45.5h-115v-174q0 -93 -49 -136t-168 -43q-118 0 -167 43.5t-46 135.5v174h-114q-113 0 -157 46t-44 152z " />
<glyph unicode="," horiz-adv-x="632" d="M88 217q0 95 61.5 159t161.5 64q107 0 181.5 -80.5t74.5 -205.5q0 -169 -100.5 -283.5t-228.5 -114.5q-71 0 -100 32.5t-29 74.5q87 32 138.5 82t51.5 112q-99 -14 -145 25q-66 53 -66 135z" />
<glyph unicode="-" horiz-adv-x="1134" d="M78 621q0 96 53 146t152 50h569q99 0 152 -50t53 -146t-53 -146.5t-152 -50.5h-569q-99 0 -152 50.5t-53 146.5z" />
<glyph unicode="." horiz-adv-x="632" d="M88 213q0 107 66.5 166t160.5 59q98 0 164 -59t66 -166t-66 -165t-164 -58q-94 0 -160.5 58t-66.5 165z" />
<glyph unicode="/" horiz-adv-x="954" d="M78 174l381 1104q32 94 82.5 133t150.5 39q135 0 180.5 -72t6.5 -184l-387 -1104q-31 -88 -85.5 -130t-140.5 -42q-138 0 -183.5 68t-4.5 188z" />
<glyph unicode="0" horiz-adv-x="1374" d="M51 686q0 148 34.5 268t94 200.5t141 135t173.5 79t194 24.5q103 0 194 -23t173 -76t140.5 -132.5t93 -199.5t34.5 -270t-34.5 -271t-93.5 -202t-141 -136t-173 -79t-193 -24t-193.5 24t-173.5 78.5t-141 135t-94 200.5t-35 268zM526 688q0 -113 40 -179.5t120 -66.5 t119 66.5t39 179.5t-39 178.5t-119 65.5t-120 -66t-40 -178z" />
<glyph unicode="1" horiz-adv-x="927" d="M51 1165q0 98 54.5 152.5t170.5 54.5h326q223 0 223 -190v-981q0 -201 -223 -201h-92q-120 0 -177 50t-57 151v741q-225 0 -225 223z" />
<glyph unicode="2" horiz-adv-x="1241" d="M51 252q0 145 174 276q32 24 74.5 55t67 49t56 41.5t49.5 37.5t39 31t32 28t21 23t14 21t4 17q0 31 -26.5 50.5t-59 25.5t-70.5 6q-69 0 -138.5 -17t-113.5 -44q-113 43 -113 215q0 150 143 232.5t378 82.5q252 0 405.5 -107t153.5 -296q0 -74 -18.5 -135.5t-48.5 -110.5 t-88.5 -101.5t-118.5 -96t-158 -105.5h245q125 0 180.5 -53.5t55.5 -155.5q0 -104 -57.5 -162.5t-178.5 -58.5h-598q-305 0 -305 252z" />
<glyph unicode="3" horiz-adv-x="1275" d="M51 229q0 88 40 152.5t112 97.5l24 -9q24 -9 30.5 -11t32 -11t38.5 -12t38.5 -10t44.5 -10.5t44.5 -7.5t50 -5.5t49.5 -1.5q64 0 99.5 19t35.5 47q0 45 -117 45h-100q-66 0 -104.5 32t-38.5 118t38.5 118.5t104.5 32.5h90q65 0 92 12t27 37q0 30 -42.5 49t-107.5 19 q-26 0 -48.5 -1.5t-45.5 -6.5t-37.5 -8t-37.5 -11.5t-31 -11.5t-33.5 -14t-30.5 -13q-155 24 -155 236q0 123 135 203.5t381 80.5q250 0 400.5 -107t150.5 -286q0 -102 -51 -178.5t-138 -112.5q100 -31 167 -107t67 -194q0 -129 -79 -224.5t-219 -145t-323 -49.5 q-254 0 -403.5 65t-149.5 184z" />
<glyph unicode="4" horiz-adv-x="1394" d="M10 492q0 121 49 192l310 467q55 84 109 133t139.5 79t203.5 30q365 0 365 -273v-508h14q92 0 138 -41t46 -135q0 -96 -44 -140t-140 -44h-14v-72q0 -71 -64 -125.5t-194 -54.5q-129 0 -189.5 52t-60.5 124v76h-418q-119 0 -184.5 67.5t-65.5 172.5zM508 612h188v330z " />
<glyph unicode="5" horiz-adv-x="1249" d="M51 248q0 180 113 229q56 -30 161.5 -57t190.5 -27q143 0 143 80q0 39 -40 56.5t-127 17.5q-125 0 -164 6q-108 15 -159.5 60.5t-51.5 131.5v447q0 92 55.5 136t169.5 44h623q111 0 163 -60.5t52 -160.5q0 -109 -50 -159t-165 -50h-377v-104q54 16 184 16q198 0 312 -104 t114 -275q0 -150 -87 -263.5t-236.5 -172.5t-339.5 -59q-98 0 -183 15.5t-153.5 47t-108 84t-39.5 121.5z" />
<glyph unicode="6" horiz-adv-x="1296" d="M51 670q0 180 51 319.5t143 227t214.5 132t269.5 44.5q97 0 175 -16.5t128 -43t83 -63t47 -74t14 -78.5q0 -82 -48 -134t-124 -73q-45 33 -101.5 45.5t-148.5 12.5q-104 0 -157.5 -55t-53.5 -128q97 66 286 66q85 0 159 -23.5t132 -69t91.5 -119t33.5 -167.5 q0 -101 -38 -190t-108 -156.5t-177.5 -107t-237.5 -39.5q-109 0 -202.5 24t-173.5 77.5t-136.5 133t-88.5 195.5t-32 260zM555 506q0 -57 28 -95t76 -38q51 0 82 38t31 95q0 55 -31 88t-82 33q-49 0 -76.5 -32.5t-27.5 -88.5z" />
<glyph unicode="7" horiz-adv-x="1208" d="M20 1157q0 97 56 156t170 59h669q131 0 202 -54.5t71 -160.5q0 -47 -20 -117.5t-33.5 -104.5t-42.5 -101l-256 -594q-44 -104 -125.5 -172t-194.5 -68h-74q-119 0 -177 85.5t-7 190.5l320 666h-332q-119 0 -172.5 52.5t-53.5 162.5z" />
<glyph unicode="8" horiz-adv-x="1327" d="M51 379q0 59 14 107.5t33 79t52.5 59t57 42t62.5 33.5q-80 23 -134 95t-54 196t76.5 216t207.5 139t298 47q166 0 297.5 -47.5t207.5 -140t76 -214.5q0 -121 -55 -194.5t-133 -96.5q38 -19 62 -33.5t57.5 -43t52.5 -59t33 -79t14 -106.5q0 -175 -160 -287t-452 -112 t-452.5 111.5t-160.5 287.5zM537 430q0 -48 36 -77t91 -29q53 0 88.5 29t35.5 77q0 50 -33 78.5t-91 28.5q-59 0 -93 -29t-34 -78zM547 930q0 -51 31.5 -79t85.5 -28q51 0 83.5 28.5t32.5 78.5t-32 79t-84 29q-53 0 -85 -29t-32 -79z" />
<glyph unicode="9" horiz-adv-x="1290" d="M51 283q0 65 41 123.5t109 87.5q47 -39 129.5 -65t185.5 -26q106 0 169 47t63 115q-127 -45 -265 -45q-86 0 -162 22.5t-137 66.5t-97 117.5t-36 166.5q0 101 37.5 191t106 159t175 109.5t236.5 40.5q109 0 202.5 -24.5t173.5 -77.5t136.5 -132.5t88.5 -196t32 -260.5 q0 -209 -82 -373.5t-231 -256.5t-340 -92q-535 0 -535 303zM518 852q0 -121 107 -121q110 0 110 121q0 64 -29 98.5t-81 34.5q-51 0 -79 -34.5t-28 -98.5z" />
<glyph unicode=":" horiz-adv-x="632" d="M88 213q0 107 66.5 166t160.5 59q98 0 164 -59t66 -166t-66 -165t-164 -58q-94 0 -160.5 58t-66.5 165zM88 881q0 107 66.5 166t160.5 59q98 0 164 -59t66 -166t-66 -165.5t-164 -58.5q-94 0 -160.5 58.5t-66.5 165.5z" />
<glyph unicode=";" horiz-adv-x="632" d="M88 217q0 95 61.5 159t161.5 64q107 0 181.5 -80.5t74.5 -205.5q0 -169 -100.5 -283.5t-228.5 -114.5q-71 0 -100 32.5t-29 74.5q87 32 138.5 82t51.5 112q-99 -14 -145 25q-66 53 -66 135zM88 881q0 107 66.5 166t160.5 59q98 0 164 -59t66 -166t-66 -165.5t-164 -58.5 q-94 0 -160.5 58.5t-66.5 165.5z" />
<glyph unicode="&#x3c;" horiz-adv-x="1157" d="M37 516v57q0 88 37 138t116 82l691 290q35 13 49 13q66 0 107.5 -63.5t41.5 -158.5v-30q0 -68 -35.5 -116t-91.5 -62q-81 -26 -372 -111v-20q291 -85 372 -111q56 -14 91.5 -62t35.5 -116v-31q0 -95 -41 -158t-108 -63q-17 0 -49 12l-691 291q-80 32 -116.5 81.5 t-36.5 137.5z" />
<glyph unicode="=" horiz-adv-x="1318" d="M78 322q0 99 47.5 144.5t144.5 47.5h766q108 0 156.5 -47t48.5 -156q-3 -179 -205 -192h-753q-107 0 -156 46.5t-49 156.5zM78 850q0 99 47.5 144.5t144.5 47.5h766q108 0 156.5 -46.5t48.5 -155.5q-3 -180 -205 -193h-753q-107 0 -156 46.5t-49 156.5z" />
<glyph unicode="&#x3e;" horiz-adv-x="1157" d="M37 215v31q0 68 35.5 116t91.5 62q71 23 373 111v20q-302 88 -373 111q-56 14 -91.5 62t-35.5 116v30q0 95 41.5 158.5t107.5 63.5q15 0 50 -13l690 -290q79 -32 116 -82t37 -138v-57q0 -88 -36.5 -137.5t-116.5 -81.5l-690 -291q-32 -12 -50 -12q-67 0 -108 63t-41 158z " />
<glyph unicode="?" horiz-adv-x="1179" d="M98 1112q0 75 46.5 134.5t119 93t150 50.5t151.5 17q236 0 386.5 -107.5t150.5 -279.5q0 -107 -55 -186.5t-156 -159.5q-107 -86 -147 -109q-88 -51 -187 -51h-2q-221 0 -221 139q0 27 11.5 52.5t24.5 41.5t38 34t37 24.5l36 19.5q74 38 100.5 59.5t26.5 41.5 q0 26 -39 41.5t-96 15.5q-86 0 -148 -14t-118 -51q-50 29 -79.5 73.5t-29.5 120.5zM307 205q0 64 22 111t59 72.5t78.5 37.5t88.5 12q49 0 91.5 -12t79 -37.5t58 -72.5t21.5 -111q0 -66 -21 -114t-58 -73.5t-79 -37t-92 -11.5q-47 0 -88.5 11.5t-79 37t-59 73.5t-21.5 114z " />
<glyph unicode="@" horiz-adv-x="1447" d="M39 686q0 157 40 281t105.5 202.5t156 130t184.5 72.5t198 21t198.5 -21t185 -73t156.5 -130.5t106 -202.5t40 -280q0 -147 -86 -240.5t-238 -93.5q-79 0 -136 16.5t-88 38.5t-73 64q-16 -52 -58.5 -85.5t-104.5 -33.5q-60 0 -108 16.5t-88 53.5t-61.5 103t-21.5 157 q0 177 78 264.5t201 87.5q56 0 99.5 -35t61.5 -77q25 112 134 112h2q72 0 102.5 -29.5t30.5 -95.5v-223q0 -39 3 -62t18.5 -43t45.5 -20q78 0 78 125q0 112 -26.5 201t-71 146t-107 94.5t-129.5 53t-143 15.5t-142.5 -15.5t-129 -52.5t-106.5 -94t-70.5 -146t-26.5 -202 q0 -114 29.5 -203t76.5 -143t111 -89t127 -48t131 -13q110 0 188 35t78 80q58 0 94.5 -30t36.5 -85q0 -87 -109 -141.5t-288 -54.5q-99 0 -190 19t-183 68t-159 124.5t-109.5 199t-42.5 281.5zM612 690q0 -129 80 -129q35 0 57.5 34.5t22.5 84.5v10q0 59 -22 94t-58 35 q-80 0 -80 -129z" />
<glyph unicode="A" d="M41 135q0 22 12 72q3 12 23.5 102t26 111.5t25 102.5t29 113t29 103t35 113t36.5 101.5t43.5 110.5t47.5 101q48 98 124.5 152.5t205.5 54.5h65q129 0 205.5 -54.5t124.5 -152.5q25 -50 47.5 -101t43.5 -110.5t36.5 -101.5t35 -113t29 -103t29 -113t25 -102.5t26 -111.5 t23.5 -102q12 -50 12 -72q0 -141 -221 -141h-96q-101 0 -160.5 37t-73.5 125q-5 26 -18 147h-201q-9 -83 -18 -147q-14 -88 -73.5 -125t-160.5 -37h-96q-221 0 -221 141zM641 571h139q-31 223 -69 369q-47 -179 -70 -369z" />
<glyph unicode="B" horiz-adv-x="1343" d="M102 199v970q0 109 49 156t164 47h437q259 0 379 -95t120 -261v-2q0 -96 -50.5 -170.5t-127.5 -110.5q39 -10 76.5 -33t73.5 -60t58 -95.5t22 -128.5q0 -195 -141.5 -305.5t-389.5 -110.5h-457q-118 0 -165.5 46t-47.5 153zM569 385h148q125 0 125 94q0 48 -31 69t-94 21 h-148v-184zM569 805h127q125 0 125 94q0 48 -31 69t-94 21h-127v-184z" />
<glyph unicode="C" horiz-adv-x="1333" d="M51 678q0 179 55 318.5t150.5 224.5t217.5 128.5t263 43.5q222 0 358 -93t136 -231q0 -58 -23 -101.5t-62.5 -69t-82 -39.5t-92.5 -21q-27 53 -85 82.5t-132 29.5q-111 0 -167.5 -73.5t-56.5 -196.5q0 -119 58.5 -188.5t165.5 -69.5q130 0 215 104q102 -12 181 -74.5 t79 -160.5q0 -139 -134.5 -225t-342.5 -86q-111 0 -211.5 25t-190.5 79.5t-156 134.5t-104.5 198t-38.5 261z" />
<glyph unicode="D" horiz-adv-x="1390" d="M102 199v970q0 109 49 156t164 47h301q374 0 554 -171.5t180 -508.5q0 -692 -734 -692h-301q-118 0 -165.5 46t-47.5 153zM569 430h121q92 0 149.5 70.5t57.5 187.5t-57.5 186.5t-149.5 69.5h-121v-514z" />
<glyph unicode="E" horiz-adv-x="1185" d="M102 199v970q0 109 49 156t164 47h617q90 0 141 -52t51 -157t-51.5 -157t-140.5 -52h-363v-102h193q95 0 143.5 -34.5t48.5 -129.5q0 -94 -49 -129t-143 -35h-193v-106h383q90 0 141.5 -52t51.5 -157t-52 -157t-141 -52h-637q-118 0 -165.5 46t-47.5 153z" />
<glyph unicode="F" horiz-adv-x="1183" d="M102 199v970q0 109 49 156t164 47h635q89 0 141 -54.5t52 -160.5q0 -104 -51.5 -152.5t-141.5 -48.5h-381v-141h222q97 0 151.5 -39.5t54.5 -140.5t-55.5 -141.5t-150.5 -40.5h-222v-254q0 -106 -49 -152.5t-164 -46.5h-41q-118 0 -165.5 46t-47.5 153z" />
<glyph unicode="G" horiz-adv-x="1361" d="M29 686q0 155 42 279t110 202.5t159 130.5t183.5 73.5t189.5 21.5q140 0 250 -35t176.5 -107t66.5 -172q0 -83 -53.5 -136t-146.5 -71q-6 3 -29 17t-32 19t-33.5 15t-44.5 14t-53 7.5t-71 3.5q-112 0 -174.5 -69t-62.5 -201q0 -130 64 -194t178 -64q63 0 107 23.5 t44 64.5q0 16 -22 16h-33q-65 0 -104.5 40.5t-39.5 107.5t39.5 106t104.5 39h305q71 0 121.5 -45t50.5 -119v-96q0 -81 -21 -160t-69 -155t-116.5 -134t-172 -93t-227.5 -35q-97 0 -189.5 21t-184 73.5t-159.5 130.5t-110.5 202t-42.5 279z" />
<glyph unicode="H" horiz-adv-x="1470" d="M102 199v970q0 109 49 156t164 47h41q115 0 164 -47t49 -156v-284h332v284q0 109 49 156t164 47h41q115 0 164 -47t49 -156v-970q0 -106 -49 -152.5t-164 -46.5h-41q-118 0 -165.5 46t-47.5 153v295h-332v-295q0 -106 -49 -152.5t-164 -46.5h-41q-118 0 -165.5 46 t-47.5 153z" />
<glyph unicode="I" horiz-adv-x="671" d="M102 199v970q0 109 49 156t164 47h41q115 0 164 -47t49 -156v-970q0 -106 -49 -152.5t-164 -46.5h-41q-118 0 -165.5 46t-47.5 153z" />
<glyph unicode="J" horiz-adv-x="851" d="M-72 -201q0 60 13 98t43 74q43 -37 157 -37q69 0 105.5 31t36.5 115v1089q0 109 49 156t164 47h41q115 0 164 -47t49 -156v-989q0 -328 -111.5 -486.5t-364.5 -158.5q-164 0 -255 77.5t-91 186.5z" />
<glyph unicode="K" horiz-adv-x="1427" d="M102 199v970q0 109 49 156t164 47h41q115 0 164 -47t49 -156v-350q69 86 112.5 161t81.5 157.5t58 119.5q62 115 213 115h127q64 0 100.5 -34t36.5 -83q0 -71 -86 -216t-239 -300q20 -25 75.5 -91.5t88 -107.5t81.5 -113.5t91 -147.5q47 -84 47 -164q0 -51 -37.5 -83 t-106.5 -32h-182q-121 0 -168 106l-16.5 33t-44 80.5t-66.5 112.5t-79 115t-87 102v-350q0 -106 -49 -152.5t-164 -46.5h-41q-118 0 -165.5 46t-47.5 153z" />
<glyph unicode="L" horiz-adv-x="1142" d="M102 199v970q0 109 49 156t164 47h41q115 0 164 -47t49 -156v-739h361q89 0 140.5 -54.5t51.5 -160.5q0 -105 -52 -160t-140 -55h-615q-118 0 -165.5 46t-47.5 153z" />
<glyph unicode="M" horiz-adv-x="1722" d="M102 199v970q0 109 49 156t164 47h99q42 0 77 -6.5t60.5 -16.5t47.5 -29t36 -36t29 -47t24 -52.5t23 -60.5l151 -426l150 426q14 38 23 60.5t24 52.5t29 47t36 36t47.5 29t60.5 16.5t77 6.5h98q115 0 164 -47t49 -156v-970q0 -107 -47.5 -153t-165.5 -46h-10 q-115 0 -164 46.5t-49 152.5v532l-97 -303q-56 -182 -200 -182h-51q-71 0 -125 46.5t-80 135.5l-92 303v-532q0 -106 -49 -152.5t-164 -46.5h-11q-118 0 -165.5 46t-47.5 153z" />
<glyph unicode="N" horiz-adv-x="1486" d="M102 199v970q0 109 49 156t164 47h84q80 0 129.5 -34t89.5 -99l328 -555v485q0 110 46.5 156.5t160.5 46.5h25q114 0 160 -46.5t46 -156.5v-970q0 -106 -49 -152.5t-164 -46.5h-45q-165 0 -247 121l-353 516v-438q0 -107 -46.5 -153t-160.5 -46h-10q-117 0 -162 45.5 t-45 153.5z" />
<glyph unicode="O" horiz-adv-x="1472" d="M51 686q0 155 42 279t110 202.5t159 130.5t183.5 73.5t189.5 21.5q98 0 190.5 -21.5t184 -73.5t159.5 -130.5t110 -202.5t42 -279t-42.5 -279t-110 -202t-159 -130.5t-183.5 -73.5t-189 -21t-189.5 21t-184 73.5t-159.5 130.5t-110.5 202t-42.5 279zM530 686 q0 -74 18 -128.5t49 -83.5t65 -42.5t73 -13.5t74 13.5t66 42.5t49 83.5t18 128.5t-18 128t-49 83t-65.5 42t-74.5 13q-39 0 -73 -13t-65 -42t-49 -83t-18 -128z" />
<glyph unicode="P" horiz-adv-x="1275" d="M102 199v970q0 109 49 156t164 47h373q268 0 402.5 -127.5t134.5 -349.5t-134.5 -349.5t-402.5 -127.5h-119v-219q0 -106 -49 -152.5t-164 -46.5h-41q-118 0 -165.5 46t-47.5 153zM569 772h88q53 0 85 28.5t32 73.5t-31.5 72t-85.5 27h-88v-201z" />
<glyph unicode="Q" horiz-adv-x="1544" d="M51 686q0 155 42 279t110 202.5t159 130.5t183.5 73.5t189.5 21.5q98 0 190.5 -21.5t184 -73.5t159.5 -130.5t110 -202.5t42 -279q0 -386 -258 -577q49 -16 146.5 -24.5t163.5 -8.5q0 -85 -29.5 -161.5t-94 -129.5t-151.5 -53q-222 0 -383 252q-54 -4 -78 -4 q-97 0 -189.5 21t-184 73.5t-159.5 130.5t-110.5 202t-42.5 279zM530 686q0 -74 18 -128.5t49 -83.5t65 -42.5t73 -13.5t74 13.5t66 42.5t49 83.5t18 128.5t-18 128t-49 83t-65.5 42t-74.5 13q-39 0 -73 -13t-65 -42t-49 -83t-18 -128z" />
<glyph unicode="R" horiz-adv-x="1394" d="M102 199v970q0 109 49 156t164 47h430q135 0 242.5 -36.5t176.5 -101.5t105 -151.5t36 -187.5q0 -255 -234 -356q56 -94 131 -165t156 -93q0 -40 -10 -80.5t-33 -80.5t-55.5 -71t-82 -50t-108.5 -19q-118 0 -199 78.5t-145 220.5q-17 38 -36 84t-29 73l-11 27h-80v-264 q0 -106 -49 -152.5t-164 -46.5h-41q-118 0 -165.5 46t-47.5 153zM569 766h136q59 0 98 27t39 81q0 53 -39 79t-98 26h-136v-213z" />
<glyph unicode="S" horiz-adv-x="1222" d="M41 248q0 158 127 229q50 -35 181.5 -80t248.5 -45q40 0 66 14t26 42q0 22 -23.5 35.5t-109.5 29.5q-246 46 -366.5 151.5t-120.5 301.5q0 212 151.5 339.5t396.5 127.5q151 0 263.5 -29t182 -95.5t69.5 -164.5q0 -61 -32 -119.5t-89 -87.5q-177 92 -361 92 q-100 0 -100 -55q0 -18 13.5 -30t28 -16.5t46.5 -10.5q136 -31 232.5 -66.5t157 -73.5t94.5 -87t46.5 -99t12.5 -117q0 -193 -165 -323.5t-431 -130.5q-145 0 -268 31.5t-200 94t-77 142.5z" />
<glyph unicode="T" horiz-adv-x="1314" d="M41 1157q0 106 51.5 160.5t140.5 54.5h848q89 0 141 -54.5t52 -160.5q0 -105 -52.5 -160t-140.5 -55h-190v-743q0 -106 -49 -152.5t-164 -46.5h-41q-118 0 -165.5 46t-47.5 153v743h-191q-88 0 -140 55t-52 160z" />
<glyph unicode="U" horiz-adv-x="1396" d="M72 666v501q0 107 54.5 156t164.5 49h33q116 0 165.5 -48t49.5 -157v-589q0 -158 159 -158q160 0 160 158v589q0 109 49.5 157t165.5 48h33q110 0 164.5 -49t54.5 -156v-501q0 -72 -4 -130t-19.5 -131t-41 -128t-73 -111.5t-112 -93t-161 -59.5t-216.5 -23t-216.5 23 t-161 59.5t-111.5 93t-73 111.5t-41 128.5t-19 131t-4 129.5z" />
<glyph unicode="V" d="M41 1231q0 141 221 141h96q101 0 160.5 -37t73.5 -125q8 -53 24 -193.5t38 -279t57 -270.5q35 132 57 270.5t37 278.5t24 194q14 88 73.5 125t160.5 37h96q221 0 221 -141q0 -22 -12 -72q-3 -12 -23.5 -102t-26 -111.5t-25 -102.5t-29 -113t-29 -103t-35 -113 t-36.5 -101.5t-43.5 -110.5t-47.5 -101q-48 -98 -124.5 -152.5t-205.5 -54.5h-65q-129 0 -205.5 54.5t-124.5 152.5q-25 50 -47.5 101t-43.5 110.5t-36.5 101.5t-35 113t-29 103t-29 113t-25 102.5t-26 111.5t-23.5 102q-12 50 -12 72z" />
<glyph unicode="W" horiz-adv-x="1855" d="M72 1188q0 84 48.5 134t149.5 50h84q207 0 221 -186q1 -403 46 -742h2l75 590q10 74 55.5 119t127.5 45h84q82 0 126.5 -44.5t55.5 -119.5l92 -590q20 151 31.5 336.5t12.5 295.5l1 110q14 186 221 186h84q101 0 148 -49.5t47 -134.5q0 -2 -4 -60q-2 -23 -5 -63t-16 -155 t-28 -220t-41 -232t-56 -216q-81 -244 -288 -244h-86q-47 0 -86 16t-68 40t-54 68.5t-42 86t-34 108t-28 119.5t-26 135q-19 -106 -29 -157.5t-30 -132.5t-41 -120.5t-53 -83.5t-74.5 -61.5t-96.5 -17.5h-84q-208 0 -289 244q-47 142 -84.5 360t-50.5 365l-14 147 q-4 31 -4 74z" />
<glyph unicode="X" horiz-adv-x="1384" d="M49 180q45 176 287 506l-258 467q-29 52 -29 95q1 34 19 62q42 62 161 62h168q50 0 85 -12t59.5 -41t37.5 -55.5t33 -77.5l103 -258q34 55 61.5 121t36.5 95.5t25 88.5q39 139 186 139h139q102 0 141 -50q25 -32 25 -76q0 -25 -8 -54q-53 -207 -272 -506l272 -467 q29 -52 29 -94q0 -35 -19 -63q-43 -62 -162 -62h-168q-50 0 -85 12t-59.5 41t-37.5 55.5t-33 77.5l-116 258q-98 -160 -138 -305q-39 -139 -186 -139h-139q-102 0 -141 50q-25 32 -25 76q0 25 8 54z" />
<glyph unicode="Y" horiz-adv-x="1316" d="M63 1133q-21 64 -21 110q0 129 161 129h135q83 0 122 -45.5t68 -142.5q11 -37 30.5 -105t30.5 -105.5t29.5 -92t38.5 -103.5h2q20 49 38.5 103.5t29.5 92t30.5 105.5t30.5 105q14 47 27.5 77t34.5 57.5t53 40.5t76 13h135q160 0 160 -128q0 -47 -21 -111 q-64 -193 -148 -362t-206 -345v-227q0 -106 -49 -152.5t-164 -46.5h-61q-118 0 -165.5 46t-47.5 153v235q-224 323 -349 699z" />
<glyph unicode="Z" horiz-adv-x="1376" d="M72 1157q0 105 52 160t140 55h752q101 0 169 -69t68 -177q0 -104 -94 -225l-393 -471h346q89 0 141 -54.5t52 -160.5q0 -105 -52.5 -160t-140.5 -55h-788q-123 0 -181.5 57.5t-58.5 153.5q0 102 100 221l418 510h-338q-89 0 -140.5 54.5t-51.5 160.5z" />
<glyph unicode="[" horiz-adv-x="808" d="M78 -281v1561q0 97 52 146t171 49h227q203 0 203 -195q0 -104 -49.5 -153.5t-153.5 -49.5h-14v-1161h14q105 0 154 -46.5t49 -148.5q0 -96 -50.5 -149t-152.5 -53h-227q-120 0 -171.5 48.5t-51.5 151.5z" />
<glyph unicode="\" horiz-adv-x="954" d="M76 1194q-39 112 6 184t180 72q100 0 151 -39.5t83 -132.5l381 -1104q41 -120 -5 -188t-184 -68q-86 0 -140 42t-85 130z" />
<glyph unicode="]" horiz-adv-x="808" d="M78 -287q0 104 49.5 153.5t153.5 49.5h14v1161h-14q-105 0 -154 46.5t-49 148.5q0 96 50.5 149.5t152.5 53.5h227q120 0 171.5 -49t51.5 -152v-1561q0 -97 -52 -145.5t-171 -48.5h-227q-203 0 -203 194z" />
<glyph unicode="^" horiz-adv-x="911" d="M49 917.5q-23 32.5 0 67.5l203 305q54 82 143 82h121q89 0 143 -82l203 -305q24 -35 2 -67.5t-71 -32.5h-91q-101 0 -149 73l-96 150l-99 -150q-48 -73 -147 -73h-92q-47 0 -70 32.5z" />
<glyph unicode="_" horiz-adv-x="1134" d="M78 -236q0 96 53 146.5t152 50.5h569q99 0 152 -50.5t53 -146.5t-53 -146t-152 -50h-569q-99 0 -152 50t-53 146z" />
<glyph unicode="`" horiz-adv-x="903" d="M150 1343v87q0 47 18 74.5t46 34t58 2t58 -18.5l348 -172q39 -19 54.5 -45.5t15.5 -65.5v-18q0 -67 -50 -88t-116 -5l-351 86q-34 9 -57.5 47t-23.5 82z" />
<glyph unicode="a" horiz-adv-x="1120" d="M27 326q0 82 34.5 146t93 102t129.5 57.5t150 19.5t205 -20v22q0 44 -48.5 69.5t-133.5 25.5q-155 0 -279 -62q-33 24 -51.5 41.5t-34.5 49t-16 69.5q0 105 125 182.5t334 77.5q112 0 197.5 -23.5t141 -65t90 -102.5t48.5 -130q14 -65 14 -143v-11l-2 -228 q0 -84 25.5 -142.5t58.5 -78.5q-3 -30 -15.5 -60t-38.5 -61.5t-74 -51t-112 -19.5q-86 0 -136.5 38t-82.5 115l-4 2q-16 -55 -83.5 -105t-180.5 -50q-69 0 -131.5 21.5t-112.5 62t-80 106t-30 146.5zM426 362q0 -36 26 -61t68 -25q54 0 86.5 36t32.5 91v37q-59 13 -111 13 q-102 0 -102 -91z" />
<glyph unicode="b" horiz-adv-x="1193" d="M57 375v897q0 109 49 156t164 47h6q115 0 164 -47t49 -156v-301q30 47 97 80.5t159 33.5q190 0 294 -121t104 -368q0 -114 -31 -214t-85 -173t-125.5 -126t-153.5 -79.5t-168 -26.5q-112 0 -187.5 19.5t-140.5 60.5q-39 24 -60.5 39t-51.5 43.5t-45 58t-26.5 75.5 t-11.5 102zM489 375q46 -23 82 -23q24 0 46.5 8.5t44.5 27.5t35.5 58t13.5 93q0 182 -125 182q-97 0 -97 -121v-225z" />
<glyph unicode="c" horiz-adv-x="1021" d="M27 539q0 115 30.5 210.5t84 162.5t125.5 113.5t154.5 68.5t172.5 22q99 0 177.5 -25t125.5 -67.5t71.5 -94t24.5 -108.5q0 -76 -62 -129t-165 -53q-52 70 -145 70q-168 0 -168 -170q0 -80 42.5 -125t125.5 -45q101 0 165 57q90 -5 151.5 -58t61.5 -128 q0 -113 -113.5 -186.5t-279.5 -73.5q-89 0 -171.5 20t-157 64t-130 108t-88 158.5t-32.5 208.5z" />
<glyph unicode="d" horiz-adv-x="1234" d="M47 555q0 120 21.5 213.5t60 156t93.5 103.5t119 58.5t140 17.5q82 0 159.5 -46t104.5 -108v326q0 109 45.5 154t167.5 45h7q122 0 167.5 -45t45.5 -154v-1077q0 -109 -45.5 -154t-167.5 -45h-7q-100 0 -147 29t-59 96q-36 -55 -110 -94t-161 -39q-95 0 -172 31.5 t-137 96.5t-92.5 175.5t-32.5 259.5zM498 553q0 -178 125 -178q47 0 81.5 42t34.5 120v16q0 89 -34 132.5t-82 43.5q-125 0 -125 -176z" />
<glyph unicode="e" horiz-adv-x="1056" d="M27 528q0 269 160 422.5t415 153.5q103 0 185.5 -30t135 -82t80 -119.5t27.5 -145.5q0 -80 -30 -141.5t-83 -97.5t-118.5 -54t-141.5 -18q-149 0 -239 45q0 -59 77 -105.5t179 -46.5q132 0 229 58q42 -20 69 -60t27 -90q0 -51 -26.5 -92.5t-68.5 -67t-96 -42.5 t-105.5 -24t-100.5 -7q-266 0 -420.5 138t-154.5 406zM424 641q93 -29 154 -29q108 0 108 82q0 36 -35 58t-86 22q-49 0 -91.5 -38t-49.5 -95z" />
<glyph unicode="f" horiz-adv-x="940" d="M10 807q0 190 152 190h37v103q0 102 33.5 178t92.5 119.5t132 64.5t159 21q91 0 165 -22t121.5 -71t47.5 -118q0 -62 -28.5 -117.5t-67.5 -73.5q-43 19 -113 19q-118 0 -118 -86v-17h108q100 0 143.5 -43t43.5 -147q0 -100 -43 -133t-144 -33h-98v-442q0 -106 -49 -152.5 t-164 -46.5h-6q-118 0 -165.5 46t-47.5 153v442h-39q-70 0 -111 46t-41 120z" />
<glyph unicode="g" horiz-adv-x="1126" d="M10 -139q0 142 183 182q-142 52 -142 180q0 71 52 119t147 70q-35 15 -66.5 39.5t-61 61.5t-47.5 92t-18 120q0 120 70 208.5t180 130.5t242 42q130 0 242 -51q26 37 48.5 98t32.5 113q117 0 178.5 -49.5t61.5 -139.5q0 -59 -39 -107.5t-94 -76.5q59 -55 59 -168 q0 -86 -30 -153t-78 -108.5t-114 -68t-131 -37t-136 -10.5q-50 0 -74 6q-20 -1 -22 -17q-3 -18 25 -25q10 -3 24 -3h180q97 0 172.5 -14.5t135 -47t91 -89.5t31.5 -138q0 -127 -74 -223t-202.5 -146t-292.5 -50h-64q-212 0 -340.5 65.5t-128.5 194.5zM328 -14q0 -82 211 -82 h36q73 0 119.5 13t46.5 36q0 27 -29 35t-96 8q-171 0 -286 14q-2 -6 -2 -24zM451 713q0 -54 28.5 -82.5t69.5 -28.5t69.5 28.5t28.5 82.5t-28 81t-70 27t-70 -27t-28 -81z" />
<glyph unicode="h" horiz-adv-x="1159" d="M57 199v1077q0 109 45.5 154t167.5 45h6q122 0 167.5 -45t45.5 -154v-410q73 240 308 240q63 0 118 -22t100 -67.5t71 -124.5t26 -183v-508q0 -108 -49.5 -154.5t-165.5 -46.5h-16q-103 0 -154 48t-51 153v370q0 103 -86 103q-45 0 -71.5 -41.5t-29.5 -120.5v-313 q0 -109 -45.5 -154t-167.5 -45h-6q-122 0 -167.5 45t-45.5 154z" />
<glyph unicode="i" horiz-adv-x="573" d="M63 1389q0 105 61 156.5t161 51.5q101 0 163 -51.5t62 -156.5t-61.5 -155t-163.5 -50q-100 0 -161 50t-61 155zM70 199v698q0 109 45.5 154t167.5 45h6q122 0 167.5 -45t45.5 -154v-698q0 -109 -45.5 -154t-167.5 -45h-6q-122 0 -167.5 45t-45.5 154z" />
<glyph unicode="j" horiz-adv-x="595" d="M-162 -150q0 66 21 103q4 0 38 -1t51.5 -0.5t49.5 7t49 19t31 37.5t14 61v815q0 108 50 156.5t151 48.5h22q106 0 158.5 -48.5t52.5 -156.5v-813q0 -251 -87.5 -377.5t-272.5 -126.5q-161 0 -244.5 73t-83.5 203zM80 1411q0 105 65 166t164 61q98 0 164 -61t66 -166 q0 -106 -66 -166.5t-164 -60.5q-99 0 -164 60t-65 167z" />
<glyph unicode="k" horiz-adv-x="1140" d="M57 199v1077q0 109 45.5 154t167.5 45h6q122 0 167.5 -45t45.5 -154v-580q85 109 146 260q28 67 88 103.5t143 36.5h135q53 0 87 -27.5t34 -73.5q0 -67 -76 -184.5t-204 -228.5q138 -157 233 -326q27 -48 38 -78t11 -63q0 -51 -37.5 -83t-105.5 -32h-135 q-64 0 -121.5 39.5t-91.5 112.5q-10 21 -38 83t-51.5 107t-54.5 88v-231q0 -109 -45.5 -154t-167.5 -45h-6q-122 0 -167.5 45t-45.5 154z" />
<glyph unicode="l" horiz-adv-x="559" d="M63 199v1077q0 109 45.5 154t167.5 45h7q122 0 167.5 -45t45.5 -154v-1077q0 -109 -45.5 -154t-167.5 -45h-7q-122 0 -167.5 45t-45.5 154z" />
<glyph unicode="m" horiz-adv-x="1738" d="M57 201v692q0 109 51.5 156t155.5 47q121 0 174 -43.5t54 -171.5q25 86 106.5 155.5t181.5 69.5q108 0 172.5 -48t96.5 -153q48 100 118.5 150.5t178.5 50.5q67 0 127 -23t110 -70t79.5 -127.5t29.5 -185.5v-499q0 -108 -47 -154.5t-160 -46.5h-21q-103 0 -152.5 47.5 t-49.5 153.5v399q0 38 -19 66t-51 28q-80 0 -80 -145v-348q0 -108 -47 -154.5t-160 -46.5h-26q-103 0 -153 47.5t-50 153.5v399q0 38 -25 66t-67 28q-90 0 -90 -145v-348q0 -106 -51.5 -153.5t-159.5 -47.5h-23q-113 0 -158 46t-45 155z" />
<glyph unicode="n" horiz-adv-x="1159" d="M57 199v694q0 109 49 156t164 47q119 0 169 -47t50 -156v-27q73 240 308 240q63 0 118 -22t100 -67.5t71 -124.5t26 -183v-508q0 -108 -49.5 -154.5t-165.5 -46.5h-16q-103 0 -154 48t-51 153v383q0 102 -86 102q-47 0 -74 -46t-27 -132v-309q0 -106 -49 -152.5 t-164 -46.5h-6q-118 0 -165.5 46t-47.5 153z" />
<glyph unicode="o" horiz-adv-x="1161" d="M27 543q0 115 34.5 211t90.5 160t129.5 108.5t149 64t151.5 19.5t151.5 -19.5t148.5 -64t129 -108.5t90 -160t34 -211t-34 -210t-89.5 -157.5t-128.5 -105.5t-148.5 -61.5t-152.5 -18.5t-152.5 18.5t-149 61.5t-129 105.5t-90 157.5t-34.5 210zM457 549q0 -180 123 -180 q122 0 122 180t-122 180q-123 0 -123 -180z" />
<glyph unicode="p" horiz-adv-x="1234" d="M57 -176v1073q0 107 47.5 153t165.5 46h11q101 0 153.5 -41.5t52.5 -100.5v-10q30 65 100 112.5t167 47.5q95 0 172 -31.5t137 -96.5t92.5 -175.5t32.5 -259.5q0 -120 -21.5 -213.5t-60 -156t-93.5 -103.5t-119 -58.5t-140 -17.5q-83 0 -161 45.5t-104 107.5v-321 q0 -109 -49 -156t-164 -47h-6q-115 0 -164 47t-49 156zM496 543q0 -89 34 -132.5t82 -43.5q125 0 125 176q0 178 -125 178q-47 0 -81.5 -42t-34.5 -120v-16z" />
<glyph unicode="q" horiz-adv-x="1234" d="M94 504q0 155 47.5 275t128 191.5t179 107.5t208.5 36q202 0 334 -63q38 -18 63 -33.5t51 -39.5t41 -53t24.5 -72t9.5 -97v-936q0 -109 -49 -156t-164 -47h-6q-115 0 -164 47t-49 156v301q-30 -47 -97 -81t-159 -34q-189 0 -293.5 125t-104.5 373zM526 553 q0 -182 125 -182q97 0 97 121v225q-44 22 -82 22q-24 0 -46.5 -8t-44.5 -27.5t-35.5 -58t-13.5 -92.5z" />
<glyph unicode="r" horiz-adv-x="909" d="M57 199v694q0 109 49 156t164 47q113 0 162 -46.5t49 -148.5q22 44 35.5 68t35.5 54t42.5 44t50 24.5t66.5 10.5t68 -9t59 -30t44.5 -61t16.5 -95q0 -139 -63 -245q-62 22 -166 22q-46 0 -79 -15t-52.5 -39.5t-31 -63t-15 -77.5t-3.5 -92v-198q0 -106 -49 -152.5 t-164 -46.5h-6q-118 0 -165.5 46t-47.5 153z" />
<glyph unicode="s" horiz-adv-x="985" d="M23 197q0 150 98 180q35 -23 110 -44.5t146 -21.5q66 0 88 12.5t22 34.5q0 19 -33.5 34t-136.5 44q-125 35 -191.5 106t-66.5 197q0 109 63 193t171 128t244 44q185 0 293 -64t108 -176q0 -53 -23.5 -97t-72.5 -69q-101 47 -199 47q-57 0 -85 -8.5t-28 -31.5 q0 -24 29.5 -39.5t108.5 -36.5q148 -39 221.5 -109.5t73.5 -181.5q0 -84 -40.5 -152.5t-109 -111.5t-154 -65.5t-180.5 -22.5q-207 0 -331.5 55t-124.5 156z" />
<glyph unicode="t" horiz-adv-x="917" d="M8 838q0 96 43.5 137t112.5 41h33v86q0 178 200 178h29q92 0 147.5 -44t55.5 -134v-86h92q101 0 140.5 -44.5t39.5 -133.5q0 -94 -38.5 -136.5t-141.5 -42.5h-92v-196q0 -69 22.5 -94t71.5 -25q75 0 115 27q14 -27 22 -45t14.5 -51.5t6.5 -73.5q0 -91 -88.5 -150 t-221.5 -59q-179 0 -276.5 98t-97.5 295v274h-33q-68 0 -112 41.5t-44 137.5z" />
<glyph unicode="u" horiz-adv-x="1169" d="M57 387v508q0 108 49.5 154.5t165.5 46.5h17q103 0 154 -48t51 -153v-412q0 -102 86 -102q47 0 73.5 46t26.5 132v338q0 106 49 152.5t164 46.5h6q118 0 165.5 -46t47.5 -153v-694q0 -109 -49 -156t-164 -47q-119 0 -169 47t-50 156v10q-68 -223 -307 -223q-63 0 -118 22 t-100.5 67.5t-71.5 124.5t-26 183z" />
<glyph unicode="v" horiz-adv-x="1183" d="M16 977q0 63 52 91t133 28h80q48 0 87.5 -12t70 -43.5t36.5 -79.5q13 -107 22.5 -174.5t35 -182.5t59.5 -211q34 96 59.5 211t35 182.5t22.5 174.5q6 48 36.5 79.5t70 43.5t87.5 12h80q81 0 132.5 -28t51.5 -91q0 -9 -10 -59q-100 -432 -254 -746q-86 -172 -285 -172h-53 q-198 0 -284 172q-154 314 -254 746q-11 55 -11 59z" />
<glyph unicode="w" horiz-adv-x="1466" d="M20 924q0 74 40 123t124 49h70q173 0 184 -156q0 -285 37 -569h2l64 491q17 65 51 101t100 36h70q66 0 100 -36t51 -101l78 -491q16 127 25.5 269t10.5 221l1 79q11 156 184 156h70q84 0 124 -49t40 -123q0 -27 -4 -50q-3 -45 -11 -120t-39 -254t-71 -297 q-68 -203 -242 -203h-71q-45 0 -81.5 15.5t-63.5 49.5t-46.5 70.5t-36.5 99t-27.5 112t-25.5 130.5q-40 -223 -69 -302q-49 -140 -143 -167q-27 -8 -58 -8h-70q-174 0 -242 203q-40 118 -70 286t-40 277l-10 108q-5 29 -5 50z" />
<glyph unicode="x" horiz-adv-x="1144" d="M55 197q2 8 6 21.5t20 55t35.5 81.5t52.5 93t71 97l-177 356q-19 46 -25.5 78.5t0.5 60.5t37 42t83 14h215q94 0 133 -90l90 -287q24 36 45.5 106.5t30.5 122.5l10 53q9 44 50.5 69.5t107.5 25.5h133q71 0 107 -26q35 -25 34 -67v-3q-1 -44 -24 -101q-6 -20 -19 -54 t-61 -126t-105 -168l182 -356q29 -62 29 -104q0 -91 -133 -91h-227q-99 0 -140 94l-71 258q-22 -39 -42.5 -103.5t-30.5 -109.5l-9 -45q-9 -44 -50.5 -69t-107.5 -25h-133q-70 0 -106 26q-35 25 -35 67q0 43 24 104z" />
<glyph unicode="y" horiz-adv-x="1191" d="M20 977q0 63 52 91t133 28h80q84 0 133.5 -31t60.5 -104q3 -18 12.5 -77.5t14.5 -89.5t16 -89.5t20.5 -104.5t23.5 -106t30 -121q19 71 34 136.5t29 139.5t20 105t19.5 117t14.5 90q11 73 60.5 104t133.5 31h80q81 0 132.5 -28t51.5 -91q0 -9 -10 -59 q-132 -610 -377 -1162q-34 -74 -74.5 -110.5t-117.5 -36.5h-111q-77 0 -121.5 37t-44.5 104q0 31 23 78l100 195q-90 35 -153 149q-99 179 -152 343.5t-102 402.5q-11 55 -11 59z" />
<glyph unicode="z" horiz-adv-x="1015" d="M16 887q0 104 47 150t138 46h524q139 0 195.5 -57t56.5 -168q0 -124 -80 -192l-319 -271h253q89 0 131 -43.5t42 -148.5q0 -106 -43 -154.5t-130 -48.5h-610q-98 0 -146 55t-48 150q0 87 65 166q52 63 181.5 166.5t172.5 146.5h-245q-185 0 -185 203z" />
<glyph unicode="{" horiz-adv-x="1034" d="M78 498q0 93 56 148.5t165 55.5h53q-22 53 -22 158v314q0 160 89.5 230.5t278.5 70.5h74q92 0 138 -42t46 -141q0 -91 -48.5 -123t-145.5 -32v-432q0 -48 -14.5 -81.5t-49 -57.5t-64 -36.5t-87.5 -31.5q58 -19 87.5 -31.5t64 -36.5t49 -57.5t14.5 -81.5v-434 q97 0 145.5 -32.5t48.5 -123.5q0 -99 -46 -140.5t-138 -41.5h-74q-189 0 -278.5 70.5t-89.5 230.5v315q0 105 22 158h-53q-109 0 -165 56t-56 149z" />
<glyph unicode="|" horiz-adv-x="587" d="M98 -109v1340q0 116 41.5 169.5t151.5 53.5q114 0 156 -53.5t42 -169.5v-1340q0 -113 -41 -166t-151 -53h-6q-113 0 -153 52.5t-40 166.5z" />
<glyph unicode="}" horiz-adv-x="1034" d="M78 -299q0 91 48.5 123.5t145.5 32.5v432q0 48 14.5 81.5t49 57.5t64 36.5t87.5 31.5q-39 13 -59.5 20.5t-50 21t-45 27t-31.5 33.5t-22.5 46t-6.5 58v435q-97 0 -145.5 32t-48.5 123q0 99 46 141t138 42h74q190 0 279.5 -70.5t89.5 -230.5v-316q0 -103 -23 -158h53 q109 0 165 -55.5t56 -148.5t-56 -149t-165 -56h-53q23 -55 23 -158v-313q0 -160 -89.5 -230.5t-279.5 -70.5h-74q-92 0 -138 41.5t-46 140.5z" />
<glyph unicode="~" horiz-adv-x="1138" d="M78 637q0 90 43 143q69 88 207 88q108 0 274 -59q115 -41 229 -41q48 0 105 37q35 23 80 -29.5t45 -118.5q0 -90 -43 -143q-69 -88 -207 -88q-99 0 -274 59q-122 41 -230 41q-47 0 -104 -37q-35 -23 -80 29.5t-45 118.5z" />
<glyph unicode="&#xa1;" horiz-adv-x="653" d="M78 1167q0 66 21 114t58 73.5t79 37t92 11.5q47 0 88.5 -11.5t78.5 -37t58.5 -73.5t21.5 -114q0 -64 -21.5 -111t-58.5 -72.5t-78.5 -37.5t-88.5 -12q-49 0 -91.5 12t-79 37.5t-58 72.5t-21.5 111zM92 203l62 471q19 178 155 178h35q137 0 156 -178l61 -471 q10 -107 -42.5 -155t-170.5 -48h-43q-118 0 -170.5 48t-42.5 155z" />
<glyph unicode="&#xa2;" horiz-adv-x="1048" d="M31 539q0 132 40 238t109.5 175.5t158 109.5t191.5 50q10 47 31 119q26 102 146 102q50 0 78 -18t28 -51q0 -16 -10 -58q-6 -20 -16 -58t-15 -56q117 -34 181.5 -109t64.5 -162q0 -76 -62 -129t-165 -53q-21 40 -66 61t-100 21q-85 0 -126.5 -49.5t-41.5 -132.5 q0 -80 42.5 -125t125.5 -45q102 0 166 57q90 -5 151.5 -58t61.5 -128q0 -113 -114 -186.5t-280 -73.5q-29 0 -41 2q-5 -22 -14 -58.5t-12 -50.5q-26 -102 -146 -102q-50 0 -78 18t-28 51q0 16 10 58q7 30 19.5 76.5t15.5 60.5q-140 63 -222.5 188.5t-82.5 315.5z" />
<glyph unicode="&#xa3;" horiz-adv-x="1333" d="M96 215q0 106 52 160.5t141 54.5h20v143h-100q-61 0 -87 22t-26 83q0 101 105 104h108v99q0 226 151 361.5t425 135.5q92 0 178 -28.5t146.5 -89t60.5 -140.5q0 -65 -32 -122.5t-89 -82.5q-24 14 -93.5 26.5t-115.5 12.5q-77 0 -121.5 -31t-44.5 -108v-33h205 q59 0 86 -23.5t27 -80.5q0 -102 -113 -105h-205v-143h297q89 0 141 -54.5t52 -160.5q0 -105 -52.5 -160t-140.5 -55h-782q-193 17 -193 215z" />
<glyph unicode="&#xa4;" horiz-adv-x="1243" d="M83.5 328.5q-1.5 53.5 61.5 115.5l66 66q-29 82 -29 178t29 178l-66 66q-63 62 -61.5 115.5t66.5 119.5q67 67 122.5 70t116.5 -59l68 -68q91 31 180 31t180 -31l68 68q61 62 116.5 59t122.5 -70q65 -66 66 -119.5t-62 -115.5l-65 -66q29 -82 29 -178t-29 -178l65 -66 q63 -62 62 -115.5t-66 -119.5q-67 -67 -122.5 -69.5t-116.5 59.5l-68 67q-89 -30 -180 -30t-180 30l-68 -67q-61 -62 -116.5 -59.5t-122.5 69.5q-65 66 -66.5 119.5zM461 688q0 -57 16.5 -99t43.5 -64t56 -32t60 -10t60 10t56 32t43.5 64t16.5 99t-16.5 99t-43.5 64t-56 32 t-60 10t-60 -10t-56 -32t-43.5 -64t-16.5 -99z" />
<glyph unicode="&#xa5;" horiz-adv-x="1316" d="M63 1133q-80 239 140 239h135q83 0 122 -45.5t68 -142.5q11 -37 30.5 -105t30.5 -105.5t29.5 -92t38.5 -103.5h2q20 49 38.5 103.5t29.5 92t30.5 105.5t30.5 105q14 47 27.5 77t34.5 57.5t53 40.5t76 13h135q219 0 139 -239q-91 -269 -217 -490h76q45 0 65.5 -19 t20.5 -63q-3 -77 -86 -80h-176q-5 -7 -15.5 -22.5t-15.5 -22.5h207q45 0 65.5 -19t20.5 -63q-3 -77 -86 -80h-213v-75q0 -106 -49 -152.5t-164 -46.5h-61q-118 0 -165.5 46t-47.5 153v75h-207q-45 0 -65.5 19t-20.5 65q0 75 80 78h211q-23 32 -31 45h-174q-45 0 -65.5 19 t-20.5 65q0 75 80 78h80q-131 226 -216 490z" />
<glyph unicode="&#xa6;" horiz-adv-x="505" d="M57 156v258q0 116 41.5 169.5t151.5 53.5q114 0 156.5 -53.5t42.5 -169.5v-258q0 -113 -41.5 -166t-151.5 -53h-6q-113 0 -153 52.5t-40 166.5zM57 973v258q0 116 41.5 169.5t151.5 53.5q114 0 156.5 -53.5t42.5 -169.5v-258q0 -113 -41.5 -166t-151.5 -53h-6 q-113 0 -153 52.5t-40 166.5z" />
<glyph unicode="&#xa7;" horiz-adv-x="1280" d="M20 -266q0 158 127 229q50 -35 182 -80t249 -45q40 0 66 14t26 42q0 22 -23.5 35.5t-109.5 29.5q-246 46 -367 151.5t-121 301.5q0 197 135 323q-37 78 -37 191q0 212 152 339.5t397 127.5q151 0 263.5 -29t181.5 -95.5t69 -164.5q0 -61 -31.5 -119.5t-88.5 -87.5 q-177 92 -361 92q-100 0 -100 -55q0 -11 13 -21.5t45 -22.5t66 -22.5t96.5 -30.5t115.5 -38q162 -56 228.5 -142t66.5 -223q0 -186 -150 -311q51 -77 51 -203q0 -193 -165 -324t-431 -131q-145 0 -268 32t-200 94.5t-77 142.5zM489 434q0 -43 54.5 -72.5t132.5 -29.5 q133 0 133 61q0 44 -54 73.5t-132 29.5q-33 -1 -51.5 -2.5t-40.5 -7.5t-32 -19t-10 -33z" />
<glyph unicode="&#xa8;" horiz-adv-x="917" d="M59 1272q0 87 50 124.5t124 37.5t123.5 -37.5t49.5 -124.5t-49.5 -124.5t-123.5 -37.5t-124 37.5t-50 124.5zM512 1272q0 87 50 124.5t124 37.5q73 0 122.5 -37.5t49.5 -124.5t-49.5 -124.5t-122.5 -37.5q-74 0 -124 37.5t-50 124.5z" />
<glyph unicode="&#xa9;" horiz-adv-x="1636" d="M82 713q0 161 58 299.5t157 234t234 149.5t286 54t286 -54t234.5 -149.5t158 -234t58.5 -299.5t-58.5 -299.5t-158 -233.5t-234.5 -149t-286 -54t-286 54t-234 149t-157 233.5t-58 299.5zM250 713q0 -163 76.5 -294t205.5 -202.5t285 -71.5t285.5 71.5t206.5 202.5 t77 294t-77 294.5t-206.5 203t-285.5 71.5t-285 -72t-205.5 -203t-76.5 -294zM399 709q0 111 36.5 198t98.5 139.5t139.5 79.5t164.5 27q149 0 228 -66t79 -157q0 -59 -48 -100.5t-128 -41.5q-34 52 -111 52q-131 0 -131 -131q0 -60 33.5 -94.5t97.5 -34.5q83 0 127 47 q70 -5 118 -46.5t48 -99.5q0 -86 -88 -142t-215 -56q-87 0 -165 25t-142.5 74.5t-103 133.5t-38.5 193z" />
<glyph unicode="&#xab;" horiz-adv-x="1462" d="M61 508q0 74 52 131l321 319q58 59 110 58t115 -62l25 -24q63 -63 63.5 -115t-59.5 -110l-194 -197l194 -197q60 -58 59.5 -111t-63.5 -114l-25 -27q-63 -60 -115 -60.5t-110 58.5l-321 320q-52 57 -52 131zM713 508q0 75 51 131l321 319q58 59 110.5 58t115.5 -62 l24 -24q63 -63 63.5 -115t-59.5 -110l-194 -197l194 -197q60 -58 59.5 -111t-63.5 -114l-24 -27q-63 -60 -115.5 -60.5t-110.5 58.5l-321 320q-51 56 -51 131z" />
<glyph unicode="&#xad;" horiz-adv-x="1134" d="M78 621q0 96 53 146t152 50h569q99 0 152 -50t53 -146t-53 -146.5t-152 -50.5h-569q-99 0 -152 50.5t-53 146.5z" />
<glyph unicode="&#xae;" horiz-adv-x="1636" d="M82 713q0 161 58 299.5t157 234t234 149.5t286 54t286 -54t234.5 -149.5t158 -234t58.5 -299.5t-58.5 -299.5t-158 -233.5t-234.5 -149t-286 -54t-286 54t-234 149t-157 233.5t-58 299.5zM250 713q0 -163 76.5 -294t205.5 -202.5t285 -71.5t285.5 71.5t206.5 202.5 t77 294t-77 294.5t-206.5 203t-285.5 71.5t-285 -72t-205.5 -203t-76.5 -294zM469 422v590q0 68 29.5 96.5t99.5 28.5h262q161 0 250.5 -82t89.5 -207q0 -148 -117 -205q9 -52 60 -104t104 -66q0 -67 -51.5 -125.5t-138.5 -58.5q-86 0 -135 45t-86 137l-45 113h-37v-162 q0 -64 -30.5 -91.5t-100.5 -27.5h-25q-71 0 -100 27t-29 92zM754 768h75q36 0 60 16.5t24 49.5q0 61 -84 61h-75v-127z" />
<glyph unicode="&#xaf;" horiz-adv-x="1050" d="M119 1249q0 73 35 105t108 32h526q73 0 108.5 -32t35.5 -105t-35.5 -105t-108.5 -32h-526q-73 0 -108 32t-35 105z" />
<glyph unicode="&#xb0;" horiz-adv-x="606" d="M57 1319q0 106 68 169.5t172 63.5t172 -63.5t68 -169.5t-68 -169t-172 -63t-172 63t-68 169zM211 1319q0 -38 24.5 -61t61.5 -23t61.5 23t24.5 61q0 39 -24.5 62.5t-61.5 23.5t-61.5 -23.5t-24.5 -62.5z" />
<glyph unicode="&#xb1;" horiz-adv-x="1155" d="M78 203q0 99 47.5 144.5t144.5 47.5h602q108 0 156.5 -46.5t48.5 -155.5q-3 -180 -205 -193h-589q-107 0 -156 46.5t-49 156.5zM78 887q0 109 43.5 154t157.5 44h83v72q0 98 50 148t161 47h9q116 0 162.5 -48.5t43.5 -146.5v-72h84q114 0 158.5 -46t44.5 -152 q3 -105 -42 -152t-161 -47h-84v-84q0 -95 -47 -136.5t-166 -41.5q-121 0 -168.5 42t-44.5 136v84h-83q-114 0 -157.5 46.5t-43.5 152.5z" />
<glyph unicode="&#xb2;" horiz-adv-x="753" d="M78 752q0 74 96 151q131 104 151 126q17 19 17 32q0 45 -70 45q-68 0 -127 -27q-65 24 -65 109q0 82 83 133t202 51q128 0 206 -58.5t78 -162.5q0 -44 -12 -79.5t-45 -74.5t-64.5 -67t-97.5 -82h125q121 0 121 -115q0 -121 -121 -121h-315q-78 0 -120 36.5t-42 103.5z " />
<glyph unicode="&#xb3;" horiz-adv-x="765" d="M78 735q0 86 78 127q112 -31 190 -31q33 0 51.5 10t18.5 25q0 25 -60 25h-51q-34 0 -54 17.5t-20 64.5q0 48 20 66t54 18h47q60 0 60 26q0 17 -21.5 28t-54.5 11q-85 0 -143 -28q-76 22 -76 118q0 22 13 47t41 51.5t84 44t130 17.5q125 0 202 -57t77 -148 q0 -108 -136 -172q28 -9 40.5 -14t40 -20t41.5 -30t26 -42t12 -60q0 -97 -90 -164t-227 -67q-130 0 -211.5 36.5t-81.5 100.5z" />
<glyph unicode="&#xb4;" horiz-adv-x="903" d="M150 1221v18q0 39 15 65.5t54 45.5l348 172q28 14 58 18.5t58.5 -2t46.5 -34t18 -74.5v-87q0 -44 -24 -82t-58 -47l-351 -86q-66 -16 -115.5 5t-49.5 88z" />
<glyph unicode="&#xb5;" horiz-adv-x="1169" d="M57 -199v1094q0 108 49.5 154.5t165.5 46.5h13q103 0 153.5 -48t50.5 -153v-383q0 -68 26 -99.5t65 -31.5q47 0 73.5 46t26.5 132v338q0 106 49 152.5t164 46.5h6q118 0 165.5 -46t47.5 -153v-694q0 -109 -49 -156t-164 -47q-119 0 -169 47t-50 156v10q-11 -36 -17.5 -54 t-24 -53.5t-36 -54t-49.5 -34t-68 -15.5l4 -201q12 -104 -41.5 -151t-171.5 -47h-6q-118 0 -165.5 45.5t-47.5 152.5z" />
<glyph unicode="&#xb6;" horiz-adv-x="1122" d="M45 977q0 222 134.5 349.5t402.5 127.5h270q115 0 164 -47t49 -156v-1052q0 -107 -47.5 -153t-165.5 -46h-41q-115 0 -164 46.5t-49 152.5v301h-16q-268 0 -402.5 127.5t-134.5 349.5z" />
<glyph unicode="&#xb7;" horiz-adv-x="704" d="M102 614q0 65 21.5 112t58.5 72t79 36.5t91 11.5t91 -11.5t79 -36.5t58.5 -72t21.5 -112t-21.5 -112t-58.5 -71.5t-79 -36t-91 -11.5t-91 11.5t-79 36t-58.5 71.5t-21.5 112z" />
<glyph unicode="&#xb8;" horiz-adv-x="841" d="M121 -240q0 55 34.5 85t63.5 30q32 -51 133 -51q40 0 65 11.5t25 29.5q0 37 -69 37h-6q-17 0 -25 8.5t-4 21.5q2 6 15.5 42.5t19.5 54.5h184q-2 -9 -14.5 -38.5t-14.5 -35.5h13q65 0 103 -42t38 -108q0 -114 -83 -175.5t-210 -61.5q-117 0 -192.5 51.5t-75.5 140.5z" />
<glyph unicode="&#xb9;" horiz-adv-x="585" d="M78 1239q0 66 32 99.5t107 33.5h141q71 0 110.5 -33.5t39.5 -99.5v-498q0 -70 -40.5 -105.5t-115.5 -35.5q-139 0 -139 141v363q-76 0 -105.5 30.5t-29.5 104.5z" />
<glyph unicode="&#xbb;" horiz-adv-x="1462" d="M63.5 201q-0.5 52 59.5 110l194 197l-194 197q-60 58 -59.5 111t63.5 114l25 26q63 60 115 60.5t110 -58.5l321 -319q52 -57 52 -131t-52 -131l-321 -320q-58 -59 -110 -58t-115 62l-25 25q-63 63 -63.5 115zM714.5 201q-0.5 52 59.5 110l195 197l-195 197 q-60 58 -59.5 111t63.5 114l25 26q63 60 115 60.5t110 -58.5l322 -319q51 -56 51 -131t-51 -131l-322 -320q-58 -59 -110 -58t-115 62l-25 25q-63 63 -63.5 115z" />
<glyph unicode="&#xbf;" horiz-adv-x="1179" d="M78 356q0 60 21 110.5t49.5 82.5t73.5 61t75.5 42.5t73.5 29.5q0 79 72 129.5t180 50.5h2q221 0 221 -139q0 -27 -11.5 -52.5t-25 -41.5t-38.5 -34t-37 -24.5l-36 -19.5q-74 -39 -100.5 -59.5t-26.5 -40.5q0 -26 39.5 -42t96.5 -16q78 0 152.5 22.5t113.5 53.5 q129 -75 129 -205q0 -61 -33 -111.5t-85.5 -83.5t-118.5 -56.5t-129.5 -33.5t-121.5 -10q-236 0 -386 107.5t-150 279.5zM375 1171q0 66 21 114t58 73.5t79 37t92 11.5q47 0 88.5 -11.5t78.5 -37t58.5 -73.5t21.5 -114q0 -64 -21.5 -111t-58.5 -72.5t-78.5 -37.5t-88.5 -12 q-49 0 -91.5 12t-79 37.5t-58 72.5t-21.5 111z" />
<glyph unicode="&#xc0;" d="M41 135q0 22 12 72q3 12 23.5 102t26 111.5t25 102.5t29 113t29 103t35 113t36.5 101.5t43.5 110.5t47.5 101q48 98 124.5 152.5t205.5 54.5h65q129 0 205.5 -54.5t124.5 -152.5q25 -50 47.5 -101t43.5 -110.5t36.5 -101.5t35 -113t29 -103t29 -113t25 -102.5t26 -111.5 t23.5 -102q12 -50 12 -72q0 -141 -221 -141h-96q-101 0 -160.5 37t-73.5 125q-5 26 -18 147h-201q-9 -83 -18 -147q-14 -88 -73.5 -125t-160.5 -37h-96q-221 0 -221 141zM412 1692v86q0 47 18 74.5t46 34t58 2t58 -18.5l348 -172q39 -19 54.5 -45.5t15.5 -65.5v-18 q0 -46 -26 -71.5t-63 -26.5t-77 6l-350 86q-34 9 -58 47t-24 82zM641 571h139q-31 223 -69 369q-47 -179 -70 -369z" />
<glyph unicode="&#xc1;" d="M41 135q0 22 12 72q3 12 23.5 102t26 111.5t25 102.5t29 113t29 103t35 113t36.5 101.5t43.5 110.5t47.5 101q48 98 124.5 152.5t205.5 54.5h65q129 0 205.5 -54.5t124.5 -152.5q25 -50 47.5 -101t43.5 -110.5t36.5 -101.5t35 -113t29 -103t29 -113t25 -102.5t26 -111.5 t23.5 -102q12 -50 12 -72q0 -141 -221 -141h-96q-101 0 -160.5 37t-73.5 125q-5 26 -18 147h-201q-9 -83 -18 -147q-14 -88 -73.5 -125t-160.5 -37h-96q-221 0 -221 141zM412 1569v18q0 39 15 65.5t54 45.5l348 172q28 14 58 18.5t58.5 -2t46.5 -34t18 -74.5v-86 q0 -44 -24 -82t-58 -47l-350 -86q-40 -7 -77 -6t-63 26.5t-26 71.5zM641 571h139q-31 223 -69 369q-47 -179 -70 -369z" />
<glyph unicode="&#xc2;" d="M41 135q0 22 12 72q3 12 23.5 102t26 111.5t25 102.5t29 113t29 103t35 113t36.5 101.5t43.5 110.5t47.5 101q48 98 124.5 152.5t205.5 54.5h65q129 0 205.5 -54.5t124.5 -152.5q25 -50 47.5 -101t43.5 -110.5t36.5 -101.5t35 -113t29 -103t29 -113t25 -102.5t26 -111.5 t23.5 -102q12 -50 12 -72q0 -141 -221 -141h-96q-101 0 -160.5 37t-73.5 125q-5 26 -18 147h-201q-9 -83 -18 -147q-14 -88 -73.5 -125t-160.5 -37h-96q-221 0 -221 141zM348 1604q0 37 24 63t74 59l144 97q46 30 121 30q78 0 120 -30l142 -97q36 -24 52.5 -37t32 -36 t15.5 -49q0 -67 -42.5 -104.5t-88.5 -37.5q-54 0 -88 21l-143 90l-144 -90q-34 -21 -88 -21q-46 0 -88.5 37.5t-42.5 104.5zM641 571h139q-31 223 -69 369q-47 -179 -70 -369z" />
<glyph unicode="&#xc3;" d="M41 135q0 22 12 72q3 12 23.5 102t26 111.5t25 102.5t29 113t29 103t35 113t36.5 101.5t43.5 110.5t47.5 101q48 98 124.5 152.5t205.5 54.5h65q129 0 205.5 -54.5t124.5 -152.5q25 -50 47.5 -101t43.5 -110.5t36.5 -101.5t35 -113t29 -103t29 -113t25 -102.5t26 -111.5 t23.5 -102q12 -50 12 -72q0 -141 -221 -141h-96q-101 0 -160.5 37t-73.5 125q-5 26 -18 147h-201q-9 -83 -18 -147q-14 -88 -73.5 -125t-160.5 -37h-96q-221 0 -221 141zM373 1573q0 82 33 123q46 71 155 71q76 0 174 -41q51 -21 76 -26.5t63 -5.5q39 0 74 28 q28 20 64.5 -22t36.5 -96q0 -78 -33 -123q-47 -70 -158 -70q-66 0 -172 41q-54 21 -79.5 27t-61.5 6q-32 0 -74 -29q-26 -20 -62 22.5t-36 94.5zM641 571h139q-31 223 -69 369q-47 -179 -70 -369z" />
<glyph unicode="&#xc4;" d="M41 135q0 22 12 72q3 12 23.5 102t26 111.5t25 102.5t29 113t29 103t35 113t36.5 101.5t43.5 110.5t47.5 101q48 98 124.5 152.5t205.5 54.5h65q129 0 205.5 -54.5t124.5 -152.5q25 -50 47.5 -101t43.5 -110.5t36.5 -101.5t35 -113t29 -103t29 -113t25 -102.5t26 -111.5 t23.5 -102q12 -50 12 -72q0 -141 -221 -141h-96q-101 0 -160.5 37t-73.5 125q-5 26 -18 147h-201q-9 -83 -18 -147q-14 -88 -73.5 -125t-160.5 -37h-96q-221 0 -221 141zM311 1620q0 87 50 124.5t124 37.5q73 0 122.5 -37.5t49.5 -124.5t-49.5 -124.5t-122.5 -37.5 q-74 0 -124 37.5t-50 124.5zM641 571h139q-31 223 -69 369q-47 -179 -70 -369zM764 1620q0 87 50 124.5t124 37.5q73 0 122.5 -37.5t49.5 -124.5t-49.5 -124.5t-122.5 -37.5q-74 0 -124 37.5t-50 124.5z" />
<glyph unicode="&#xc5;" d="M41 135q0 22 12 72q3 12 23.5 102t26 111.5t25 102.5t29 113t29 103t35 113t36.5 101.5t43.5 110.5t47.5 101q48 98 124.5 152.5t205.5 54.5h65q129 0 205.5 -54.5t124.5 -152.5q25 -50 47.5 -101t43.5 -110.5t36.5 -101.5t35 -113t29 -103t29 -113t25 -102.5t26 -111.5 t23.5 -102q12 -50 12 -72q0 -141 -221 -141h-96q-101 0 -160.5 37t-73.5 125q-5 26 -18 147h-201q-9 -83 -18 -147q-14 -88 -73.5 -125t-160.5 -37h-96q-221 0 -221 141zM471 1636q0 106 68 170t172 64t171.5 -63.5t67.5 -170.5q0 -106 -67.5 -168.5t-171.5 -62.5t-172 62.5 t-68 168.5zM641 571h139q-31 223 -69 369q-47 -179 -70 -369zM649 1636q0 -31 17 -49t45 -18t44.5 18t16.5 49t-16.5 49.5t-44.5 18.5t-45 -18.5t-17 -49.5z" />
<glyph unicode="&#xc7;" horiz-adv-x="1333" d="M51 678q0 179 55 318.5t150.5 224.5t217.5 128.5t263 43.5q222 0 358 -93t136 -231q0 -58 -23 -101.5t-62.5 -69t-82 -39.5t-92.5 -21q-27 53 -85 82.5t-132 29.5q-111 0 -167.5 -73.5t-56.5 -196.5q0 -119 58.5 -188.5t165.5 -69.5q130 0 215 104q102 -12 181 -74.5 t79 -160.5q0 -130 -118.5 -214t-307.5 -95q-6 -15 -10 -27h12q65 0 103 -42t38 -108q0 -114 -83 -175.5t-210 -61.5q-117 0 -192.5 51.5t-75.5 140.5q0 55 34.5 85t63.5 30q32 -51 133 -51q41 0 66 11.5t25 29.5q0 37 -70 37h-6q-17 0 -25 8.5t-4 21.5q2 8 10 28.5t11 29.5 q-119 17 -220 66t-181 131t-125.5 208t-45.5 283z" />
<glyph unicode="&#xc8;" horiz-adv-x="1185" d="M102 199v970q0 109 49 156t164 47h617q90 0 141 -52t51 -157t-51.5 -157t-140.5 -52h-363v-102h193q95 0 143.5 -34.5t48.5 -129.5q0 -94 -49 -129t-143 -35h-193v-106h383q90 0 141.5 -52t51.5 -157t-52 -157t-141 -52h-637q-118 0 -165.5 46t-47.5 153zM293 1692v86 q0 47 18 74.5t46 34t58 2t58 -18.5l348 -172q39 -19 54.5 -45.5t15.5 -65.5v-18q0 -46 -26 -71.5t-63 -26.5t-77 6l-350 86q-34 9 -58 47t-24 82z" />
<glyph unicode="&#xc9;" horiz-adv-x="1185" d="M102 199v970q0 109 49 156t164 47h617q90 0 141 -52t51 -157t-51.5 -157t-140.5 -52h-363v-102h193q95 0 143.5 -34.5t48.5 -129.5q0 -94 -49 -129t-143 -35h-193v-106h383q90 0 141.5 -52t51.5 -157t-52 -157t-141 -52h-637q-118 0 -165.5 46t-47.5 153zM293 1569v18 q0 39 15 65.5t54 45.5l349 172q28 14 58 18.5t58 -2t46 -34t18 -74.5v-86q0 -44 -24 -82t-58 -47l-350 -86q-40 -7 -77 -6t-63 26.5t-26 71.5z" />
<glyph unicode="&#xca;" horiz-adv-x="1185" d="M102 199v970q0 109 49 156t164 47h617q90 0 141 -52t51 -157t-51.5 -157t-140.5 -52h-363v-102h193q95 0 143.5 -34.5t48.5 -129.5q0 -94 -49 -129t-143 -35h-193v-106h383q90 0 141.5 -52t51.5 -157t-52 -157t-141 -52h-637q-118 0 -165.5 46t-47.5 153zM229 1604 q0 37 24.5 63t74.5 59l143 97q46 30 121 30q79 0 121 -30l141 -97q36 -24 52.5 -37t32 -36t15.5 -49q0 -67 -42.5 -104.5t-88.5 -37.5q-54 0 -88 21l-143 90l-143 -90q-34 -21 -89 -21q-46 0 -88.5 37.5t-42.5 104.5z" />
<glyph unicode="&#xcb;" horiz-adv-x="1185" d="M102 199v970q0 109 49 156t164 47h617q90 0 141 -52t51 -157t-51.5 -157t-140.5 -52h-363v-102h193q95 0 143.5 -34.5t48.5 -129.5q0 -94 -49 -129t-143 -35h-193v-106h383q90 0 141.5 -52t51.5 -157t-52 -157t-141 -52h-637q-118 0 -165.5 46t-47.5 153zM193 1620 q0 87 50 124.5t124 37.5q73 0 122.5 -37.5t49.5 -124.5t-49.5 -124.5t-122.5 -37.5q-74 0 -124 37.5t-50 124.5zM645 1620q0 87 50 124.5t124 37.5q73 0 122.5 -37.5t49.5 -124.5t-49.5 -124.5t-122.5 -37.5q-74 0 -124 37.5t-50 124.5z" />
<glyph unicode="&#xcc;" horiz-adv-x="671" d="M37 1692v86q0 47 18 74.5t46 34t58 2t58 -18.5l348 -172q39 -19 54.5 -45.5t15.5 -65.5v-18q0 -46 -26 -71.5t-63 -26.5t-77 6l-350 86q-34 9 -58 47t-24 82zM102 199v970q0 109 49 156t164 47h41q115 0 164 -47t49 -156v-970q0 -106 -49 -152.5t-164 -46.5h-41 q-118 0 -165.5 46t-47.5 153z" />
<glyph unicode="&#xcd;" horiz-adv-x="671" d="M37 1569v18q0 39 15 65.5t54 45.5l349 172q28 14 58 18.5t58 -2t46 -34t18 -74.5v-86q0 -44 -24 -82t-58 -47l-350 -86q-40 -7 -77 -6t-63 26.5t-26 71.5zM102 199v970q0 109 49 156t164 47h41q115 0 164 -47t49 -156v-970q0 -106 -49 -152.5t-164 -46.5h-41 q-118 0 -165.5 46t-47.5 153z" />
<glyph unicode="&#xce;" horiz-adv-x="831" d="M55 1604q0 37 24.5 63t74.5 59l143 97q46 30 121 30q79 0 121 -30l141 -97q36 -24 52.5 -37t32 -36t15.5 -49q0 -67 -42.5 -104.5t-88.5 -37.5q-54 0 -88 21l-143 90l-144 -90q-34 -21 -88 -21q-46 0 -88.5 37.5t-42.5 104.5zM184 199v970q0 109 49 156t164 47h41 q115 0 164 -47t49 -156v-970q0 -106 -49 -152.5t-164 -46.5h-41q-118 0 -165.5 46t-47.5 153z" />
<glyph unicode="&#xcf;" horiz-adv-x="831" d="M18 1620q0 87 50.5 124.5t124.5 37.5q73 0 122.5 -37.5t49.5 -124.5t-49.5 -124.5t-122.5 -37.5q-74 0 -124.5 37.5t-50.5 124.5zM184 199v970q0 109 49 156t164 47h41q115 0 164 -47t49 -156v-970q0 -106 -49 -152.5t-164 -46.5h-41q-118 0 -165.5 46t-47.5 153z M471 1620q0 87 50 124.5t124 37.5q73 0 122.5 -37.5t49.5 -124.5t-49.5 -124.5t-122.5 -37.5q-74 0 -124 37.5t-50 124.5z" />
<glyph unicode="&#xd1;" horiz-adv-x="1486" d="M102 199v970q0 109 49 156t164 47h84q80 0 129.5 -34t89.5 -99l328 -555v485q0 110 46.5 156.5t160.5 46.5h25q114 0 160 -46.5t46 -156.5v-970q0 -106 -49 -152.5t-164 -46.5h-45q-165 0 -247 121l-353 516v-438q0 -107 -46.5 -153t-160.5 -46h-10q-117 0 -162 45.5 t-45 153.5zM406 1645q0 82 32 122q47 72 156 72q76 0 174 -41q52 -21 77 -27t62 -6q38 0 74 29q28 20 64 -22.5t36 -96.5q0 -80 -32 -123q-46 -69 -158 -69q-66 0 -172 41q-53 20 -78.5 26t-62.5 6q-34 0 -74 -28q-26 -20 -62 22.5t-36 94.5z" />
<glyph unicode="&#xd2;" horiz-adv-x="1472" d="M51 686q0 155 42 279t110 202.5t159 130.5t183.5 73.5t189.5 21.5q98 0 190.5 -21.5t184 -73.5t159.5 -130.5t110 -202.5t42 -279t-42.5 -279t-110 -202t-159 -130.5t-183.5 -73.5t-189 -21t-189.5 21t-184 73.5t-159.5 130.5t-110.5 202t-42.5 279zM436 1692v86 q0 47 18 74.5t46 34t58 2t58 -18.5l349 -172q39 -19 54 -45.5t15 -65.5v-18q0 -46 -26 -71.5t-63 -26.5t-77 6l-350 86q-34 9 -58 47t-24 82zM530 686q0 -74 18 -128.5t49 -83.5t65 -42.5t73 -13.5t74 13.5t66 42.5t49 83.5t18 128.5t-18 128t-49 83t-65.5 42t-74.5 13 q-39 0 -73 -13t-65 -42t-49 -83t-18 -128z" />
<glyph unicode="&#xd3;" horiz-adv-x="1472" d="M51 686q0 155 42 279t110 202.5t159 130.5t183.5 73.5t189.5 21.5q98 0 190.5 -21.5t184 -73.5t159.5 -130.5t110 -202.5t42 -279t-42.5 -279t-110 -202t-159 -130.5t-183.5 -73.5t-189 -21t-189.5 21t-184 73.5t-159.5 130.5t-110.5 202t-42.5 279zM436 1569v18 q0 39 15.5 65.5t54.5 45.5l348 172q28 14 58 18.5t58 -2t46 -34t18 -74.5v-86q0 -44 -24 -82t-58 -47l-350 -86q-40 -7 -77 -6t-63 26.5t-26 71.5zM530 686q0 -74 18 -128.5t49 -83.5t65 -42.5t73 -13.5t74 13.5t66 42.5t49 83.5t18 128.5t-18 128t-49 83t-65.5 42t-74.5 13 q-39 0 -73 -13t-65 -42t-49 -83t-18 -128z" />
<glyph unicode="&#xd4;" horiz-adv-x="1472" d="M51 686q0 155 42 279t110 202.5t159 130.5t183.5 73.5t189.5 21.5q98 0 190.5 -21.5t184 -73.5t159.5 -130.5t110 -202.5t42 -279t-42.5 -279t-110 -202t-159 -130.5t-183.5 -73.5t-189 -21t-189.5 21t-184 73.5t-159.5 130.5t-110.5 202t-42.5 279zM373 1604q0 37 24 63 t74 59l143 97q46 30 121 30q79 0 121 -30l141 -97q36 -25 52.5 -37.5t32.5 -35.5t16 -49q0 -67 -42.5 -104.5t-88.5 -37.5q-54 0 -88 21l-144 90l-143 -90q-34 -21 -88 -21q-46 0 -88.5 37.5t-42.5 104.5zM530 686q0 -74 18 -128.5t49 -83.5t65 -42.5t73 -13.5t74 13.5 t66 42.5t49 83.5t18 128.5t-18 128t-49 83t-65.5 42t-74.5 13q-39 0 -73 -13t-65 -42t-49 -83t-18 -128z" />
<glyph unicode="&#xd5;" horiz-adv-x="1472" d="M51 686q0 155 42 279t110 202.5t159 130.5t183.5 73.5t189.5 21.5q98 0 190.5 -21.5t184 -73.5t159.5 -130.5t110 -202.5t42 -279t-42.5 -279t-110 -202t-159 -130.5t-183.5 -73.5t-189 -21t-189.5 21t-184 73.5t-159.5 130.5t-110.5 202t-42.5 279zM397 1593 q0 82 33 123q47 72 156 72q76 0 174 -41q52 -21 77 -27t62 -6q38 0 74 29q28 20 64 -22.5t36 -96.5q0 -78 -33 -123q-46 -69 -157 -69q-66 0 -172 41q-52 20 -78.5 26t-63.5 6q-33 0 -73 -28q-26 -20 -62.5 22t-36.5 94zM530 686q0 -74 18 -128.5t49 -83.5t65 -42.5 t73 -13.5t74 13.5t66 42.5t49 83.5t18 128.5t-18 128t-49 83t-65.5 42t-74.5 13q-39 0 -73 -13t-65 -42t-49 -83t-18 -128z" />
<glyph unicode="&#xd6;" horiz-adv-x="1472" d="M51 686q0 155 42 279t110 202.5t159 130.5t183.5 73.5t189.5 21.5q98 0 190.5 -21.5t184 -73.5t159.5 -130.5t110 -202.5t42 -279t-42.5 -279t-110 -202t-159 -130.5t-183.5 -73.5t-189 -21t-189.5 21t-184 73.5t-159.5 130.5t-110.5 202t-42.5 279zM336 1620 q0 87 50 124.5t124 37.5q73 0 122.5 -37.5t49.5 -124.5t-49.5 -124.5t-122.5 -37.5q-74 0 -124 37.5t-50 124.5zM530 686q0 -74 18 -128.5t49 -83.5t65 -42.5t73 -13.5t74 13.5t66 42.5t49 83.5t18 128.5t-18 128t-49 83t-65.5 42t-74.5 13q-39 0 -73 -13t-65 -42t-49 -83 t-18 -128zM788 1620q0 87 50.5 124.5t124.5 37.5q73 0 122.5 -37.5t49.5 -124.5t-49.5 -124.5t-122.5 -37.5q-74 0 -124.5 37.5t-50.5 124.5z" />
<glyph unicode="&#xd7;" horiz-adv-x="1130" d="M87.5 872q-15.5 44 1 93.5t71.5 103.5l6 6q55 55 105.5 71.5t93.5 0.5t90 -62l120 -122l97 96q81 78 144 77.5t136 -75.5q52 -52 69 -94t1 -88t-70 -101l-96 -94l135 -135q43 -43 56 -84.5t-6.5 -90t-77.5 -106.5q-84 -82 -150 -85.5t-127 61.5l-135 135l-94 -96 q-84 -80 -146.5 -78t-136.5 78q-77 77 -77.5 137t79.5 143l96 96l-122 121q-47 48 -62.5 92z" />
<glyph unicode="&#xd8;" horiz-adv-x="1472" d="M51 686q0 155 42 279t110 202.5t159 130.5t183.5 73.5t189.5 21.5q217 0 389 -105l103 123q31 37 60.5 46.5t80.5 -5.5q63 -24 74 -68.5t-27 -89.5l-127 -151q133 -181 133 -457q0 -155 -42.5 -279t-110 -202t-159 -130.5t-183.5 -73.5t-189 -21q-197 0 -352 81 l-117 -141q-58 -72 -137 -45q-135 46 -51 158l133 162q-162 183 -162 491zM530 686q0 -47 11 -100l286 346q-41 20 -92 20q-39 0 -73 -13t-65 -42t-49 -83t-18 -128zM688 422q28 -4 47 -4q39 0 74 13.5t66 42.5t49 83.5t18 128.5q0 6 -1 19.5t-1 19.5z" />
<glyph unicode="&#xd9;" horiz-adv-x="1396" d="M72 666v501q0 107 54.5 156t164.5 49h33q116 0 165.5 -48t49.5 -157v-589q0 -158 159 -158q160 0 160 158v589q0 109 49.5 157t165.5 48h33q110 0 164.5 -49t54.5 -156v-501q0 -72 -4 -130t-19.5 -131t-41 -128t-73 -111.5t-112 -93t-161 -59.5t-216.5 -23t-216.5 23 t-161 59.5t-111.5 93t-73 111.5t-41 128.5t-19 131t-4 129.5zM399 1692v86q0 47 18 74.5t46.5 34t58.5 2t58 -18.5l348 -172q39 -19 54 -45.5t15 -65.5v-18q0 -46 -26 -71.5t-63 -26.5t-77 6l-350 86q-34 9 -58 47t-24 82z" />
<glyph unicode="&#xda;" horiz-adv-x="1396" d="M72 666v501q0 107 54.5 156t164.5 49h33q116 0 165.5 -48t49.5 -157v-589q0 -158 159 -158q160 0 160 158v589q0 109 49.5 157t165.5 48h33q110 0 164.5 -49t54.5 -156v-501q0 -72 -4 -130t-19.5 -131t-41 -128t-73 -111.5t-112 -93t-161 -59.5t-216.5 -23t-216.5 23 t-161 59.5t-111.5 93t-73 111.5t-41 128.5t-19 131t-4 129.5zM399 1569v18q0 39 15.5 65.5t54.5 45.5l348 172q28 14 58 18.5t58 -2t46 -34t18 -74.5v-86q0 -44 -24 -82t-58 -47l-350 -86q-40 -7 -77 -6t-63 26.5t-26 71.5z" />
<glyph unicode="&#xdb;" horiz-adv-x="1396" d="M72 666v501q0 107 54.5 156t164.5 49h33q116 0 165.5 -48t49.5 -157v-589q0 -158 159 -158q160 0 160 158v589q0 109 49.5 157t165.5 48h33q110 0 164.5 -49t54.5 -156v-501q0 -72 -4 -130t-19.5 -131t-41 -128t-73 -111.5t-112 -93t-161 -59.5t-216.5 -23t-216.5 23 t-161 59.5t-111.5 93t-73 111.5t-41 128.5t-19 131t-4 129.5zM336 1604q0 37 24 63t74 59l144 97q46 30 120 30q79 0 121 -30l142 -97q36 -24 52.5 -37t32 -36t15.5 -49q0 -67 -42.5 -104.5t-88.5 -37.5q-54 0 -88 21l-144 90l-143 -90q-34 -21 -88 -21q-46 0 -88.5 37.5 t-42.5 104.5z" />
<glyph unicode="&#xdc;" horiz-adv-x="1396" d="M72 666v501q0 107 54.5 156t164.5 49h33q116 0 165.5 -48t49.5 -157v-589q0 -158 159 -158q160 0 160 158v589q0 109 49.5 157t165.5 48h33q110 0 164.5 -49t54.5 -156v-501q0 -72 -4 -130t-19.5 -131t-41 -128t-73 -111.5t-112 -93t-161 -59.5t-216.5 -23t-216.5 23 t-161 59.5t-111.5 93t-73 111.5t-41 128.5t-19 131t-4 129.5zM299 1620q0 87 50 124.5t124 37.5q73 0 122.5 -37.5t49.5 -124.5t-49.5 -124.5t-122.5 -37.5q-74 0 -124 37.5t-50 124.5zM752 1620q0 87 50 124.5t124 37.5q73 0 122.5 -37.5t49.5 -124.5t-49.5 -124.5 t-122.5 -37.5q-74 0 -124 37.5t-50 124.5z" />
<glyph unicode="&#xdd;" horiz-adv-x="1316" d="M63 1133q-80 239 140 239h135q83 0 122 -45.5t68 -142.5q11 -37 30.5 -105t30.5 -105.5t29.5 -92t38.5 -103.5h2q20 49 38.5 103.5t29.5 92t30.5 105.5t30.5 105q14 47 27.5 77t34.5 57.5t53 40.5t76 13h135q219 0 139 -239q-64 -193 -148 -362t-206 -345v-227 q0 -106 -49 -152.5t-164 -46.5h-61q-118 0 -165.5 46t-47.5 153v235q-224 323 -349 699zM358 1569v18q0 39 15.5 65.5t54.5 45.5l348 172q28 14 58 18.5t58 -2t46 -34t18 -74.5v-86q0 -44 -24 -82t-58 -47l-350 -86q-40 -7 -77 -6t-63 26.5t-26 71.5z" />
<glyph unicode="&#xdf;" horiz-adv-x="1306" d="M57 895q0 106 31 192t94 152.5t169 103.5t247 37q225 0 353 -93.5t128 -282.5q0 -73 -28.5 -129t-79.5 -111q62 -26 109 -56.5t91.5 -77.5t68.5 -116t24 -156q0 -174 -107.5 -271t-294.5 -97q-313 0 -313 207q0 150 98 180q6 -4 27.5 -20t35 -23.5t43.5 -15t66 -7.5 q26 0 43 17t17 37q0 23 -16 40t-60 31q-53 17 -90 36.5t-72 50t-52.5 77t-17.5 107.5q0 31 17.5 106t17.5 105q0 41 -14.5 60t-46.5 19q-64 0 -64 -77v-721q0 -108 -44.5 -153.5t-157.5 -45.5h-7q-118 0 -165.5 46t-47.5 153z" />
<glyph unicode="&#xe0;" horiz-adv-x="1120" d="M27 326q0 82 34.5 146t93 102t129.5 57.5t150 19.5t205 -20v22q0 44 -48.5 69.5t-133.5 25.5q-155 0 -279 -62q-33 24 -51.5 41.5t-34.5 49t-16 69.5q0 105 125 182.5t334 77.5q112 0 197.5 -23.5t141 -65t90 -102.5t49 -130t13.5 -154l-2 -228q0 -84 25.5 -142.5 t58.5 -78.5q-3 -30 -15.5 -60t-38.5 -61.5t-74 -51t-112 -19.5q-86 0 -136.5 38t-82.5 115l-4 2q-16 -55 -83.5 -105t-180.5 -50q-69 0 -131.5 21.5t-112.5 62t-80 106t-30 146.5zM260 1384v86q0 47 18 74.5t46 34.5t58 2.5t58 -18.5l348 -172q39 -19 54.5 -45.5t15.5 -65.5 v-18q0 -67 -50 -88t-116 -5l-350 86q-34 9 -58 47t-24 82zM426 362q0 -36 26 -61t68 -25q54 0 86.5 36t32.5 91v37q-59 13 -111 13q-102 0 -102 -91z" />
<glyph unicode="&#xe1;" horiz-adv-x="1120" d="M27 326q0 82 34.5 146t93 102t129.5 57.5t150 19.5t205 -20v22q0 44 -48.5 69.5t-133.5 25.5q-155 0 -279 -62q-33 24 -51.5 41.5t-34.5 49t-16 69.5q0 105 125 182.5t334 77.5q112 0 197.5 -23.5t141 -65t90 -102.5t49 -130t13.5 -154l-2 -228q0 -84 25.5 -142.5 t58.5 -78.5q-3 -30 -15.5 -60t-38.5 -61.5t-74 -51t-112 -19.5q-86 0 -136.5 38t-82.5 115l-4 2q-16 -55 -83.5 -105t-180.5 -50q-69 0 -131.5 21.5t-112.5 62t-80 106t-30 146.5zM260 1262v18q0 39 15.5 65.5t54.5 45.5l348 172q28 14 58 18.5t58 -2.5t46 -34.5t18 -74.5 v-86q0 -44 -24 -82t-58 -47l-350 -86q-66 -16 -116 5t-50 88zM426 362q0 -36 26 -61t68 -25q54 0 86.5 36t32.5 91v37q-59 13 -111 13q-102 0 -102 -91z" />
<glyph unicode="&#xe2;" horiz-adv-x="1120" d="M27 326q0 82 34.5 146t93 102t129.5 57.5t150 19.5t205 -20v22q0 44 -48.5 69.5t-133.5 25.5q-155 0 -279 -62q-33 24 -51.5 41.5t-34.5 49t-16 69.5q0 105 125 182.5t334 77.5q112 0 197.5 -23.5t141 -65t90 -102.5t49 -130t13.5 -154l-2 -228q0 -84 25.5 -142.5 t58.5 -78.5q-3 -30 -15.5 -60t-38.5 -61.5t-74 -51t-112 -19.5q-86 0 -136.5 38t-82.5 115l-4 2q-16 -55 -83.5 -105t-180.5 -50q-69 0 -131.5 21.5t-112.5 62t-80 106t-30 146.5zM197 1296q0 37 24.5 64t73.5 59l143 97q46 30 121 30q79 0 121 -30l141 -97q36 -24 52.5 -37 t32.5 -36.5t16 -49.5q0 -67 -42.5 -104t-88.5 -37q-55 0 -89 21l-143 90l-143 -90q-34 -21 -88 -21q-46 0 -88.5 37t-42.5 104zM426 362q0 -36 26 -61t68 -25q54 0 86.5 36t32.5 91v37q-59 13 -111 13q-102 0 -102 -91z" />
<glyph unicode="&#xe3;" horiz-adv-x="1120" d="M27 326q0 82 34.5 146t93 102t129.5 57.5t150 19.5t205 -20v22q0 44 -48.5 69.5t-133.5 25.5q-155 0 -279 -62q-33 24 -51.5 41.5t-34.5 49t-16 69.5q0 105 125 182.5t334 77.5q112 0 197.5 -23.5t141 -65t90 -102.5t49 -130t13.5 -154l-2 -228q0 -84 25.5 -142.5 t58.5 -78.5q-3 -30 -15.5 -60t-38.5 -61.5t-74 -51t-112 -19.5q-86 0 -136.5 38t-82.5 115l-4 2q-16 -55 -83.5 -105t-180.5 -50q-69 0 -131.5 21.5t-112.5 62t-80 106t-30 146.5zM221 1317q0 82 33 123q46 71 156 71q76 0 174 -41q51 -21 76 -26.5t63 -5.5q39 0 74 28 q28 20 64 -22t36 -96q0 -78 -33 -123q-47 -70 -157 -70q-66 0 -172 41q-53 21 -79.5 27t-62.5 6q-32 0 -74 -29q-26 -20 -62 22.5t-36 94.5zM426 362q0 -36 26 -61t68 -25q54 0 86.5 36t32.5 91v37q-59 13 -111 13q-102 0 -102 -91z" />
<glyph unicode="&#xe4;" horiz-adv-x="1120" d="M27 326q0 82 34.5 146t93 102t129.5 57.5t150 19.5t205 -20v22q0 44 -48.5 69.5t-133.5 25.5q-155 0 -279 -62q-33 24 -51.5 41.5t-34.5 49t-16 69.5q0 105 125 182.5t334 77.5q112 0 197.5 -23.5t141 -65t90 -102.5t49 -130t13.5 -154l-2 -228q0 -84 25.5 -142.5 t58.5 -78.5q-3 -30 -15.5 -60t-38.5 -61.5t-74 -51t-112 -19.5q-86 0 -136.5 38t-82.5 115l-4 2q-16 -55 -83.5 -105t-180.5 -50q-69 0 -131.5 21.5t-112.5 62t-80 106t-30 146.5zM160 1313q0 87 50 124.5t124 37.5q73 0 122.5 -37.5t49.5 -124.5t-49.5 -124.5t-122.5 -37.5 q-74 0 -124 37.5t-50 124.5zM426 362q0 -36 26 -61t68 -25q54 0 86.5 36t32.5 91v37q-59 13 -111 13q-102 0 -102 -91zM612 1313q0 87 50 124.5t124 37.5q73 0 122.5 -37.5t49.5 -124.5t-49.5 -124.5t-122.5 -37.5q-74 0 -124 37.5t-50 124.5z" />
<glyph unicode="&#xe5;" horiz-adv-x="1120" d="M27 326q0 82 34.5 146t93 102t129.5 57.5t150 19.5t205 -20v22q0 44 -48.5 69.5t-133.5 25.5q-155 0 -279 -62q-33 24 -51.5 41.5t-34.5 49t-16 69.5q0 105 125 182.5t334 77.5q112 0 197.5 -23.5t141 -65t90 -102.5t49 -130t13.5 -154l-2 -228q0 -84 25.5 -142.5 t58.5 -78.5q-3 -30 -15.5 -60t-38.5 -61.5t-74 -51t-112 -19.5q-86 0 -136.5 38t-82.5 115l-4 2q-16 -55 -83.5 -105t-180.5 -50q-69 0 -131.5 21.5t-112.5 62t-80 106t-30 146.5zM319 1401q0 106 68 169.5t172 63.5t172 -63.5t68 -169.5t-68 -169t-172 -63t-172 63t-68 169 zM426 362q0 -36 26 -61t68 -25q54 0 86.5 36t32.5 91v37q-59 13 -111 13q-102 0 -102 -91zM498 1401q0 -31 16.5 -49.5t44.5 -18.5t45 18.5t17 49.5t-17 49t-45 18t-44.5 -18t-16.5 -49z" />
<glyph unicode="&#xe7;" horiz-adv-x="1021" d="M27 539q0 115 30.5 210.5t84 162.5t125.5 113.5t154.5 68.5t172.5 22q99 0 177.5 -25t125.5 -67.5t71.5 -94t24.5 -108.5q0 -76 -62 -129t-165 -53q-52 70 -145 70q-168 0 -168 -170q0 -80 42.5 -125t125.5 -45q101 0 165 57q90 -5 151.5 -58t61.5 -128 q0 -106 -100 -177.5t-252 -80.5q-6 -15 -10 -27h12q65 0 103.5 -42t38.5 -108q0 -114 -83 -175.5t-210 -61.5q-117 0 -193 51.5t-76 140.5q0 55 35 85t64 30q32 -51 133 -51q40 0 65 11.5t25 29.5q0 37 -70 37h-6q-17 0 -25 8.5t-4 21.5q2 8 10.5 30t12.5 32q-92 17 -170 58 t-140 106t-97 162.5t-35 218.5z" />
<glyph unicode="&#xe8;" horiz-adv-x="1056" d="M27 528q0 269 160 422.5t415 153.5q103 0 185.5 -30t135 -82t80 -119.5t27.5 -145.5q0 -80 -30 -141.5t-83 -97.5t-118.5 -54t-141.5 -18q-149 0 -239 45q0 -59 77 -105.5t179 -46.5q132 0 229 58q42 -20 69 -60t27 -90q0 -51 -26.5 -92.5t-68.5 -67t-96 -42.5 t-105.5 -24t-100.5 -7q-266 0 -420.5 138t-154.5 406zM291 1364v86q0 47 18 74.5t46 34t58 2t58 -18.5l348 -172q39 -19 54.5 -45t15.5 -65v-19q0 -46 -26 -71.5t-63 -26.5t-77 6l-350 86q-34 9 -58 47t-24 82zM424 641q93 -29 154 -29q108 0 108 82q0 36 -35 58t-86 22 q-49 0 -91.5 -38t-49.5 -95z" />
<glyph unicode="&#xe9;" horiz-adv-x="1056" d="M27 528q0 269 160 422.5t415 153.5q103 0 185.5 -30t135 -82t80 -119.5t27.5 -145.5q0 -80 -30 -141.5t-83 -97.5t-118.5 -54t-141.5 -18q-149 0 -239 45q0 -59 77 -105.5t179 -46.5q132 0 229 58q42 -20 69 -60t27 -90q0 -51 -26.5 -92.5t-68.5 -67t-96 -42.5 t-105.5 -24t-100.5 -7q-266 0 -420.5 138t-154.5 406zM229 1241v19q0 39 15.5 65t54.5 45l348 172q28 14 58 18.5t58 -2t46 -34t18 -74.5v-86q0 -44 -24 -82t-58 -47l-350 -86q-40 -7 -77 -6t-63 26.5t-26 71.5zM424 641q93 -29 154 -29q108 0 108 82q0 36 -35 58t-86 22 q-49 0 -91.5 -38t-49.5 -95z" />
<glyph unicode="&#xea;" horiz-adv-x="1056" d="M27 528q0 269 160 422.5t415 153.5q103 0 185.5 -30t135 -82t80 -119.5t27.5 -145.5q0 -80 -30 -141.5t-83 -97.5t-118.5 -54t-141.5 -18q-149 0 -239 45q0 -59 77 -105.5t179 -46.5q132 0 229 58q42 -20 69 -60t27 -90q0 -51 -26.5 -92.5t-68.5 -67t-96 -42.5 t-105.5 -24t-100.5 -7q-266 0 -420.5 138t-154.5 406zM207 1296q0 37 24.5 64t73.5 59l144 97q46 30 120 30q79 0 121 -30l141 -97q36 -24 52.5 -37t32.5 -36.5t16 -49.5q0 -67 -42.5 -104t-88.5 -37q-54 0 -88 21l-144 90l-143 -90q-34 -21 -88 -21q-46 0 -88.5 37 t-42.5 104zM424 641q93 -29 154 -29q108 0 108 82q0 36 -35 58t-86 22q-49 0 -91.5 -38t-49.5 -95z" />
<glyph unicode="&#xeb;" horiz-adv-x="1056" d="M27 528q0 269 160 422.5t415 153.5q103 0 185.5 -30t135 -82t80 -119.5t27.5 -145.5q0 -80 -30 -141.5t-83 -97.5t-118.5 -54t-141.5 -18q-149 0 -239 45q0 -59 77 -105.5t179 -46.5q132 0 229 58q42 -20 69 -60t27 -90q0 -51 -26.5 -92.5t-68.5 -67t-96 -42.5 t-105.5 -24t-100.5 -7q-266 0 -420.5 138t-154.5 406zM170 1323q0 87 50 124.5t124 37.5q73 0 122.5 -37.5t49.5 -124.5t-49.5 -124.5t-122.5 -37.5q-74 0 -124 37.5t-50 124.5zM424 641q93 -29 154 -29q108 0 108 82q0 36 -35 58t-86 22q-49 0 -91.5 -38t-49.5 -95z M623 1323q0 87 50 124.5t124 37.5q73 0 122.5 -37.5t49.5 -124.5t-49.5 -124.5t-122.5 -37.5q-74 0 -124 37.5t-50 124.5z" />
<glyph unicode="&#xec;" horiz-adv-x="626" d="M41 1384v86q0 47 18 74.5t46 34.5t58 2.5t58 -18.5l348 -172q39 -19 54.5 -45.5t15.5 -65.5v-18q0 -67 -50 -88t-116 -5l-350 86q-34 9 -58 47t-24 82zM123 199v694q0 109 49 156t164 47q119 0 169 -47t50 -156v-694q0 -106 -49 -152.5t-164 -46.5h-6q-118 0 -165.5 46 t-47.5 153z" />
<glyph unicode="&#xed;" horiz-adv-x="626" d="M41 1262v18q0 39 15.5 65.5t54.5 45.5l348 172q28 14 58 18.5t58 -2.5t46 -34.5t18 -74.5v-86q0 -44 -24 -82t-58 -47l-350 -86q-66 -16 -116 5t-50 88zM123 199v694q0 109 49 156t164 47q119 0 169 -47t50 -156v-694q0 -106 -49 -152.5t-164 -46.5h-6q-118 0 -165.5 46 t-47.5 153z" />
<glyph unicode="&#xee;" horiz-adv-x="884" d="M82 1337q0 37 24.5 64t73.5 59l144 96q47 31 120 31q78 0 121 -31l142 -96q35 -24 52 -37.5t32.5 -36.5t15.5 -49q0 -67 -42.5 -104t-88.5 -37q-54 0 -88 21l-144 90l-143 -90q-34 -21 -88 -21q-46 0 -88.5 37t-42.5 104zM227 199v694q0 109 49 156t164 47q119 0 169 -47 t50 -156v-694q0 -106 -49 -152.5t-164 -46.5h-6q-118 0 -165.5 46t-47.5 153z" />
<glyph unicode="&#xef;" horiz-adv-x="882" d="M41 1354q0 87 50 124.5t124 37.5q73 0 122.5 -37.5t49.5 -124.5t-49.5 -124.5t-122.5 -37.5q-74 0 -124 37.5t-50 124.5zM223 199v694q0 109 49 156t164 47q119 0 169 -47t50 -156v-694q0 -106 -49 -152.5t-164 -46.5h-6q-118 0 -165.5 46t-47.5 153zM494 1354 q0 87 50 124.5t124 37.5q73 0 122.5 -37.5t49.5 -124.5t-49.5 -124.5t-122.5 -37.5q-74 0 -124 37.5t-50 124.5z" />
<glyph unicode="&#xf1;" horiz-adv-x="1159" d="M57 199v694q0 109 49 156t164 47q119 0 169 -47t50 -156v-27q73 240 308 240q63 0 118 -22t100 -67.5t71 -124.5t26 -183v-508q0 -108 -49.5 -154.5t-165.5 -46.5h-16q-103 0 -154 48t-51 153v383q0 102 -86 102q-47 0 -74 -46t-27 -132v-309q0 -106 -49 -152.5 t-164 -46.5h-6q-118 0 -165.5 46t-47.5 153zM242 1317q0 83 32 123q46 71 156 71q76 0 174 -41q51 -21 76 -26.5t63 -5.5q39 0 74 28q28 20 64.5 -22t36.5 -96q0 -78 -33 -123q-47 -70 -158 -70q-66 0 -172 41q-54 21 -79.5 27t-61.5 6q-32 0 -74 -29q-26 -20 -62 22.5 t-36 94.5z" />
<glyph unicode="&#xf2;" horiz-adv-x="1161" d="M27 543q0 115 34.5 211t90.5 160t129.5 108.5t149 64t151.5 19.5t151.5 -19.5t148.5 -64t129 -108.5t90 -160t34 -211t-34 -210t-89.5 -157.5t-128.5 -105.5t-148.5 -61.5t-152.5 -18.5t-152.5 18.5t-149 61.5t-129 105.5t-90 157.5t-34.5 210zM281 1384v86q0 47 18 74.5 t46 34.5t58 2.5t58 -18.5l348 -172q39 -19 54.5 -45.5t15.5 -65.5v-18q0 -67 -50 -88t-116 -5l-351 86q-34 9 -57.5 47t-23.5 82zM457 549q0 -180 123 -180q122 0 122 180t-122 180q-123 0 -123 -180z" />
<glyph unicode="&#xf3;" horiz-adv-x="1161" d="M27 543q0 115 34.5 211t90.5 160t129.5 108.5t149 64t151.5 19.5t151.5 -19.5t148.5 -64t129 -108.5t90 -160t34 -211t-34 -210t-89.5 -157.5t-128.5 -105.5t-148.5 -61.5t-152.5 -18.5t-152.5 18.5t-149 61.5t-129 105.5t-90 157.5t-34.5 210zM281 1262v18q0 39 15 65.5 t54 45.5l348 172q39 19 78.5 21.5t71 -25.5t31.5 -89v-86q0 -44 -24 -82t-58 -47l-351 -86q-66 -16 -115.5 5t-49.5 88zM457 549q0 -180 123 -180q122 0 122 180t-122 180q-123 0 -123 -180z" />
<glyph unicode="&#xf4;" horiz-adv-x="1161" d="M27 543q0 115 34.5 211t90.5 160t129.5 108.5t149 64t151.5 19.5t151.5 -19.5t148.5 -64t129 -108.5t90 -160t34 -211t-34 -210t-89.5 -157.5t-128.5 -105.5t-148.5 -61.5t-152.5 -18.5t-152.5 18.5t-149 61.5t-129 105.5t-90 157.5t-34.5 210zM217 1317q0 37 24.5 64 t73.5 59l144 96q47 31 121 31q77 0 120 -31l142 -96q35 -24 52 -37.5t32.5 -36.5t15.5 -49q0 -67 -42.5 -104t-88.5 -37q-56 0 -88 20l-143 90l-144 -90q-32 -20 -88 -20q-46 0 -88.5 37t-42.5 104zM457 549q0 -180 123 -180q122 0 122 180t-122 180q-123 0 -123 -180z" />
<glyph unicode="&#xf5;" horiz-adv-x="1161" d="M27 543q0 115 34.5 211t90.5 160t129.5 108.5t149 64t151.5 19.5t151.5 -19.5t148.5 -64t129 -108.5t90 -160t34 -211t-34 -210t-89.5 -157.5t-128.5 -105.5t-148.5 -61.5t-152.5 -18.5t-152.5 18.5t-149 61.5t-129 105.5t-90 157.5t-34.5 210zM242 1317q0 83 32 123 q46 71 156 71q76 0 174 -41q51 -21 76 -26.5t63 -5.5q39 0 74 28q28 20 64.5 -22t36.5 -96q0 -78 -33 -123q-47 -70 -158 -70q-66 0 -172 41q-54 21 -79.5 27t-61.5 6q-32 0 -74 -29q-26 -20 -62 22.5t-36 94.5zM457 549q0 -180 123 -180q122 0 122 180t-122 180 q-123 0 -123 -180z" />
<glyph unicode="&#xf6;" horiz-adv-x="1161" d="M27 543q0 115 34.5 211t90.5 160t129.5 108.5t149 64t151.5 19.5t151.5 -19.5t148.5 -64t129 -108.5t90 -160t34 -211t-34 -210t-89.5 -157.5t-128.5 -105.5t-148.5 -61.5t-152.5 -18.5t-152.5 18.5t-149 61.5t-129 105.5t-90 157.5t-34.5 210zM180 1333q0 87 50 124.5 t124 37.5q73 0 122.5 -37.5t49.5 -124.5t-49.5 -124.5t-122.5 -37.5q-74 0 -124 37.5t-50 124.5zM457 549q0 -180 123 -180q122 0 122 180t-122 180q-123 0 -123 -180zM633 1333q0 87 50 124.5t124 37.5q73 0 122.5 -37.5t49.5 -124.5t-49.5 -124.5t-122.5 -37.5 q-74 0 -124 37.5t-50 124.5z" />
<glyph unicode="&#xf7;" horiz-adv-x="1267" d="M102 696q0 109 44 154.5t157 42.5h660q112 0 156 -46t44 -151q3 -108 -41 -153t-159 -45h-660q-113 0 -157 46t-44 152zM442 180q0 87 57 134.5t134 47.5q81 0 136.5 -47.5t55.5 -134.5q0 -85 -56 -132.5t-136 -47.5q-77 0 -134 48t-57 132zM442 1190q0 84 57.5 133 t133.5 49q80 0 136 -48.5t56 -133.5q0 -87 -55.5 -133.5t-136.5 -46.5q-77 0 -134 46.5t-57 133.5z" />
<glyph unicode="&#xf8;" horiz-adv-x="1161" d="M27 543q0 115 34.5 211t90.5 160t129.5 108.5t149 64t151.5 19.5q167 0 309 -90l55 67q19 24 39 30.5t51 -3.5q41 -14 48.5 -42.5t-17.5 -57.5l-70 -84q138 -151 138 -383q0 -115 -34 -210t-89.5 -157.5t-128.5 -105.5t-148.5 -61.5t-152.5 -18.5q-165 0 -297 76l-56 -66 q-38 -46 -88 -29q-87 29 -32 101l65 78q-147 147 -147 393zM457 549q0 -37 2 -53l180 217q-21 16 -59 16q-123 0 -123 -180zM539 375q18 -6 41 -6q122 0 122 180v20z" />
<glyph unicode="&#xf9;" horiz-adv-x="1169" d="M57 387v508q0 108 49.5 154.5t165.5 46.5h17q103 0 154 -48t51 -153v-412q0 -102 86 -102q47 0 73.5 46t26.5 132v338q0 106 49 152.5t164 46.5h6q118 0 165.5 -46t47.5 -153v-694q0 -109 -49 -156t-164 -47q-119 0 -169 47t-50 156v10q-68 -223 -307 -223q-63 0 -118 22 t-100.5 67.5t-71.5 124.5t-26 183zM285 1405v86q0 47 18 74.5t46 34t58 2t58 -18.5l348 -172q39 -19 54.5 -45.5t15.5 -65.5v-18q0 -46 -26 -71.5t-63 -26.5t-77 6l-350 86q-34 9 -58 47t-24 82z" />
<glyph unicode="&#xfa;" horiz-adv-x="1169" d="M57 387v508q0 108 49.5 154.5t165.5 46.5h17q103 0 154 -48t51 -153v-412q0 -102 86 -102q47 0 73.5 46t26.5 132v338q0 106 49 152.5t164 46.5h6q118 0 165.5 -46t47.5 -153v-694q0 -109 -49 -156t-164 -47q-119 0 -169 47t-50 156v10q-68 -223 -307 -223q-63 0 -118 22 t-100.5 67.5t-71.5 124.5t-26 183zM285 1282v18q0 39 15 65.5t54 45.5l348 172q28 14 58 18.5t58.5 -2t46.5 -34t18 -74.5v-86q0 -44 -24 -82t-58 -47l-350 -86q-40 -7 -77 -6t-63 26.5t-26 71.5z" />
<glyph unicode="&#xfb;" horiz-adv-x="1169" d="M57 387v508q0 108 49.5 154.5t165.5 46.5h17q103 0 154 -48t51 -153v-412q0 -102 86 -102q47 0 73.5 46t26.5 132v338q0 106 49 152.5t164 46.5h6q118 0 165.5 -46t47.5 -153v-694q0 -109 -49 -156t-164 -47q-119 0 -169 47t-50 156v10q-68 -223 -307 -223q-63 0 -118 22 t-100.5 67.5t-71.5 124.5t-26 183zM221 1317q0 37 24.5 64t73.5 59l144 96q47 31 121 31q78 0 121 -31l141 -96q35 -24 52 -37.5t32.5 -36.5t15.5 -49q0 -67 -42.5 -104t-88.5 -37q-56 0 -88 20l-143 90l-144 -90q-32 -20 -88 -20q-46 0 -88.5 37t-42.5 104z" />
<glyph unicode="&#xfc;" horiz-adv-x="1169" d="M57 387v508q0 108 49.5 154.5t165.5 46.5h17q103 0 154 -48t51 -153v-412q0 -102 86 -102q47 0 73.5 46t26.5 132v338q0 106 49 152.5t164 46.5h6q118 0 165.5 -46t47.5 -153v-694q0 -109 -49 -156t-164 -47q-119 0 -169 47t-50 156v10q-68 -223 -307 -223q-63 0 -118 22 t-100.5 67.5t-71.5 124.5t-26 183zM184 1333q0 87 50 124.5t124 37.5q73 0 122.5 -37.5t49.5 -124.5t-49.5 -124.5t-122.5 -37.5q-74 0 -124 37.5t-50 124.5zM637 1333q0 87 50 124.5t124 37.5q73 0 122.5 -37.5t49.5 -124.5t-49.5 -124.5t-122.5 -37.5q-74 0 -124 37.5 t-50 124.5z" />
<glyph unicode="&#xfd;" horiz-adv-x="1191" d="M20 977q0 63 52 91t133 28h80q84 0 133.5 -31t60.5 -104q3 -18 12.5 -77.5t14.5 -89.5t16 -89.5t20.5 -104.5t23.5 -106t30 -121q19 71 34 136.5t29 139.5t20 105t19.5 117t14.5 90q11 73 60.5 104t133.5 31h80q81 0 132.5 -28t51.5 -91q0 -9 -10 -59 q-132 -610 -377 -1162q-34 -74 -74.5 -110.5t-117.5 -36.5h-111q-77 0 -121.5 37t-44.5 104q0 31 23 78l100 195q-90 35 -153 149q-99 179 -152 343.5t-102 402.5q-11 55 -11 59zM297 1241v19q0 39 15.5 65t54.5 45l348 172q28 14 58 18.5t58 -2t46 -34t18 -74.5v-86 q0 -44 -24 -82t-58 -47l-350 -86q-40 -7 -77 -6t-63 26.5t-26 71.5z" />
<glyph unicode="&#xff;" horiz-adv-x="1191" d="M20 977q0 63 52 91t133 28h80q84 0 133.5 -31t60.5 -104q3 -18 12.5 -77.5t14.5 -89.5t16 -89.5t20.5 -104.5t23.5 -106t30 -121q19 71 34 136.5t29 139.5t20 105t19.5 117t14.5 90q11 73 60.5 104t133.5 31h80q81 0 132.5 -28t51.5 -91q0 -9 -10 -59 q-132 -610 -377 -1162q-34 -74 -74.5 -110.5t-117.5 -36.5h-111q-77 0 -121.5 37t-44.5 104q0 31 23 78l100 195q-90 35 -153 149q-99 179 -152 343.5t-102 402.5q-11 55 -11 59zM197 1354q0 87 50 124.5t124 37.5q73 0 122.5 -37.5t49.5 -124.5t-49.5 -124.5t-122.5 -37.5 q-74 0 -124 37.5t-50 124.5zM649 1354q0 87 50 124.5t124 37.5q73 0 122.5 -37.5t49.5 -124.5t-49.5 -124.5t-122.5 -37.5q-74 0 -124 37.5t-50 124.5z" />
<glyph unicode="&#x178;" horiz-adv-x="1316" d="M63 1133q-80 239 140 239h135q83 0 122 -45.5t68 -142.5q11 -37 30.5 -105t30.5 -105.5t29.5 -92t38.5 -103.5h2q20 49 38.5 103.5t29.5 92t30.5 105.5t30.5 105q14 47 27.5 77t34.5 57.5t53 40.5t76 13h135q219 0 139 -239q-64 -193 -148 -362t-206 -345v-227 q0 -106 -49 -152.5t-164 -46.5h-61q-118 0 -165.5 46t-47.5 153v235q-224 323 -349 699zM258 1589q0 87 50 124.5t124 37.5q73 0 122.5 -37.5t49.5 -124.5t-49.5 -124.5t-122.5 -37.5q-74 0 -124 37.5t-50 124.5zM711 1589q0 87 50 124.5t124 37.5q73 0 122.5 -37.5 t49.5 -124.5t-49.5 -124.5t-122.5 -37.5q-74 0 -124 37.5t-50 124.5z" />
<glyph unicode="&#x2c6;" horiz-adv-x="978" d="M127 1255q0 37 24.5 64t73.5 59l144 97q46 30 120 30q79 0 121 -30l142 -97q35 -24 52 -37.5t32.5 -36.5t15.5 -49q0 -67 -42.5 -104t-88.5 -37q-54 0 -88 21l-144 90l-143 -90q-34 -21 -88 -21q-46 0 -88.5 37t-42.5 104z" />
<glyph unicode="&#x2dc;" horiz-adv-x="892" d="M104 1296q0 82 33 123q47 72 156 72q76 0 174 -41q52 -21 77 -27t62 -6q38 0 74 29q28 20 64 -22.5t36 -96.5q0 -80 -32 -123q-46 -69 -158 -69q-66 0 -172 41q-52 20 -78.5 26t-63.5 6q-33 0 -73 -28q-26 -20 -62.5 22t-36.5 94z" />
<glyph unicode="&#x2000;" horiz-adv-x="945" />
<glyph unicode="&#x2001;" horiz-adv-x="1890" />
<glyph unicode="&#x2002;" horiz-adv-x="945" />
<glyph unicode="&#x2003;" horiz-adv-x="1890" />
<glyph unicode="&#x2004;" horiz-adv-x="630" />
<glyph unicode="&#x2005;" horiz-adv-x="472" />
<glyph unicode="&#x2006;" horiz-adv-x="315" />
<glyph unicode="&#x2007;" horiz-adv-x="315" />
<glyph unicode="&#x2008;" horiz-adv-x="236" />
<glyph unicode="&#x2009;" horiz-adv-x="378" />
<glyph unicode="&#x200a;" horiz-adv-x="105" />
<glyph unicode="&#x2010;" horiz-adv-x="1134" d="M78 621q0 96 53 146t152 50h569q99 0 152 -50t53 -146t-53 -146.5t-152 -50.5h-569q-99 0 -152 50.5t-53 146.5z" />
<glyph unicode="&#x2011;" horiz-adv-x="1134" d="M78 621q0 96 53 146t152 50h569q99 0 152 -50t53 -146t-53 -146.5t-152 -50.5h-569q-99 0 -152 50.5t-53 146.5z" />
<glyph unicode="&#x2012;" horiz-adv-x="1134" d="M78 621q0 96 53 146t152 50h569q99 0 152 -50t53 -146t-53 -146.5t-152 -50.5h-569q-99 0 -152 50.5t-53 146.5z" />
<glyph unicode="&#x2013;" horiz-adv-x="1318" d="M78 621q0 96 53 146t152 50h753q99 0 152 -50t53 -146t-53 -146.5t-152 -50.5h-753q-99 0 -152 50.5t-53 146.5z" />
<glyph unicode="&#x2014;" horiz-adv-x="1875" d="M78 621q0 96 53 146t152 50h1310q99 0 152 -50t53 -146t-53 -146.5t-152 -50.5h-1310q-99 0 -152 50.5t-53 146.5z" />
<glyph unicode="&#x2018;" horiz-adv-x="632" d="M66 1036q0 169 100.5 283.5t228.5 114.5q71 0 100 -32.5t29 -74.5q-87 -32 -138.5 -82t-51.5 -112q99 14 145 -25q66 -53 66 -135q0 -95 -61.5 -159t-161.5 -64q-107 0 -181.5 80.5t-74.5 205.5z" />
<glyph unicode="&#x2019;" horiz-adv-x="632" d="M88 1210q0 95 61.5 159.5t161.5 64.5q106 0 181 -81t75 -206q0 -169 -100.5 -283t-228.5 -114q-71 0 -100 32t-29 74q87 32 138.5 82.5t51.5 112.5q-100 -14 -145 24q-66 53 -66 135z" />
<glyph unicode="&#x201a;" horiz-adv-x="632" d="M86 217q0 95 61.5 159t161.5 64q107 0 181.5 -80.5t74.5 -205.5q0 -169 -100.5 -283.5t-228.5 -114.5q-71 0 -100.5 32.5t-29.5 74.5q87 32 139 82t52 112q-99 -14 -145 25q-66 53 -66 135z" />
<glyph unicode="&#x201c;" horiz-adv-x="1128" d="M61 1036q0 169 101 283.5t229 114.5q71 0 100 -32.5t29 -74.5q-87 -32 -138.5 -82t-51.5 -112q99 14 145 -25q66 -53 66 -135q0 -95 -62 -159t-162 -64q-107 0 -181.5 80.5t-74.5 205.5zM567 1036q0 169 101 283.5t229 114.5q71 0 100 -32.5t29 -74.5q-87 -32 -138.5 -82 t-51.5 -112q99 14 145 -25q66 -53 66 -135q0 -95 -62 -159t-162 -64q-107 0 -181.5 80.5t-74.5 205.5z" />
<glyph unicode="&#x201d;" horiz-adv-x="1153" d="M59 1210q0 95 62 159.5t162 64.5q106 0 181 -81t75 -206q0 -169 -101 -283t-229 -114q-71 0 -100 32t-29 74q87 32 138.5 82.5t51.5 112.5q-100 -14 -145 24q-66 53 -66 135zM592 1210q0 95 61.5 159.5t161.5 64.5q106 0 181 -81t75 -206q0 -169 -101 -283t-229 -114 q-71 0 -100 32t-29 74q87 32 139 82.5t52 112.5q-101 -14 -146 24q-65 52 -65 135z" />
<glyph unicode="&#x201e;" horiz-adv-x="1153" d="M59 233q0 95 62 159.5t162 64.5q106 0 181 -81t75 -206q0 -169 -101 -283t-229 -114q-71 0 -100 32t-29 74q87 32 138.5 82.5t51.5 112.5q-100 -14 -145 24q-66 53 -66 135zM592 233q0 95 61.5 159.5t161.5 64.5q106 0 181 -81t75 -206q0 -169 -101 -283t-229 -114 q-71 0 -100 32t-29 74q87 32 139 82.5t52 112.5q-101 -14 -146 24q-65 52 -65 135z" />
<glyph unicode="&#x2022;" horiz-adv-x="978" d="M172 700q0 154 91 232t231 78q138 0 226.5 -77.5t88.5 -232.5q0 -154 -89 -234.5t-226 -80.5q-139 0 -230.5 80.5t-91.5 234.5z" />
<glyph unicode="&#x2026;" horiz-adv-x="1802" d="M82 213q0 107 66.5 166t160.5 59q98 0 164 -59t66 -166t-66 -165t-164 -58q-94 0 -160.5 58t-66.5 165zM676 213q0 107 66.5 166t160.5 59q98 0 164 -59t66 -166t-66 -165t-164 -58q-94 0 -160.5 58t-66.5 165zM1264 213q0 107 66.5 166t160.5 59q98 0 163.5 -58.5 t65.5 -166.5q0 -107 -65.5 -165t-163.5 -58q-94 0 -160.5 58t-66.5 165z" />
<glyph unicode="&#x202f;" horiz-adv-x="378" />
<glyph unicode="&#x2039;" horiz-adv-x="811" d="M61 508q0 74 52 131l321 319q58 59 110 58t115 -62l25 -24q63 -63 63.5 -115t-59.5 -110l-194 -197l194 -197q60 -58 59.5 -111t-63.5 -114l-25 -27q-63 -60 -115 -60.5t-110 58.5l-321 320q-52 57 -52 131z" />
<glyph unicode="&#x203a;" horiz-adv-x="811" d="M63.5 201q-0.5 52 59.5 110l194 197l-194 197q-60 58 -59.5 111t63.5 114l25 26q63 60 115 60.5t110 -58.5l321 -319q52 -57 52 -131t-52 -131l-321 -320q-58 -59 -110 -58t-115 62l-25 25q-63 63 -63.5 115z" />
<glyph unicode="&#x205f;" horiz-adv-x="472" />
<glyph unicode="&#x20ac;" horiz-adv-x="1503" d="M61 594q0 75 80 78h95v45h-89q-45 0 -65.5 19t-20.5 65q0 75 80 78h115q27 128 90.5 227.5t152.5 161.5t196 93.5t227 31.5q222 0 357.5 -93t135.5 -231q0 -58 -23 -101.5t-62.5 -69t-82 -39.5t-92.5 -21q-27 53 -85 82.5t-132 29.5q-108 0 -166 -71h182q45 0 65.5 -19 t20.5 -63q-3 -77 -86 -80h-239v-45h239q45 0 65.5 -19t20.5 -63q-3 -77 -86 -80h-196q59 -88 180 -88q130 0 215 104q102 -12 181 -74.5t79 -160.5q0 -139 -134.5 -225t-342.5 -86q-122 0 -231.5 31.5t-203 94t-160 166t-91.5 238.5h-103q-45 0 -65.5 19t-20.5 65z" />
<glyph unicode="&#x2122;" horiz-adv-x="1638" d="M49 1317q0 117 105 117h452q103 0 103 -117q0 -55 -28 -84t-75 -29h-102v-397q0 -58 -26.5 -82.5t-88.5 -24.5h-20q-65 0 -89 23.5t-24 83.5v397h-102q-49 0 -77 28.5t-28 84.5zM758 807v518q0 60 26 84.5t88 24.5h56q39 0 64.5 -8t43 -29t26 -38.5t23.5 -55.5l80 -228 l82 228q13 36 22.5 55t27 39.5t44 28.5t66.5 8h51q63 0 89 -24.5t26 -84.5v-518q0 -59 -25 -83t-90 -24h-6q-61 0 -86 24t-25 83l9 305l-64 -184q-28 -99 -106 -99h-29q-37 0 -66 26t-41 73l-59 184l8 -305q0 -59 -25.5 -83t-88.5 -24h-7q-64 0 -89 24t-25 83z" />
<glyph unicode="&#xe000;" horiz-adv-x="1095" d="M0 0v1096h1096v-1096h-1096z" />
</font>
</defs>
</svg>
